<svg width="346" height="254" viewBox="0 0 346 254" fill="none" xmlns="http://www.w3.org/2000/svg">
<g clip-path="url(#clip0_9_128)">
<path d="M68.2241 21.2238C119.904 21.2238 155.882 21.4591 298.405 21.2238C359.871 28.3162 359.871 104.749 298.405 112.623C229.111 112.623 37.6334 112.28 37.6334 112.28C-10.3032 120.496 -11.6508 194.505 37.6334 208.129C78.7369 208.129 229.164 208.129 285.223 208.129" stroke="#00B487" stroke-linecap="round" stroke-linejoin="round"/>
<path d="M265.797 243.816V243.035H271.252V243.816H268.965V250.307H268.084V243.816H265.797ZM273.36 250.435C273.015 250.435 272.701 250.37 272.419 250.24C272.138 250.107 271.914 249.917 271.748 249.668C271.583 249.417 271.5 249.114 271.5 248.759C271.5 248.446 271.561 248.193 271.684 247.999C271.807 247.803 271.972 247.649 272.178 247.537C272.384 247.426 272.611 247.343 272.86 247.289C273.111 247.232 273.363 247.187 273.616 247.154C273.948 247.111 274.216 247.079 274.422 247.058C274.631 247.034 274.782 246.995 274.877 246.941C274.974 246.886 275.022 246.792 275.022 246.657V246.628C275.022 246.278 274.926 246.006 274.735 245.812C274.545 245.617 274.258 245.52 273.872 245.52C273.472 245.52 273.158 245.608 272.931 245.783C272.703 245.958 272.544 246.145 272.451 246.344L271.656 246.06C271.798 245.729 271.987 245.471 272.224 245.286C272.463 245.099 272.724 244.969 273.005 244.895C273.289 244.82 273.569 244.782 273.843 244.782C274.019 244.782 274.22 244.803 274.447 244.846C274.677 244.886 274.898 244.97 275.111 245.098C275.327 245.226 275.505 245.419 275.647 245.677C275.789 245.935 275.86 246.28 275.86 246.714V250.307H275.022V249.569H274.98C274.923 249.687 274.828 249.814 274.696 249.949C274.563 250.084 274.387 250.198 274.167 250.293C273.946 250.388 273.678 250.435 273.36 250.435ZM273.488 249.682C273.82 249.682 274.099 249.617 274.326 249.487C274.556 249.357 274.729 249.189 274.845 248.983C274.963 248.777 275.022 248.56 275.022 248.333V247.566C274.987 247.608 274.909 247.647 274.788 247.683C274.67 247.716 274.532 247.746 274.376 247.772C274.222 247.795 274.072 247.817 273.925 247.836C273.781 247.852 273.663 247.866 273.574 247.878C273.356 247.907 273.152 247.953 272.963 248.017C272.776 248.078 272.624 248.172 272.508 248.297C272.395 248.42 272.338 248.589 272.338 248.802C272.338 249.093 272.445 249.313 272.661 249.462C272.879 249.609 273.154 249.682 273.488 249.682ZM278.015 244.853L279.322 247.083L280.629 244.853H281.595L279.833 247.58L281.595 250.307H280.629L279.322 248.191L278.015 250.307H277.049L278.782 247.58L277.049 244.853H278.015ZM284.853 250.421C284.327 250.421 283.874 250.305 283.493 250.073C283.114 249.839 282.822 249.512 282.616 249.093C282.412 248.671 282.31 248.181 282.31 247.623C282.31 247.064 282.412 246.571 282.616 246.145C282.822 245.717 283.108 245.383 283.475 245.144C283.844 244.902 284.275 244.782 284.768 244.782C285.052 244.782 285.332 244.829 285.609 244.924C285.886 245.018 286.138 245.172 286.366 245.385C286.593 245.596 286.774 245.875 286.909 246.223C287.044 246.571 287.111 247 287.111 247.509V247.864H282.907V247.14H286.259C286.259 246.832 286.198 246.557 286.074 246.316C285.954 246.074 285.781 245.884 285.556 245.744C285.333 245.604 285.071 245.535 284.768 245.535C284.434 245.535 284.145 245.617 283.901 245.783C283.66 245.946 283.474 246.16 283.344 246.422C283.213 246.685 283.148 246.967 283.148 247.267V247.75C283.148 248.162 283.219 248.512 283.361 248.798C283.506 249.082 283.706 249.299 283.961 249.448C284.217 249.595 284.514 249.668 284.853 249.668C285.073 249.668 285.272 249.637 285.449 249.576C285.629 249.512 285.784 249.417 285.915 249.292C286.045 249.164 286.145 249.005 286.216 248.816L287.026 249.043C286.941 249.318 286.798 249.559 286.596 249.767C286.395 249.973 286.147 250.134 285.851 250.25C285.555 250.364 285.222 250.421 284.853 250.421ZM292.25 246.074L291.497 246.287C291.45 246.162 291.38 246.04 291.287 245.922C291.198 245.801 291.074 245.701 290.918 245.623C290.762 245.545 290.562 245.506 290.318 245.506C289.984 245.506 289.706 245.583 289.483 245.737C289.263 245.888 289.153 246.081 289.153 246.316C289.153 246.524 289.229 246.689 289.381 246.809C289.532 246.93 289.769 247.031 290.091 247.111L290.9 247.31C291.388 247.428 291.751 247.61 291.991 247.853C292.23 248.095 292.349 248.406 292.349 248.787C292.349 249.1 292.259 249.379 292.079 249.625C291.902 249.872 291.653 250.066 291.334 250.208C291.014 250.35 290.642 250.421 290.219 250.421C289.662 250.421 289.202 250.3 288.837 250.059C288.473 249.817 288.242 249.464 288.145 249L288.94 248.802C289.016 249.095 289.159 249.315 289.37 249.462C289.583 249.609 289.861 249.682 290.204 249.682C290.595 249.682 290.905 249.599 291.135 249.434C291.367 249.266 291.483 249.064 291.483 248.83C291.483 248.641 291.416 248.482 291.284 248.354C291.151 248.224 290.948 248.127 290.673 248.063L289.764 247.85C289.265 247.731 288.898 247.548 288.663 247.299C288.431 247.048 288.315 246.735 288.315 246.358C288.315 246.051 288.402 245.778 288.574 245.542C288.75 245.305 288.988 245.119 289.288 244.984C289.591 244.849 289.934 244.782 290.318 244.782C290.858 244.782 291.282 244.9 291.589 245.137C291.899 245.374 292.12 245.686 292.25 246.074Z" fill="#4C4D5F"/>
<path fill-rule="evenodd" clip-rule="evenodd" d="M277.948 192.984H296.68C296.842 192.984 296.969 193.113 296.969 193.276V217.674C296.969 223.331 292.429 227.914 286.825 227.914H268.008C267.846 227.914 267.719 227.786 267.719 227.623V193.276" fill="#A9E2FF"/>
<path fill-rule="evenodd" clip-rule="evenodd" d="M277.055 201.208L280.66 198.754L284.368 201.208V193.01H277.055V201.208Z" fill="#00B487"/>
<path fill-rule="evenodd" clip-rule="evenodd" d="M289.954 217.476H273.586C273.339 217.476 273.135 217.27 273.135 217.021C273.135 216.772 273.339 216.566 273.586 216.566H289.954C290.201 216.566 290.405 216.772 290.405 217.021C290.405 217.27 290.201 217.476 289.954 217.476Z" fill="#00B487"/>
<path fill-rule="evenodd" clip-rule="evenodd" d="M286.783 221.073H273.577C273.331 221.073 273.127 220.867 273.127 220.618C273.127 220.369 273.331 220.162 273.577 220.162H286.783C287.029 220.162 287.233 220.369 287.233 220.618C287.233 220.867 287.038 221.073 286.783 221.073Z" fill="#00B487"/>
<path fill-rule="evenodd" clip-rule="evenodd" d="M272.616 187.353H291.349C291.51 187.353 291.638 187.481 291.638 187.645V214.858C291.638 218.961 288.347 222.282 284.283 222.282H262.685C262.523 222.282 262.396 222.154 262.396 221.991V187.645" fill="white"/>
<path fill-rule="evenodd" clip-rule="evenodd" d="M284.283 222.738H262.685C262.277 222.738 261.945 222.404 261.945 221.991V187.645C261.945 187.396 262.149 187.189 262.396 187.189C262.643 187.189 262.847 187.396 262.847 187.645V221.828H284.283C288.092 221.828 291.187 218.703 291.187 214.858V187.816H272.617C272.37 187.816 272.166 187.61 272.166 187.361C272.166 187.112 272.37 186.906 272.617 186.906H291.349C291.757 186.906 292.089 187.241 292.089 187.652V214.866C292.089 219.201 288.585 222.738 284.283 222.738Z" fill="#00B487"/>
<path fill-rule="evenodd" clip-rule="evenodd" d="M284.632 211.845H268.263C268.017 211.845 267.812 211.639 267.812 211.39C267.812 211.141 268.017 210.934 268.263 210.934H284.632C284.878 210.934 285.082 211.141 285.082 211.39C285.082 211.639 284.878 211.845 284.632 211.845Z" fill="#00B487"/>
<path fill-rule="evenodd" clip-rule="evenodd" d="M281.46 215.441H268.255C268.008 215.441 267.804 215.235 267.804 214.986C267.804 214.737 268.008 214.531 268.255 214.531H281.46C281.707 214.531 281.911 214.737 281.911 214.986C281.911 215.235 281.707 215.441 281.46 215.441Z" fill="#00B487"/>
<path fill-rule="evenodd" clip-rule="evenodd" d="M272.727 196.727H267.515C267.268 196.727 267.064 196.521 267.064 196.272C267.064 196.023 267.268 195.817 267.515 195.817H272.727C272.974 195.817 273.178 196.023 273.178 196.272C273.178 196.521 272.974 196.727 272.727 196.727Z" fill="#00B487"/>
<path fill-rule="evenodd" clip-rule="evenodd" d="M270.117 202.101C269.87 202.101 269.666 201.895 269.666 201.646V196.263C269.666 196.014 269.87 195.808 270.117 195.808C270.363 195.808 270.567 196.014 270.567 196.263V201.646C270.576 201.904 270.372 202.101 270.117 202.101Z" fill="#00B487"/>
<path fill-rule="evenodd" clip-rule="evenodd" d="M280.779 202.101C280.669 202.101 280.55 202.058 280.465 201.973C280.286 201.792 280.286 201.509 280.456 201.329L285.669 195.946C285.847 195.765 286.128 195.765 286.306 195.937C286.485 196.117 286.485 196.4 286.315 196.581L281.103 201.963C281.009 202.058 280.89 202.101 280.779 202.101Z" fill="#00B487"/>
<path fill-rule="evenodd" clip-rule="evenodd" d="M286.043 202.049C285.932 202.049 285.813 202.006 285.728 201.921L280.405 196.658C280.227 196.478 280.227 196.195 280.397 196.014C280.575 195.834 280.856 195.834 281.034 196.006L286.357 201.268C286.536 201.448 286.536 201.732 286.366 201.912C286.281 201.997 286.162 202.049 286.043 202.049Z" fill="#00B487"/>
<path fill-rule="evenodd" clip-rule="evenodd" d="M273.467 201.645L276.077 196.271L278.679 201.645" fill="white"/>
<path fill-rule="evenodd" clip-rule="evenodd" d="M273.467 202.101C273.399 202.101 273.331 202.083 273.271 202.058C273.05 201.946 272.957 201.671 273.067 201.448L275.669 196.066C275.746 195.911 275.899 195.808 276.077 195.808C276.247 195.808 276.409 195.911 276.485 196.066L279.087 201.448C279.198 201.671 279.104 201.946 278.883 202.058C278.662 202.169 278.39 202.075 278.279 201.852L276.086 197.31L273.883 201.852C273.798 202.015 273.637 202.101 273.467 202.101Z" fill="#00B487"/>
<path fill-rule="evenodd" clip-rule="evenodd" d="M277.846 200.959H274.3C274.054 200.959 273.85 200.754 273.85 200.505C273.85 200.256 274.054 200.049 274.3 200.049H277.846C278.093 200.049 278.297 200.256 278.297 200.505C278.297 200.754 278.101 200.959 277.846 200.959Z" fill="#00B487"/>
<path fill-rule="evenodd" clip-rule="evenodd" d="M170.27 234.076C160.982 234.076 153.459 226.457 153.459 217.054V209.994C153.459 200.59 160.982 192.972 170.27 192.972C179.557 192.972 187.08 200.59 187.08 209.994V217.054C187.08 226.457 179.557 234.076 170.27 234.076Z" fill="#A9E2FF"/>
<path fill-rule="evenodd" clip-rule="evenodd" d="M174.396 229.907C165.109 229.907 157.586 222.289 157.586 212.885V205.825C157.586 196.422 165.109 188.803 174.396 188.803C183.684 188.803 191.207 196.422 191.207 205.825V212.885C191.198 222.289 183.673 229.907 174.396 229.907Z" fill="white"/>
<path fill-rule="evenodd" clip-rule="evenodd" d="M168.231 189.342C162.647 189.342 158.107 193.939 158.107 199.593V219.118C158.107 224.772 162.647 229.369 168.231 229.369H180.541C186.125 229.369 190.665 224.772 190.665 219.118V199.593C190.665 193.939 186.125 189.342 180.541 189.342H168.231ZM180.551 230.436H168.241C162.076 230.436 157.063 225.36 157.063 219.118V199.593C157.063 193.351 162.076 188.275 168.241 188.275H180.551C186.717 188.275 191.729 193.351 191.729 199.593V219.118C191.72 225.36 186.706 230.436 180.551 230.436Z" fill="#00B487"/>
<path fill-rule="evenodd" clip-rule="evenodd" d="M168.881 203.98L164.863 208.049L162.549 205.696" fill="white"/>
<path fill-rule="evenodd" clip-rule="evenodd" d="M164.863 208.577C164.725 208.577 164.587 208.517 164.489 208.418L162.175 206.064C161.968 205.856 161.968 205.526 162.175 205.316C162.381 205.108 162.706 205.108 162.914 205.316L164.863 207.291L168.507 203.601C168.714 203.392 169.039 203.392 169.245 203.601C169.452 203.811 169.452 204.14 169.245 204.349L165.227 208.418C165.139 208.517 165.001 208.577 164.863 208.577Z" fill="#00B487"/>
<path fill-rule="evenodd" clip-rule="evenodd" d="M186.805 206.444H172.958C172.672 206.444 172.437 206.204 172.437 205.915C172.437 205.626 172.672 205.387 172.958 205.387H186.805C187.091 205.387 187.326 205.626 187.326 205.915C187.337 206.204 187.101 206.444 186.805 206.444Z" fill="#00B487"/>
<path fill-rule="evenodd" clip-rule="evenodd" d="M168.881 214.441L164.863 218.51L162.549 216.156" fill="white"/>
<path fill-rule="evenodd" clip-rule="evenodd" d="M164.863 219.038C164.725 219.038 164.587 218.978 164.489 218.878L162.175 216.525C161.968 216.316 161.968 215.977 162.175 215.777C162.381 215.568 162.706 215.568 162.914 215.777L164.863 217.752L168.507 214.062C168.714 213.853 169.039 213.853 169.245 214.062C169.452 214.271 169.452 214.6 169.245 214.81L165.227 218.878C165.139 218.988 165.001 219.038 164.863 219.038Z" fill="#00B487"/>
<path fill-rule="evenodd" clip-rule="evenodd" d="M181.881 216.904H172.968C172.683 216.904 172.446 216.664 172.446 216.375C172.446 216.086 172.683 215.847 172.968 215.847H181.881C182.167 215.847 182.402 216.086 182.402 216.375C182.402 216.664 182.167 216.904 181.881 216.904Z" fill="#00B487"/>
<path fill-rule="evenodd" clip-rule="evenodd" d="M158.492 199.114H190.351V195.415H158.492V199.114Z" fill="#00B487"/>
<path d="M146.552 250.307H145.629L148.299 243.035H149.208L151.879 250.307H150.955L148.782 244.185H148.725L146.552 250.307ZM146.893 247.466H150.615V248.248H146.893V247.466ZM155.114 250.421C154.602 250.421 154.162 250.3 153.793 250.059C153.423 249.817 153.139 249.485 152.941 249.061C152.742 248.637 152.642 248.153 152.642 247.608C152.642 247.054 152.744 246.566 152.948 246.142C153.154 245.716 153.44 245.383 153.807 245.144C154.176 244.902 154.607 244.782 155.1 244.782C155.483 244.782 155.829 244.853 156.137 244.995C156.444 245.137 156.696 245.336 156.893 245.591C157.089 245.847 157.211 246.145 157.259 246.486H156.421C156.357 246.238 156.215 246.017 155.994 245.826C155.777 245.632 155.483 245.535 155.114 245.535C154.787 245.535 154.501 245.62 154.254 245.79C154.011 245.958 153.82 246.196 153.683 246.504C153.548 246.809 153.48 247.168 153.48 247.58C153.48 248.001 153.547 248.368 153.679 248.681C153.814 248.993 154.003 249.236 154.247 249.409C154.494 249.582 154.782 249.668 155.114 249.668C155.332 249.668 155.529 249.63 155.707 249.554C155.884 249.479 156.035 249.37 156.158 249.228C156.281 249.086 156.369 248.915 156.421 248.716H157.259C157.211 249.038 157.094 249.328 156.907 249.586C156.722 249.842 156.477 250.046 156.172 250.197C155.869 250.346 155.516 250.421 155.114 250.421ZM160.7 250.421C160.188 250.421 159.748 250.3 159.379 250.059C159.009 249.817 158.725 249.485 158.526 249.061C158.328 248.637 158.228 248.153 158.228 247.608C158.228 247.054 158.33 246.566 158.534 246.142C158.74 245.716 159.026 245.383 159.393 245.144C159.762 244.902 160.193 244.782 160.686 244.782C161.069 244.782 161.415 244.853 161.722 244.995C162.03 245.137 162.282 245.336 162.479 245.591C162.675 245.847 162.797 246.145 162.845 246.486H162.007C161.943 246.238 161.801 246.017 161.58 245.826C161.363 245.632 161.069 245.535 160.7 245.535C160.373 245.535 160.087 245.62 159.84 245.79C159.597 245.958 159.406 246.196 159.269 246.504C159.134 246.809 159.066 247.168 159.066 247.58C159.066 248.001 159.133 248.368 159.265 248.681C159.4 248.993 159.589 249.236 159.833 249.409C160.079 249.582 160.368 249.668 160.7 249.668C160.918 249.668 161.115 249.63 161.293 249.554C161.47 249.479 161.621 249.37 161.744 249.228C161.867 249.086 161.954 248.915 162.007 248.716H162.845C162.797 249.038 162.68 249.328 162.493 249.586C162.308 249.842 162.063 250.046 161.758 250.197C161.455 250.346 161.102 250.421 160.7 250.421ZM166.286 250.421C165.793 250.421 165.361 250.304 164.99 250.069C164.62 249.835 164.331 249.507 164.123 249.086C163.917 248.664 163.814 248.172 163.814 247.608C163.814 247.04 163.917 246.544 164.123 246.12C164.331 245.697 164.62 245.368 164.99 245.133C165.361 244.899 165.793 244.782 166.286 244.782C166.778 244.782 167.209 244.899 167.578 245.133C167.95 245.368 168.239 245.697 168.445 246.12C168.653 246.544 168.757 247.04 168.757 247.608C168.757 248.172 168.653 248.664 168.445 249.086C168.239 249.507 167.95 249.835 167.578 250.069C167.209 250.304 166.778 250.421 166.286 250.421ZM166.286 249.668C166.66 249.668 166.968 249.572 167.209 249.38C167.45 249.189 167.629 248.937 167.745 248.624C167.861 248.312 167.919 247.973 167.919 247.608C167.919 247.244 167.861 246.904 167.745 246.589C167.629 246.274 167.45 246.02 167.209 245.826C166.968 245.632 166.66 245.535 166.286 245.535C165.912 245.535 165.604 245.632 165.362 245.826C165.121 246.02 164.942 246.274 164.826 246.589C164.71 246.904 164.652 247.244 164.652 247.608C164.652 247.973 164.71 248.312 164.826 248.624C164.942 248.937 165.121 249.189 165.362 249.38C165.604 249.572 165.912 249.668 166.286 249.668ZM173.474 248.077V244.853H174.312V250.307H173.474V249.384H173.417C173.289 249.661 173.091 249.897 172.821 250.091C172.551 250.282 172.21 250.378 171.798 250.378C171.457 250.378 171.154 250.304 170.889 250.155C170.624 250.003 170.415 249.776 170.264 249.473C170.112 249.167 170.037 248.783 170.037 248.319V244.853H170.875V248.262C170.875 248.66 170.986 248.977 171.208 249.214C171.433 249.45 171.72 249.569 172.068 249.569C172.276 249.569 172.488 249.515 172.703 249.409C172.921 249.302 173.104 249.139 173.25 248.919C173.4 248.699 173.474 248.418 173.474 248.077ZM176.685 247.026V250.307H175.847V244.853H176.657V245.705H176.728C176.856 245.428 177.05 245.205 177.31 245.037C177.571 244.867 177.907 244.782 178.319 244.782C178.688 244.782 179.011 244.857 179.288 245.009C179.565 245.158 179.781 245.385 179.934 245.691C180.088 245.994 180.165 246.377 180.165 246.841V250.307H179.327V246.898C179.327 246.47 179.216 246.136 178.993 245.897C178.771 245.655 178.465 245.535 178.077 245.535C177.81 245.535 177.571 245.593 177.36 245.709C177.152 245.825 176.987 245.994 176.866 246.216C176.746 246.439 176.685 246.709 176.685 247.026ZM184.069 244.853V245.563H181.242V244.853H184.069ZM182.066 243.546H182.904V248.745C182.904 248.981 182.938 249.159 183.007 249.277C183.078 249.393 183.168 249.472 183.277 249.512C183.388 249.55 183.505 249.569 183.629 249.569C183.721 249.569 183.797 249.564 183.856 249.554C183.915 249.543 183.962 249.533 183.998 249.526L184.168 250.279C184.112 250.3 184.032 250.321 183.93 250.343C183.829 250.366 183.7 250.378 183.543 250.378C183.307 250.378 183.075 250.327 182.847 250.226C182.622 250.124 182.435 249.969 182.286 249.76C182.139 249.552 182.066 249.289 182.066 248.972V243.546ZM185.33 250.307V244.853H186.168V250.307H185.33ZM185.756 243.944C185.592 243.944 185.451 243.888 185.333 243.777C185.217 243.665 185.159 243.532 185.159 243.375C185.159 243.219 185.217 243.085 185.333 242.974C185.451 242.863 185.592 242.807 185.756 242.807C185.919 242.807 186.059 242.863 186.175 242.974C186.293 243.085 186.352 243.219 186.352 243.375C186.352 243.532 186.293 243.665 186.175 243.777C186.059 243.888 185.919 243.944 185.756 243.944ZM188.541 247.026V250.307H187.703V244.853H188.512V245.705H188.583C188.711 245.428 188.905 245.205 189.166 245.037C189.426 244.867 189.762 244.782 190.174 244.782C190.544 244.782 190.867 244.857 191.144 245.009C191.421 245.158 191.636 245.385 191.79 245.691C191.944 245.994 192.021 246.377 192.021 246.841V250.307H191.183V246.898C191.183 246.47 191.071 246.136 190.849 245.897C190.626 245.655 190.321 245.535 189.933 245.535C189.665 245.535 189.426 245.593 189.215 245.709C189.007 245.825 188.843 245.994 188.722 246.216C188.601 246.439 188.541 246.709 188.541 247.026ZM195.754 252.466C195.349 252.466 195.001 252.414 194.71 252.31C194.419 252.208 194.176 252.073 193.982 251.905C193.79 251.74 193.637 251.562 193.524 251.373L194.191 250.904C194.267 251.003 194.363 251.117 194.479 251.245C194.595 251.375 194.754 251.487 194.955 251.582C195.158 251.679 195.425 251.728 195.754 251.728C196.194 251.728 196.558 251.621 196.844 251.408C197.131 251.195 197.274 250.861 197.274 250.407V249.299H197.203C197.141 249.398 197.054 249.521 196.94 249.668C196.829 249.812 196.668 249.941 196.457 250.055C196.249 250.166 195.967 250.222 195.612 250.222C195.172 250.222 194.776 250.118 194.426 249.91C194.078 249.701 193.802 249.398 193.598 249C193.397 248.603 193.297 248.12 193.297 247.552C193.297 246.993 193.395 246.506 193.591 246.092C193.788 245.675 194.061 245.353 194.412 245.126C194.762 244.897 195.167 244.782 195.626 244.782C195.981 244.782 196.263 244.841 196.471 244.959C196.682 245.075 196.843 245.208 196.954 245.357C197.068 245.504 197.155 245.624 197.217 245.719H197.302V244.853H198.112V250.464C198.112 250.932 198.005 251.313 197.792 251.607C197.582 251.903 197.297 252.12 196.94 252.257C196.585 252.397 196.19 252.466 195.754 252.466ZM195.725 249.469C196.062 249.469 196.346 249.392 196.578 249.238C196.81 249.084 196.986 248.863 197.107 248.574C197.228 248.285 197.288 247.94 197.288 247.537C197.288 247.144 197.229 246.798 197.11 246.497C196.992 246.196 196.817 245.961 196.585 245.79C196.353 245.62 196.066 245.535 195.725 245.535C195.37 245.535 195.074 245.624 194.838 245.804C194.603 245.984 194.427 246.226 194.309 246.529C194.193 246.832 194.135 247.168 194.135 247.537C194.135 247.916 194.194 248.251 194.312 248.542C194.433 248.831 194.61 249.058 194.845 249.224C195.082 249.388 195.375 249.469 195.725 249.469Z" fill="#4C4D5F"/>
<path fill-rule="evenodd" clip-rule="evenodd" d="M41.5098 201.879V225.759C41.5098 225.966 41.6711 226.128 41.8753 226.128H75.9501C81.0882 226.128 85.2482 221.933 85.2482 216.752V189.208C85.2482 189.001 85.0869 188.839 84.8838 188.839H41.8753" fill="white"/>
<path fill-rule="evenodd" clip-rule="evenodd" d="M75.9397 226.703H41.8649C41.3489 226.703 40.9297 226.28 40.9297 225.76V201.879C40.9297 201.565 41.1877 201.305 41.4994 201.305C41.8111 201.305 42.0691 201.565 42.0691 201.879V225.554H75.929C80.7446 225.554 84.6573 221.608 84.6573 216.752V189.424H41.8541C41.5424 189.424 41.2844 189.164 41.2844 188.849C41.2844 188.535 41.5424 188.275 41.8541 188.275H84.8615C85.3775 188.275 85.7967 188.698 85.7967 189.218V216.752C85.8074 222.237 81.3788 226.703 75.9397 226.703Z" fill="#00B487"/>
<path fill-rule="evenodd" clip-rule="evenodd" d="M46.2294 214.431H54.8169V195.527H46.2294V214.431Z" fill="#A9E2FF"/>
<path fill-rule="evenodd" clip-rule="evenodd" d="M59.2789 206.996H67.8675V195.527H59.2789V206.996Z" fill="white"/>
<path fill-rule="evenodd" clip-rule="evenodd" d="M59.8486 206.421H67.287V196.101H59.8486V206.421ZM67.8675 207.57H59.2789C58.9672 207.57 58.7081 207.31 58.7081 206.996V195.527C58.7081 195.213 58.9672 194.952 59.2789 194.952H67.8675C68.1792 194.952 68.4361 195.213 68.4361 195.527V206.996C68.4361 207.31 68.1792 207.57 67.8675 207.57Z" fill="#00B487"/>
<path fill-rule="evenodd" clip-rule="evenodd" d="M71.9727 210.334H80.5612V195.527H71.9727V210.334Z" fill="white"/>
<path fill-rule="evenodd" clip-rule="evenodd" d="M72.5423 209.749H79.9807V196.101H72.5423V209.749ZM80.5515 210.898H71.9619C71.6501 210.898 71.3922 210.638 71.3922 210.324V195.516C71.3922 195.202 71.6501 194.942 71.9619 194.942H80.5515C80.8632 194.942 81.1212 195.202 81.1212 195.516V210.324C81.1212 210.649 80.8729 210.898 80.5515 210.898Z" fill="#00B487"/>
<path fill-rule="evenodd" clip-rule="evenodd" d="M46.2294 201.261H54.8169V195.527H46.2294V201.261Z" fill="#00B487"/>
<path fill-rule="evenodd" clip-rule="evenodd" d="M59.2789 199.007H67.8675V195.527H59.2789V199.007Z" fill="#00B487"/>
<path fill-rule="evenodd" clip-rule="evenodd" d="M71.9727 200.015H80.5612V195.527H71.9727V200.015Z" fill="#00B487"/>
<path d="M50.1724 243.816V243.035H55.627V243.816H53.34V250.307H52.4593V243.816H50.1724ZM57.7354 250.435C57.3898 250.435 57.0761 250.37 56.7944 250.24C56.5127 250.107 56.2889 249.917 56.1232 249.668C55.9575 249.417 55.8746 249.114 55.8746 248.759C55.8746 248.446 55.9362 248.193 56.0593 247.999C56.1824 247.803 56.3469 247.649 56.5529 247.537C56.7589 247.426 56.9862 247.343 57.2347 247.289C57.4857 247.232 57.7378 247.187 57.9911 247.154C58.3226 247.111 58.5913 247.079 58.7972 247.058C59.0056 247.034 59.1571 246.995 59.2518 246.941C59.3488 246.886 59.3974 246.792 59.3974 246.657V246.628C59.3974 246.278 59.3015 246.006 59.1097 245.812C58.9203 245.617 58.6327 245.52 58.2468 245.52C57.8467 245.52 57.533 245.608 57.3058 245.783C57.0785 245.958 56.9187 246.145 56.8263 246.344L56.0309 246.06C56.1729 245.729 56.3623 245.471 56.5991 245.286C56.8382 245.099 57.0986 244.969 57.3803 244.895C57.6644 244.82 57.9438 244.782 58.2184 244.782C58.3936 244.782 58.5948 244.803 58.8221 244.846C59.0517 244.886 59.2731 244.97 59.4862 245.098C59.7016 245.226 59.8803 245.419 60.0224 245.677C60.1644 245.935 60.2354 246.28 60.2354 246.714V250.307H59.3974V249.569H59.3548C59.2979 249.687 59.2032 249.814 59.0707 249.949C58.9381 250.084 58.7617 250.198 58.5415 250.293C58.3214 250.388 58.0527 250.435 57.7354 250.435ZM57.8633 249.682C58.1947 249.682 58.4741 249.617 58.7013 249.487C58.931 249.357 59.1038 249.189 59.2198 248.983C59.3382 248.777 59.3974 248.56 59.3974 248.333V247.566C59.3619 247.608 59.2837 247.647 59.163 247.683C59.0446 247.716 58.9073 247.746 58.7511 247.772C58.5972 247.795 58.4469 247.817 58.3001 247.836C58.1557 247.852 58.0385 247.866 57.9485 247.878C57.7307 247.907 57.5271 247.953 57.3377 248.017C57.1507 248.078 56.9992 248.172 56.8832 248.297C56.7695 248.42 56.7127 248.589 56.7127 248.802C56.7127 249.093 56.8204 249.313 57.0359 249.462C57.2537 249.609 57.5295 249.682 57.8633 249.682ZM65.6287 246.074L64.8759 246.287C64.8285 246.162 64.7587 246.04 64.6664 245.922C64.5764 245.801 64.4533 245.701 64.2971 245.623C64.1408 245.545 63.9408 245.506 63.6969 245.506C63.3631 245.506 63.0849 245.583 62.8624 245.737C62.6422 245.888 62.5321 246.081 62.5321 246.316C62.5321 246.524 62.6079 246.689 62.7594 246.809C62.9109 246.93 63.1477 247.031 63.4696 247.111L64.2793 247.31C64.767 247.428 65.1304 247.61 65.3695 247.853C65.6086 248.095 65.7282 248.406 65.7282 248.787C65.7282 249.1 65.6382 249.379 65.4583 249.625C65.2807 249.872 65.0321 250.066 64.7125 250.208C64.3929 250.35 64.0212 250.421 63.5975 250.421C63.0411 250.421 62.5807 250.3 62.2161 250.059C61.8515 249.817 61.6207 249.464 61.5236 249L62.3191 248.802C62.3948 249.095 62.5381 249.315 62.7488 249.462C62.9618 249.609 63.24 249.682 63.5833 249.682C63.9739 249.682 64.284 249.599 64.5137 249.434C64.7457 249.266 64.8617 249.064 64.8617 248.83C64.8617 248.641 64.7954 248.482 64.6628 248.354C64.5302 248.224 64.3266 248.127 64.052 248.063L63.1429 247.85C62.6434 247.731 62.2765 247.548 62.0421 247.299C61.8101 247.048 61.6941 246.735 61.6941 246.358C61.6941 246.051 61.7805 245.778 61.9533 245.542C62.1285 245.305 62.3664 245.119 62.6671 244.984C62.9701 244.849 63.3134 244.782 63.6969 244.782C64.2367 244.782 64.6605 244.9 64.9682 245.137C65.2783 245.374 65.4985 245.686 65.6287 246.074ZM67.771 248.319L67.7567 247.282H67.9272L70.3136 244.853H71.3505L68.8079 247.424H68.7369L67.771 248.319ZM66.9897 250.307V243.035H67.8278V250.307H66.9897ZM70.4556 250.307L68.3249 247.608L68.9215 247.026L71.521 250.307H70.4556ZM76.2928 246.074L75.54 246.287C75.4926 246.162 75.4228 246.04 75.3304 245.922C75.2405 245.801 75.1174 245.701 74.9611 245.623C74.8049 245.545 74.6048 245.506 74.361 245.506C74.0272 245.506 73.749 245.583 73.5265 245.737C73.3063 245.888 73.1962 246.081 73.1962 246.316C73.1962 246.524 73.272 246.689 73.4235 246.809C73.575 246.93 73.8117 247.031 74.1337 247.111L74.9434 247.31C75.431 247.428 75.7944 247.61 76.0336 247.853C76.2727 248.095 76.3922 248.406 76.3922 248.787C76.3922 249.1 76.3023 249.379 76.1223 249.625C75.9448 249.872 75.6962 250.066 75.3766 250.208C75.057 250.35 74.6853 250.421 74.2615 250.421C73.7052 250.421 73.2447 250.3 72.8801 250.059C72.5156 249.817 72.2847 249.464 72.1877 249L72.9831 248.802C73.0589 249.095 73.2021 249.315 73.4128 249.462C73.6259 249.609 73.9041 249.682 74.2473 249.682C74.638 249.682 74.9481 249.599 75.1777 249.434C75.4097 249.266 75.5257 249.064 75.5257 248.83C75.5257 248.641 75.4595 248.482 75.3269 248.354C75.1943 248.224 74.9907 248.127 74.7161 248.063L73.807 247.85C73.3075 247.731 72.9405 247.548 72.7061 247.299C72.4741 247.048 72.3581 246.735 72.3581 246.358C72.3581 246.051 72.4445 245.778 72.6174 245.542C72.7926 245.305 73.0305 245.119 73.3311 244.984C73.6342 244.849 73.9775 244.782 74.361 244.782C74.9007 244.782 75.3245 244.9 75.6323 245.137C75.9424 245.374 76.1626 245.686 76.2928 246.074Z" fill="#4C4D5F"/>
<path fill-rule="evenodd" clip-rule="evenodd" d="M282.744 131.508C281.897 131.617 281.026 131.675 280.146 131.675C269.089 131.675 260.129 122.555 260.129 111.3C260.129 100.045 269.089 90.9244 280.146 90.9244C291.203 90.9244 300.163 100.045 300.163 111.3C300.163 113.643 299.777 115.902 299.054 118.003" fill="white"/>
<path fill-rule="evenodd" clip-rule="evenodd" d="M280.146 132.119C279.907 132.119 279.702 131.918 279.702 131.675C279.702 131.433 279.891 131.232 280.129 131.232C281.001 131.232 281.856 131.173 282.694 131.065C282.933 131.031 283.155 131.207 283.188 131.449C283.22 131.692 283.048 131.918 282.809 131.952C281.93 132.06 281.034 132.119 280.146 132.119Z" fill="#00B487"/>
<mask id="mask0_9_128" style="mask-type:alpha" maskUnits="userSpaceOnUse" x="259" y="90" width="41" height="40">
<path d="M259.765 90.8004H299.925V129.968H259.765V90.8004Z" fill="white"/>
</mask>
<g mask="url(#mask0_9_128)">
<path fill-rule="evenodd" clip-rule="evenodd" d="M271.39 93.4261C271.227 93.4261 271.07 93.334 270.997 93.175C270.89 92.9575 270.979 92.6897 271.202 92.5809C272.912 91.7358 274.721 91.1333 276.594 90.807C276.833 90.7651 277.063 90.9241 277.104 91.1668C277.145 91.4094 276.99 91.6437 276.751 91.6856C274.959 92.0036 273.224 92.5809 271.588 93.3842C271.522 93.4093 271.456 93.4261 271.39 93.4261ZM290.898 94.5641C290.817 94.5641 290.734 94.539 290.66 94.4972C289.123 93.5014 287.463 92.7316 285.727 92.2044C285.497 92.1374 285.366 91.8864 285.431 91.6521C285.497 91.4178 285.745 91.2839 285.974 91.3509C287.791 91.9031 289.526 92.7065 291.129 93.7524C291.335 93.8863 291.391 94.1624 291.26 94.3633C291.178 94.4888 291.038 94.5641 290.898 94.5641ZM261.535 104.254C261.476 104.254 261.428 104.246 261.37 104.221C261.148 104.128 261.032 103.869 261.124 103.643C261.822 101.852 262.768 100.162 263.926 98.6225C264.075 98.43 264.346 98.3882 264.543 98.5388C264.732 98.6894 264.773 98.9655 264.626 99.1664C263.515 100.639 262.611 102.254 261.946 103.969C261.871 104.145 261.707 104.254 261.535 104.254ZM299.481 106.471C299.292 106.471 299.112 106.338 299.061 106.145C298.594 104.363 297.878 102.647 296.94 101.066C296.818 100.857 296.884 100.581 297.089 100.455C297.295 100.329 297.566 100.396 297.689 100.606C298.668 102.262 299.415 104.053 299.908 105.919C299.975 106.153 299.835 106.405 299.597 106.463C299.555 106.463 299.514 106.471 299.481 106.471ZM261.443 119.015C261.271 119.015 261.098 118.906 261.032 118.73C260.358 116.923 259.932 115.032 259.766 113.107C259.751 112.864 259.923 112.647 260.162 112.622C260.4 112.597 260.614 112.781 260.638 113.032C260.794 114.881 261.198 116.688 261.847 118.412C261.928 118.638 261.822 118.898 261.591 118.99C261.55 119.006 261.493 119.015 261.443 119.015ZM271.177 129.968C271.111 129.968 271.045 129.951 270.979 129.918C269.286 129.048 267.716 127.952 266.318 126.638C266.137 126.47 266.13 126.186 266.294 126.01C266.458 125.826 266.738 125.818 266.911 125.985C268.251 127.24 269.755 128.295 271.374 129.123C271.588 129.232 271.679 129.5 271.572 129.717C271.489 129.876 271.334 129.968 271.177 129.968Z" fill="#00B487"/>
</g>
<path fill-rule="evenodd" clip-rule="evenodd" d="M299.053 118.454C299.004 118.454 298.955 118.446 298.906 118.429C298.675 118.346 298.56 118.094 298.634 117.86C298.914 117.04 299.144 116.195 299.317 115.341C299.366 115.099 299.596 114.948 299.834 114.998C300.073 115.049 300.221 115.283 300.172 115.526C299.991 116.421 299.752 117.3 299.456 118.153C299.399 118.337 299.234 118.454 299.053 118.454Z" fill="#00B487"/>
<path fill-rule="evenodd" clip-rule="evenodd" d="M293.332 120.948C297.132 120.948 300.213 124.084 300.213 127.952C300.213 131.82 297.132 134.956 293.332 134.956C289.531 134.956 286.451 131.82 286.451 127.952C286.451 124.084 289.531 120.948 293.332 120.948Z" fill="#A9E2FF"/>
<path fill-rule="evenodd" clip-rule="evenodd" d="M279.915 99.6603V111.668L285.119 116.965" fill="white"/>
<path fill-rule="evenodd" clip-rule="evenodd" d="M285.119 117.416C285.004 117.416 284.897 117.375 284.807 117.283L279.603 111.986C279.521 111.902 279.472 111.785 279.472 111.668V99.66C279.472 99.4174 279.669 99.2166 279.907 99.2166C280.146 99.2166 280.343 99.4174 280.343 99.66V111.484L285.423 116.647C285.596 116.822 285.596 117.098 285.423 117.274C285.342 117.375 285.235 117.416 285.119 117.416Z" fill="#00B487"/>
<path fill-rule="evenodd" clip-rule="evenodd" d="M280.146 108.957C281.422 108.957 282.456 110.009 282.456 111.308C282.456 112.607 281.422 113.659 280.146 113.659C278.87 113.659 277.836 112.607 277.836 111.308C277.836 110.009 278.87 108.957 280.146 108.957Z" fill="#00B487"/>
<path fill-rule="evenodd" clip-rule="evenodd" d="M292.773 130.37C292.657 130.37 292.543 130.32 292.461 130.236L290.529 128.261C290.356 128.085 290.356 127.809 290.529 127.634C290.701 127.458 290.973 127.458 291.145 127.634L292.773 129.29L295.814 126.194C295.987 126.019 296.258 126.019 296.431 126.194C296.603 126.37 296.603 126.646 296.431 126.822L293.077 130.236C293.002 130.328 292.888 130.37 292.773 130.37Z" fill="#00B487"/>
<path d="M245.583 149.336V148.555H251.037V149.336H248.75V155.828H247.869V149.336H245.583ZM252.283 155.828V150.373H253.121V155.828H252.283ZM252.709 149.464C252.545 149.464 252.405 149.408 252.286 149.297C252.17 149.186 252.112 149.052 252.112 148.896C252.112 148.739 252.17 148.606 252.286 148.494C252.405 148.383 252.545 148.328 252.709 148.328C252.872 148.328 253.012 148.383 253.128 148.494C253.246 148.606 253.305 148.739 253.305 148.896C253.305 149.052 253.246 149.186 253.128 149.297C253.012 149.408 252.872 149.464 252.709 149.464ZM254.656 155.828V150.373H255.465V151.225H255.536C255.65 150.934 255.834 150.708 256.087 150.547C256.34 150.384 256.644 150.302 256.999 150.302C257.359 150.302 257.659 150.384 257.898 150.547C258.139 150.708 258.328 150.934 258.463 151.225H258.519C258.659 150.944 258.869 150.72 259.148 150.554C259.427 150.386 259.762 150.302 260.153 150.302C260.641 150.302 261.039 150.455 261.35 150.76C261.66 151.063 261.815 151.535 261.815 152.177V155.828H260.977V152.177C260.977 151.774 260.867 151.487 260.646 151.314C260.426 151.141 260.167 151.055 259.869 151.055C259.485 151.055 259.188 151.171 258.977 151.403C258.767 151.632 258.661 151.924 258.661 152.276V155.828H257.809V152.092C257.809 151.782 257.709 151.532 257.507 151.342C257.306 151.151 257.047 151.055 256.73 151.055C256.512 151.055 256.308 151.113 256.119 151.229C255.932 151.345 255.78 151.506 255.664 151.712C255.551 151.915 255.494 152.151 255.494 152.418V155.828H254.656ZM265.634 155.941C265.108 155.941 264.655 155.825 264.274 155.593C263.895 155.359 263.603 155.032 263.397 154.613C263.193 154.192 263.091 153.702 263.091 153.143C263.091 152.584 263.193 152.092 263.397 151.666C263.603 151.237 263.889 150.903 264.256 150.664C264.626 150.423 265.056 150.302 265.549 150.302C265.833 150.302 266.113 150.349 266.39 150.444C266.667 150.539 266.92 150.693 267.147 150.906C267.374 151.116 267.555 151.396 267.69 151.744C267.825 152.092 267.893 152.52 267.893 153.029V153.384H263.688V152.66H267.04C267.04 152.352 266.979 152.078 266.856 151.836C266.735 151.595 266.562 151.404 266.337 151.264C266.115 151.125 265.852 151.055 265.549 151.055C265.215 151.055 264.926 151.138 264.682 151.303C264.441 151.467 264.255 151.68 264.125 151.943C263.995 152.205 263.93 152.487 263.93 152.788V153.271C263.93 153.683 264.001 154.032 264.143 154.318C264.287 154.602 264.487 154.819 264.743 154.968C264.998 155.115 265.296 155.188 265.634 155.188C265.854 155.188 266.053 155.158 266.231 155.096C266.411 155.032 266.566 154.937 266.696 154.812C266.826 154.684 266.927 154.525 266.998 154.336L267.807 154.563C267.722 154.838 267.579 155.079 267.378 155.288C267.176 155.494 266.928 155.655 266.632 155.771C266.336 155.884 266.003 155.941 265.634 155.941ZM271.696 149.336V148.555H277.15V149.336H274.863V155.828H273.983V149.336H271.696ZM277.83 155.828V150.373H278.639V151.197H278.696C278.795 150.927 278.975 150.708 279.236 150.54C279.496 150.372 279.79 150.288 280.116 150.288C280.178 150.288 280.255 150.289 280.347 150.291C280.44 150.294 280.509 150.297 280.557 150.302V151.154C280.528 151.147 280.463 151.136 280.362 151.122C280.262 151.106 280.157 151.097 280.045 151.097C279.78 151.097 279.544 151.153 279.335 151.264C279.129 151.373 278.966 151.525 278.845 151.719C278.727 151.911 278.668 152.13 278.668 152.376V155.828H277.83ZM283.155 155.955C282.81 155.955 282.496 155.89 282.214 155.76C281.933 155.627 281.709 155.437 281.543 155.188C281.377 154.937 281.295 154.634 281.295 154.279C281.295 153.967 281.356 153.713 281.479 153.519C281.602 153.323 281.767 153.169 281.973 153.058C282.179 152.946 282.406 152.863 282.655 152.809C282.906 152.752 283.158 152.707 283.411 152.674C283.742 152.631 284.011 152.6 284.217 152.578C284.425 152.555 284.577 152.515 284.672 152.461C284.769 152.407 284.817 152.312 284.817 152.177V152.149C284.817 151.798 284.721 151.526 284.53 151.332C284.34 151.138 284.053 151.041 283.667 151.041C283.267 151.041 282.953 151.128 282.726 151.303C282.498 151.479 282.339 151.666 282.246 151.864L281.451 151.58C281.593 151.249 281.782 150.991 282.019 150.806C282.258 150.619 282.519 150.489 282.8 150.416C283.084 150.34 283.364 150.302 283.638 150.302C283.814 150.302 284.015 150.323 284.242 150.366C284.472 150.406 284.693 150.49 284.906 150.618C285.122 150.746 285.3 150.939 285.442 151.197C285.584 151.455 285.655 151.801 285.655 152.234V155.828H284.817V155.089H284.775C284.718 155.207 284.623 155.334 284.491 155.469C284.358 155.604 284.182 155.719 283.961 155.813C283.741 155.908 283.473 155.955 283.155 155.955ZM283.283 155.203C283.615 155.203 283.894 155.137 284.121 155.007C284.351 154.877 284.524 154.709 284.64 154.503C284.758 154.297 284.817 154.08 284.817 153.853V153.086C284.782 153.129 284.704 153.168 284.583 153.203C284.465 153.236 284.327 153.266 284.171 153.292C284.017 153.316 283.867 153.337 283.72 153.356C283.576 153.372 283.458 153.387 283.368 153.399C283.151 153.427 282.947 153.473 282.758 153.537C282.571 153.599 282.419 153.692 282.303 153.818C282.189 153.941 282.133 154.109 282.133 154.322C282.133 154.613 282.24 154.833 282.456 154.982C282.674 155.129 282.949 155.203 283.283 155.203ZM289.401 155.941C288.89 155.941 288.449 155.82 288.08 155.579C287.711 155.337 287.426 155.005 287.228 154.581C287.029 154.157 286.929 153.673 286.929 153.129C286.929 152.575 287.031 152.086 287.235 151.662C287.441 151.236 287.727 150.903 288.094 150.664C288.463 150.423 288.894 150.302 289.387 150.302C289.77 150.302 290.116 150.373 290.424 150.515C290.731 150.657 290.984 150.856 291.18 151.112C291.377 151.367 291.498 151.666 291.546 152.006H290.708C290.644 151.758 290.502 151.538 290.282 151.346C290.064 151.152 289.77 151.055 289.401 151.055C289.074 151.055 288.788 151.14 288.542 151.31C288.298 151.479 288.107 151.716 287.97 152.024C287.835 152.33 287.767 152.688 287.767 153.1C287.767 153.522 287.834 153.889 287.966 154.201C288.101 154.514 288.291 154.756 288.534 154.929C288.781 155.102 289.069 155.188 289.401 155.188C289.619 155.188 289.816 155.15 289.994 155.075C290.172 154.999 290.322 154.89 290.445 154.748C290.568 154.606 290.656 154.435 290.708 154.237H291.546C291.498 154.559 291.381 154.849 291.194 155.107C291.01 155.362 290.765 155.566 290.459 155.717C290.156 155.867 289.803 155.941 289.401 155.941ZM293.552 153.839L293.538 152.802H293.708L296.095 150.373H297.132L294.589 152.944H294.518L293.552 153.839ZM292.771 155.828V148.555H293.609V155.828H292.771ZM296.237 155.828L294.106 153.129L294.703 152.546L297.302 155.828H296.237ZM298.21 155.828V150.373H299.048V155.828H298.21ZM298.637 149.464C298.473 149.464 298.332 149.408 298.214 149.297C298.098 149.186 298.04 149.052 298.04 148.896C298.04 148.739 298.098 148.606 298.214 148.494C298.332 148.383 298.473 148.328 298.637 148.328C298.8 148.328 298.94 148.383 299.056 148.494C299.174 148.606 299.233 148.739 299.233 148.896C299.233 149.052 299.174 149.186 299.056 149.297C298.94 149.408 298.8 149.464 298.637 149.464ZM301.422 152.546V155.828H300.583V150.373H301.393V151.225H301.464C301.592 150.948 301.786 150.726 302.047 150.558C302.307 150.387 302.643 150.302 303.055 150.302C303.424 150.302 303.748 150.378 304.025 150.529C304.301 150.678 304.517 150.906 304.671 151.211C304.825 151.514 304.902 151.898 304.902 152.362V155.828H304.064V152.418C304.064 151.99 303.952 151.656 303.73 151.417C303.507 151.176 303.202 151.055 302.814 151.055C302.546 151.055 302.307 151.113 302.096 151.229C301.888 151.345 301.723 151.514 301.603 151.737C301.482 151.959 301.422 152.229 301.422 152.546ZM308.635 157.987C308.23 157.987 307.882 157.935 307.591 157.83C307.3 157.729 307.057 157.594 306.863 157.426C306.671 157.26 306.518 157.082 306.405 156.893L307.072 156.424C307.148 156.524 307.244 156.637 307.36 156.765C307.476 156.895 307.635 157.008 307.836 157.102C308.039 157.199 308.306 157.248 308.635 157.248C309.075 157.248 309.439 157.141 309.725 156.928C310.011 156.715 310.155 156.381 310.155 155.927V154.819H310.084C310.022 154.918 309.934 155.042 309.821 155.188C309.71 155.333 309.549 155.462 309.338 155.575C309.13 155.687 308.848 155.742 308.493 155.742C308.052 155.742 307.657 155.638 307.307 155.43C306.959 155.221 306.683 154.918 306.479 154.521C306.278 154.123 306.177 153.64 306.177 153.072C306.177 152.513 306.276 152.027 306.472 151.612C306.669 151.196 306.942 150.874 307.292 150.646C307.643 150.417 308.048 150.302 308.507 150.302C308.862 150.302 309.144 150.361 309.352 150.48C309.563 150.596 309.724 150.728 309.835 150.877C309.949 151.024 310.036 151.145 310.098 151.239H310.183V150.373H310.993V155.984C310.993 156.453 310.886 156.834 310.673 157.127C310.462 157.423 310.178 157.64 309.821 157.777C309.466 157.917 309.07 157.987 308.635 157.987ZM308.606 154.989C308.943 154.989 309.227 154.913 309.459 154.759C309.691 154.605 309.867 154.383 309.988 154.095C310.108 153.806 310.169 153.46 310.169 153.058C310.169 152.665 310.11 152.318 309.991 152.017C309.873 151.716 309.698 151.481 309.466 151.31C309.234 151.14 308.947 151.055 308.606 151.055C308.251 151.055 307.955 151.145 307.719 151.325C307.484 151.505 307.308 151.746 307.189 152.049C307.073 152.352 307.015 152.688 307.015 153.058C307.015 153.436 307.075 153.771 307.193 154.063C307.314 154.351 307.491 154.579 307.726 154.744C307.962 154.908 308.256 154.989 308.606 154.989Z" fill="#4C4D5F"/>
<path fill-rule="evenodd" clip-rule="evenodd" d="M170.957 88.3181H182.894C187.671 88.3181 191.535 92.2536 191.535 97.0958V126.345L187.652 130.702L183.768 126.345L179.581 130.702L175.466 126.345L171.353 130.702L167.395 126.345L163.281 130.702L159.894 126.345V88.6266" fill="#A9E2FF"/>
<path fill-rule="evenodd" clip-rule="evenodd" d="M165.693 93.5809H177.63C182.406 93.5809 186.271 97.5164 186.271 102.359V131.608L182.388 135.964L178.504 131.608L174.316 135.964L170.202 131.608L166.089 135.964L162.131 131.608L158.016 135.964L154.629 131.608V93.8894" fill="white"/>
<path fill-rule="evenodd" clip-rule="evenodd" d="M182.388 136.46C182.25 136.46 182.121 136.404 182.03 136.301L178.494 132.337L174.667 136.32C174.574 136.413 174.427 136.469 174.316 136.469C174.187 136.469 174.058 136.413 173.966 136.32L170.202 132.337L166.438 136.32C166.347 136.413 166.217 136.469 166.088 136.469H166.08C165.941 136.469 165.813 136.413 165.72 136.31L162.112 132.347L158.357 136.32C158.257 136.423 158.118 136.479 157.98 136.469C157.842 136.46 157.704 136.394 157.621 136.282L154.234 131.926C154.17 131.842 154.133 131.73 154.133 131.618V93.8989C154.133 93.6278 154.354 93.4034 154.621 93.4034C154.888 93.4034 155.108 93.6278 155.108 93.8989V131.44L158.035 135.207L161.763 131.262C161.855 131.169 161.983 131.113 162.112 131.113H162.121C162.26 131.113 162.388 131.169 162.48 131.272L166.088 135.235L169.843 131.262C170.028 131.066 170.368 131.066 170.552 131.262L174.316 135.245L178.154 131.253C178.246 131.16 178.384 131.113 178.513 131.104C178.651 131.104 178.78 131.169 178.863 131.262L182.388 135.207L185.784 131.403V102.34C185.784 97.7689 182.121 94.0578 177.629 94.0578H165.693C165.426 94.0578 165.205 93.8334 165.205 93.5623C165.205 93.2912 165.426 93.0669 165.693 93.0669H177.629C182.664 93.0669 186.768 97.2267 186.768 102.349V131.599C186.768 131.721 186.722 131.842 186.64 131.936L182.756 136.292C182.654 136.404 182.527 136.46 182.388 136.46Z" fill="#00B487"/>
<path fill-rule="evenodd" clip-rule="evenodd" d="M168.674 104.518C168.674 103.892 169.125 103.406 170.028 103.312V105.855C168.941 105.49 168.674 105.126 168.674 104.518ZM171.142 107.855C172.227 108.201 172.54 108.584 172.54 109.22C172.54 109.912 172.043 110.361 171.142 110.463V107.855ZM167.083 110.753C167.938 111.37 168.914 111.753 169.972 111.866V112.754C169.972 113.099 170.248 113.371 170.589 113.371C170.929 113.371 171.196 113.099 171.196 112.754V111.894C172.991 111.725 174.206 110.678 174.206 109.099C174.206 107.556 173.286 106.687 171.15 106.145V103.396C171.629 103.509 172.107 103.733 172.605 104.023C172.742 104.107 172.88 104.154 173.019 104.154C173.46 104.154 173.81 103.808 173.81 103.368C173.81 103.022 173.607 102.807 173.396 102.677C172.752 102.265 172.043 101.985 171.205 101.891V101.574C171.205 101.228 170.938 100.957 170.598 100.957C170.258 100.957 169.981 101.228 169.981 101.574V101.873C168.214 102.013 167.018 103.079 167.018 104.602C167.018 106.219 167.975 107.014 170.036 107.556V110.379C169.264 110.239 168.611 109.902 167.947 109.416C167.818 109.314 167.654 109.257 167.478 109.257C167.037 109.257 166.705 109.603 166.705 110.043C166.705 110.37 166.844 110.594 167.083 110.753Z" fill="#00B487"/>
<path fill-rule="evenodd" clip-rule="evenodd" d="M179.305 119.306H161.588C161.321 119.306 161.1 119.082 161.1 118.811C161.1 118.54 161.321 118.315 161.588 118.315H179.305C179.571 118.315 179.792 118.54 179.792 118.811C179.801 119.082 179.581 119.306 179.305 119.306Z" fill="#00B487"/>
<path fill-rule="evenodd" clip-rule="evenodd" d="M177.593 123.223H163.3C163.033 123.223 162.811 122.999 162.811 122.728C162.811 122.457 163.033 122.232 163.3 122.232H177.593C177.86 122.232 178.081 122.457 178.081 122.728C178.081 122.999 177.86 123.223 177.593 123.223Z" fill="#00B487"/>
<path d="M150.971 155.828V148.555H155.36V149.336H151.851V151.793H155.132V152.575H151.851V155.046H155.417V155.828H150.971ZM157.458 150.373L158.765 152.603L160.072 150.373H161.038L159.277 153.1L161.038 155.828H160.072L158.765 153.711L157.458 155.828H156.493L158.225 153.1L156.493 150.373H157.458ZM162.234 157.873V150.373H163.044V151.239H163.143C163.204 151.145 163.29 151.024 163.399 150.877C163.51 150.728 163.669 150.596 163.874 150.48C164.083 150.361 164.365 150.302 164.72 150.302C165.179 150.302 165.584 150.417 165.934 150.646C166.285 150.876 166.558 151.202 166.754 151.623C166.951 152.044 167.049 152.542 167.049 153.114C167.049 153.692 166.951 154.193 166.754 154.617C166.558 155.038 166.286 155.365 165.938 155.597C165.59 155.826 165.188 155.941 164.734 155.941C164.383 155.941 164.103 155.883 163.892 155.767C163.682 155.649 163.519 155.515 163.406 155.366C163.292 155.214 163.204 155.089 163.143 154.989H163.072V157.873H162.234ZM163.058 153.1C163.058 153.512 163.118 153.876 163.239 154.19C163.36 154.503 163.536 154.748 163.768 154.926C164 155.101 164.284 155.188 164.62 155.188C164.971 155.188 165.263 155.096 165.497 154.911C165.734 154.724 165.912 154.473 166.03 154.158C166.151 153.841 166.211 153.488 166.211 153.1C166.211 152.717 166.152 152.371 166.034 152.063C165.918 151.753 165.741 151.508 165.504 151.328C165.27 151.146 164.975 151.055 164.62 151.055C164.279 151.055 163.993 151.141 163.761 151.314C163.529 151.484 163.354 151.724 163.235 152.031C163.117 152.337 163.058 152.693 163.058 153.1ZM170.615 155.941C170.089 155.941 169.636 155.825 169.254 155.593C168.876 155.359 168.583 155.032 168.377 154.613C168.174 154.192 168.072 153.702 168.072 153.143C168.072 152.584 168.174 152.092 168.377 151.666C168.583 151.237 168.87 150.903 169.237 150.664C169.606 150.423 170.037 150.302 170.529 150.302C170.813 150.302 171.094 150.349 171.371 150.444C171.648 150.539 171.9 150.693 172.127 150.906C172.355 151.116 172.536 151.396 172.671 151.744C172.806 152.092 172.873 152.52 172.873 153.029V153.384H168.669V152.66H172.021C172.021 152.352 171.959 152.078 171.836 151.836C171.715 151.595 171.543 151.404 171.318 151.264C171.095 151.125 170.832 151.055 170.529 151.055C170.195 151.055 169.907 151.138 169.663 151.303C169.421 151.467 169.235 151.68 169.105 151.943C168.975 152.205 168.91 152.487 168.91 152.788V153.271C168.91 153.683 168.981 154.032 169.123 154.318C169.267 154.602 169.468 154.819 169.723 154.968C169.979 155.115 170.276 155.188 170.615 155.188C170.835 155.188 171.034 155.158 171.211 155.096C171.391 155.032 171.546 154.937 171.676 154.812C171.807 154.684 171.907 154.525 171.978 154.336L172.788 154.563C172.703 154.838 172.559 155.079 172.358 155.288C172.157 155.494 171.908 155.655 171.612 155.771C171.316 155.884 170.984 155.941 170.615 155.941ZM174.986 152.546V155.828H174.148V150.373H174.958V151.225H175.029C175.156 150.948 175.351 150.726 175.611 150.558C175.871 150.387 176.208 150.302 176.619 150.302C176.989 150.302 177.312 150.378 177.589 150.529C177.866 150.678 178.081 150.906 178.235 151.211C178.389 151.514 178.466 151.898 178.466 152.362V155.828H177.628V152.418C177.628 151.99 177.517 151.656 177.294 151.417C177.072 151.176 176.766 151.055 176.378 151.055C176.11 151.055 175.871 151.113 175.661 151.229C175.452 151.345 175.288 151.514 175.167 151.737C175.046 151.959 174.986 152.229 174.986 152.546ZM183.861 151.595L183.108 151.808C183.061 151.682 182.991 151.56 182.899 151.442C182.809 151.321 182.686 151.222 182.529 151.144C182.373 151.065 182.173 151.026 181.929 151.026C181.596 151.026 181.317 151.103 181.095 151.257C180.875 151.409 180.765 151.602 180.765 151.836C180.765 152.044 180.84 152.209 180.992 152.33C181.143 152.45 181.38 152.551 181.702 152.631L182.512 152.83C182.999 152.949 183.363 153.13 183.602 153.374C183.841 153.615 183.961 153.926 183.961 154.308C183.961 154.62 183.871 154.899 183.691 155.146C183.513 155.392 183.265 155.586 182.945 155.728C182.625 155.87 182.254 155.941 181.83 155.941C181.274 155.941 180.813 155.82 180.449 155.579C180.084 155.337 179.853 154.985 179.756 154.521L180.551 154.322C180.627 154.615 180.77 154.836 180.981 154.982C181.194 155.129 181.472 155.203 181.816 155.203C182.206 155.203 182.516 155.12 182.746 154.954C182.978 154.786 183.094 154.585 183.094 154.35C183.094 154.161 183.028 154.002 182.895 153.874C182.763 153.744 182.559 153.647 182.284 153.583L181.375 153.37C180.876 153.252 180.509 153.068 180.275 152.82C180.042 152.569 179.926 152.255 179.926 151.879C179.926 151.571 180.013 151.299 180.186 151.062C180.361 150.825 180.599 150.639 180.9 150.504C181.203 150.369 181.546 150.302 181.929 150.302C182.469 150.302 182.893 150.42 183.201 150.657C183.511 150.894 183.731 151.206 183.861 151.595ZM187.509 155.941C186.983 155.941 186.53 155.825 186.149 155.593C185.77 155.359 185.478 155.032 185.272 154.613C185.068 154.192 184.966 153.702 184.966 153.143C184.966 152.584 185.068 152.092 185.272 151.666C185.478 151.237 185.764 150.903 186.131 150.664C186.501 150.423 186.931 150.302 187.424 150.302C187.708 150.302 187.988 150.349 188.265 150.444C188.542 150.539 188.795 150.693 189.022 150.906C189.249 151.116 189.43 151.396 189.565 151.744C189.7 152.092 189.768 152.52 189.768 153.029V153.384H185.563V152.66H188.915C188.915 152.352 188.854 152.078 188.731 151.836C188.61 151.595 188.437 151.404 188.212 151.264C187.99 151.125 187.727 151.055 187.424 151.055C187.09 151.055 186.801 151.138 186.557 151.303C186.316 151.467 186.13 151.68 186 151.943C185.87 152.205 185.805 152.487 185.805 152.788V153.271C185.805 153.683 185.876 154.032 186.018 154.318C186.162 154.602 186.362 154.819 186.618 154.968C186.873 155.115 187.171 155.188 187.509 155.188C187.729 155.188 187.928 155.158 188.106 155.096C188.286 155.032 188.441 154.937 188.571 154.812C188.701 154.684 188.802 154.525 188.873 154.336L189.682 154.563C189.597 154.838 189.454 155.079 189.253 155.288C189.051 155.494 188.803 155.655 188.507 155.771C188.211 155.884 187.878 155.941 187.509 155.941ZM194.906 151.595L194.153 151.808C194.106 151.682 194.036 151.56 193.944 151.442C193.854 151.321 193.731 151.222 193.574 151.144C193.418 151.065 193.218 151.026 192.974 151.026C192.64 151.026 192.362 151.103 192.14 151.257C191.92 151.409 191.809 151.602 191.809 151.836C191.809 152.044 191.885 152.209 192.037 152.33C192.188 152.45 192.425 152.551 192.747 152.631L193.557 152.83C194.044 152.949 194.408 153.13 194.647 153.374C194.886 153.615 195.006 153.926 195.006 154.308C195.006 154.62 194.916 154.899 194.736 155.146C194.558 155.392 194.309 155.586 193.99 155.728C193.67 155.87 193.299 155.941 192.875 155.941C192.318 155.941 191.858 155.82 191.493 155.579C191.129 155.337 190.898 154.985 190.801 154.521L191.596 154.322C191.672 154.615 191.815 154.836 192.026 154.982C192.239 155.129 192.517 155.203 192.861 155.203C193.251 155.203 193.561 155.12 193.791 154.954C194.023 154.786 194.139 154.585 194.139 154.35C194.139 154.161 194.073 154.002 193.94 153.874C193.808 153.744 193.604 153.647 193.329 153.583L192.42 153.37C191.921 153.252 191.554 153.068 191.319 152.82C191.087 152.569 190.971 152.255 190.971 151.879C190.971 151.571 191.058 151.299 191.231 151.062C191.406 150.825 191.644 150.639 191.944 150.504C192.247 150.369 192.591 150.302 192.974 150.302C193.514 150.302 193.938 150.42 194.246 150.657C194.556 150.894 194.776 151.206 194.906 151.595Z" fill="#4C4D5F"/>
<path d="M45.3864 148.555V155.828H44.5057V148.555H45.3864ZM47.8766 152.546V155.828H47.0385V150.373H47.8482V151.225H47.9192C48.0471 150.948 48.2412 150.726 48.5016 150.558C48.762 150.387 49.0982 150.302 49.5101 150.302C49.8794 150.302 50.2026 150.378 50.4796 150.529C50.7566 150.678 50.972 150.906 51.1259 151.211C51.2798 151.514 51.3567 151.898 51.3567 152.362V155.828H50.5186V152.418C50.5186 151.99 50.4074 151.656 50.1848 151.417C49.9623 151.176 49.6569 151.055 49.2686 151.055C49.0011 151.055 48.762 151.113 48.5513 151.229C48.343 151.345 48.1784 151.514 48.0577 151.737C47.937 151.959 47.8766 152.229 47.8766 152.546ZM57.1531 150.373L55.136 155.828H54.2837L52.2667 150.373H53.1758L54.6815 154.72H54.7383L56.244 150.373H57.1531ZM60.2798 155.941C59.7874 155.941 59.3554 155.824 58.9837 155.59C58.6143 155.355 58.3255 155.027 58.1172 154.606C57.9112 154.185 57.8082 153.692 57.8082 153.129C57.8082 152.56 57.9112 152.064 58.1172 151.641C58.3255 151.217 58.6143 150.888 58.9837 150.654C59.3554 150.419 59.7874 150.302 60.2798 150.302C60.7723 150.302 61.2031 150.419 61.5724 150.654C61.9441 150.888 62.233 151.217 62.4389 151.641C62.6473 152.064 62.7514 152.56 62.7514 153.129C62.7514 153.692 62.6473 154.185 62.4389 154.606C62.233 155.027 61.9441 155.355 61.5724 155.59C61.2031 155.824 60.7723 155.941 60.2798 155.941ZM60.2798 155.188C60.6539 155.188 60.9616 155.092 61.2031 154.901C61.4446 154.709 61.6233 154.457 61.7393 154.144C61.8554 153.832 61.9134 153.493 61.9134 153.129C61.9134 152.764 61.8554 152.424 61.7393 152.109C61.6233 151.795 61.4446 151.54 61.2031 151.346C60.9616 151.152 60.6539 151.055 60.2798 151.055C59.9058 151.055 59.598 151.152 59.3565 151.346C59.1151 151.54 58.9363 151.795 58.8203 152.109C58.7043 152.424 58.6463 152.764 58.6463 153.129C58.6463 153.493 58.7043 153.832 58.8203 154.144C58.9363 154.457 59.1151 154.709 59.3565 154.901C59.598 155.092 59.9058 155.188 60.2798 155.188ZM64.0307 155.828V150.373H64.8688V155.828H64.0307ZM64.4569 149.464C64.2935 149.464 64.1526 149.408 64.0343 149.297C63.9183 149.186 63.8603 149.052 63.8603 148.896C63.8603 148.739 63.9183 148.606 64.0343 148.494C64.1526 148.383 64.2935 148.328 64.4569 148.328C64.6202 148.328 64.7599 148.383 64.8759 148.494C64.9943 148.606 65.0534 148.739 65.0534 148.896C65.0534 149.052 64.9943 149.186 64.8759 149.297C64.7599 149.408 64.6202 149.464 64.4569 149.464ZM68.6197 155.941C68.1083 155.941 67.668 155.82 67.2987 155.579C66.9293 155.337 66.6452 155.005 66.4464 154.581C66.2475 154.157 66.1481 153.673 66.1481 153.129C66.1481 152.575 66.2499 152.086 66.4535 151.662C66.6594 151.236 66.9459 150.903 67.3129 150.664C67.6822 150.423 68.113 150.302 68.6055 150.302C68.989 150.302 69.3346 150.373 69.6424 150.515C69.9502 150.657 70.2023 150.856 70.3988 151.112C70.5953 151.367 70.7172 151.666 70.7646 152.006H69.9265C69.8626 151.758 69.7205 151.538 69.5004 151.346C69.2826 151.152 68.989 151.055 68.6197 151.055C68.293 151.055 68.0065 151.14 67.7603 151.31C67.5165 151.479 67.3259 151.716 67.1886 152.024C67.0536 152.33 66.9862 152.688 66.9862 153.1C66.9862 153.522 67.0524 153.889 67.185 154.201C67.32 154.514 67.5094 154.756 67.7532 154.929C67.9994 155.102 68.2882 155.188 68.6197 155.188C68.8375 155.188 69.0352 155.15 69.2127 155.075C69.3903 154.999 69.5406 154.89 69.6637 154.748C69.7868 154.606 69.8744 154.435 69.9265 154.237H70.7646C70.7172 154.559 70.6 154.849 70.413 155.107C70.2283 155.362 69.9833 155.566 69.6779 155.717C69.3749 155.867 69.0221 155.941 68.6197 155.941ZM74.2766 155.941C73.7511 155.941 73.2977 155.825 72.9165 155.593C72.5378 155.359 72.2454 155.032 72.0394 154.613C71.8358 154.192 71.734 153.702 71.734 153.143C71.734 152.584 71.8358 152.092 72.0394 151.666C72.2454 151.237 72.5318 150.903 72.8988 150.664C73.2681 150.423 73.699 150.302 74.1914 150.302C74.4755 150.302 74.756 150.349 75.033 150.444C75.31 150.539 75.5621 150.693 75.7894 150.906C76.0167 151.116 76.1978 151.396 76.3327 151.744C76.4677 152.092 76.5352 152.52 76.5352 153.029V153.384H72.3306V152.66H75.6829C75.6829 152.352 75.6213 152.078 75.4982 151.836C75.3775 151.595 75.2047 151.404 74.9798 151.264C74.7572 151.125 74.4944 151.055 74.1914 151.055C73.8576 151.055 73.5688 151.138 73.3249 151.303C73.0835 151.467 72.8976 151.68 72.7674 151.943C72.6372 152.205 72.5721 152.487 72.5721 152.788V153.271C72.5721 153.683 72.6431 154.032 72.7852 154.318C72.9296 154.602 73.1296 154.819 73.3853 154.968C73.641 155.115 73.9381 155.188 74.2766 155.188C74.4968 155.188 74.6957 155.158 74.8732 155.096C75.0531 155.032 75.2082 154.937 75.3384 154.812C75.4686 154.684 75.5692 154.525 75.6403 154.336L76.4499 154.563C76.3647 154.838 76.2215 155.079 76.0202 155.288C75.819 155.494 75.5704 155.655 75.2745 155.771C74.9786 155.884 74.646 155.941 74.2766 155.941ZM81.6737 151.595L80.9208 151.808C80.8735 151.682 80.8036 151.56 80.7113 151.442C80.6213 151.321 80.4982 151.222 80.342 151.144C80.1857 151.065 79.9857 151.026 79.7418 151.026C79.408 151.026 79.1299 151.103 78.9073 151.257C78.6871 151.409 78.5771 151.602 78.5771 151.836C78.5771 152.044 78.6528 152.209 78.8043 152.33C78.9558 152.45 79.1926 152.551 79.5146 152.631L80.3242 152.83C80.8119 152.949 81.1753 153.13 81.4144 153.374C81.6535 153.615 81.7731 153.926 81.7731 154.308C81.7731 154.62 81.6831 154.899 81.5032 155.146C81.3256 155.392 81.0771 155.586 80.7575 155.728C80.4379 155.87 80.0662 155.941 79.6424 155.941C79.0861 155.941 78.6256 155.82 78.261 155.579C77.8964 155.337 77.6656 154.985 77.5685 154.521L78.364 154.322C78.4397 154.615 78.583 154.836 78.7937 154.982C79.0067 155.129 79.2849 155.203 79.6282 155.203C80.0188 155.203 80.329 155.12 80.5586 154.954C80.7906 154.786 80.9066 154.585 80.9066 154.35C80.9066 154.161 80.8403 154.002 80.7077 153.874C80.5752 153.744 80.3716 153.647 80.0969 153.583L79.1879 153.37C78.6883 153.252 78.3214 153.068 78.087 152.82C77.855 152.569 77.739 152.255 77.739 151.879C77.739 151.571 77.8254 151.299 77.9982 151.062C78.1734 150.825 78.4113 150.639 78.712 150.504C79.015 150.369 79.3583 150.302 79.7418 150.302C80.2816 150.302 80.7054 150.42 81.0131 150.657C81.3233 150.894 81.5434 151.206 81.6737 151.595Z" fill="#4C4D5F"/>
<path fill-rule="evenodd" clip-rule="evenodd" d="M58.1707 91.2483H80.8699C81.0657 91.2483 81.2202 91.4034 81.2202 91.5998V124.37C81.2202 129.312 77.2327 133.312 72.3075 133.312H46.136C45.9402 133.312 45.7856 133.157 45.7856 132.961V91.5998" fill="white"/>
<path fill-rule="evenodd" clip-rule="evenodd" d="M71.8204 134.189H45.8122C45.3207 134.189 44.9214 133.779 44.9214 133.275V91.2747C44.9214 90.9703 45.1671 90.7184 45.4641 90.7184C45.761 90.7184 46.0068 90.9703 46.0068 91.2747V133.076H71.8204C76.4077 133.076 80.1348 129.255 80.1348 124.552V91.4847H57.7719C57.4749 91.4847 57.2292 91.2327 57.2292 90.9283C57.2292 90.6239 57.4749 90.3719 57.7719 90.3719H80.3294C80.8209 90.3719 81.2202 90.7814 81.2202 91.2852V124.562C81.2202 129.864 77.0016 134.189 71.8204 134.189Z" fill="#00B487"/>
<path fill-rule="evenodd" clip-rule="evenodd" d="M82.9487 109.651V134.189H44.0571V109.651L61.176 126.497C62.7341 128.021 65.2087 127.99 66.7261 126.425L82.9487 109.651Z" fill="#A9E2FF"/>
<path fill-rule="evenodd" clip-rule="evenodd" d="M62.9008 128.054C61.7927 128.054 60.6745 127.616 59.8283 126.74L45.0801 111.474C44.8685 111.255 44.8685 110.911 45.0801 110.692C45.2916 110.473 45.624 110.473 45.8356 110.692L60.5838 125.958C61.8632 127.283 63.9384 127.283 65.2077 125.958L75.1205 115.697C75.332 115.478 75.6645 115.478 75.876 115.697C76.0876 115.916 76.0876 116.26 75.876 116.479L65.9633 126.74C65.1271 127.616 64.019 128.054 62.9008 128.054Z" fill="#00B487"/>
<path fill-rule="evenodd" clip-rule="evenodd" d="M63.0708 96.5062C68.3209 96.5062 72.5776 100.821 72.5776 106.146C72.5776 111.469 68.3209 115.786 63.0708 115.786C57.8207 115.786 53.564 111.469 53.564 106.146C53.564 100.821 57.8207 96.5062 63.0708 96.5062Z" fill="#00B487"/>
<path fill-rule="evenodd" clip-rule="evenodd" d="M61.0189 103.158C61.0189 102.451 61.5385 101.902 62.5777 101.796V104.668C61.3264 104.256 61.0189 103.844 61.0189 103.158ZM63.8608 106.917C65.1121 107.307 65.4727 107.74 65.4727 108.458C65.4727 109.239 64.9001 109.746 63.8608 109.862V106.917ZM59.1843 110.2C60.1705 110.897 61.2946 111.33 62.5141 111.457V112.46C62.5141 112.85 62.8322 113.157 63.2246 113.157C63.6169 113.157 63.9245 112.85 63.9245 112.46V111.488C65.9923 111.298 67.3921 110.116 67.3921 108.331C67.3921 106.589 66.3317 105.607 63.8714 104.995V101.891C64.4229 102.018 64.9743 102.271 65.5469 102.598C65.706 102.693 65.8651 102.746 66.0241 102.746C66.5331 102.746 66.9361 102.356 66.9361 101.859C66.9361 101.469 66.7028 101.226 66.4589 101.078C65.7166 100.613 64.9001 100.297 63.9351 100.191V99.8321C63.9351 99.4414 63.6275 99.1353 63.2352 99.1353C62.8428 99.1353 62.5247 99.4414 62.5247 99.8321V100.17C60.4886 100.328 59.1101 101.532 59.1101 103.253C59.1101 105.08 60.2129 105.977 62.5883 106.589V109.778C61.6975 109.62 60.9446 109.239 60.1811 108.69C60.0326 108.574 59.8418 108.511 59.6403 108.511C59.1313 108.511 58.7495 108.902 58.7495 109.398C58.7495 109.767 58.9086 110.021 59.1843 110.2Z" fill="white"/>
<path fill-rule="evenodd" clip-rule="evenodd" d="M295.004 15.0549H279.113L276.458 9.58486H261.905C261.203 9.58231 260.529 9.868 260.031 10.3791C259.534 10.8902 259.252 11.5849 259.25 12.3102V36.9835C259.25 38.4887 260.43 39.7088 261.886 39.7088H295.022C295.721 39.7088 296.392 39.4217 296.886 38.9106C297.38 38.3995 297.658 37.7063 297.658 36.9835V17.79C297.653 16.2779 296.466 15.0549 295.004 15.0549Z" fill="#A9E2FF"/>
<path fill-rule="evenodd" clip-rule="evenodd" d="M291.741 15.062H301.027V30.1277C301.027 31.6344 299.849 32.8572 298.393 32.8626H265.254C263.801 32.8573 262.624 31.6403 262.619 30.1374V15.062H291.685" fill="white"/>
<path d="M291.741 15.062H301.027V30.1277C301.027 31.6344 299.849 32.8572 298.393 32.8626H265.254C263.801 32.8572 262.624 31.6403 262.619 30.1374V15.062H291.685" stroke="#00B487" stroke-linecap="round" stroke-linejoin="round"/>
<path fill-rule="evenodd" clip-rule="evenodd" d="M262.619 13.6927V5.46258C262.624 3.95657 263.807 2.73853 265.263 2.73853H279.829L282.473 8.21561H298.355C299.061 8.21047 299.739 8.49591 300.24 9.00886C300.742 9.52181 301.025 10.2201 301.027 10.9493V13.6927H262.619Z" fill="white" stroke="#00B487" stroke-linecap="round" stroke-linejoin="round"/>
<path fill-rule="evenodd" clip-rule="evenodd" d="M284.182 15.062V25.3316L286.872 22.2232L289.572 25.3316V15.062H284.182Z" fill="#00B487"/>
<path d="M260.805 64.7709V57.4981H263.262C263.832 57.4981 264.299 57.6011 264.661 57.8071C265.026 58.0107 265.296 58.2865 265.471 58.6345C265.646 58.9825 265.733 59.3708 265.733 59.7993C265.733 60.2278 265.646 60.6172 265.471 60.9676C265.298 61.318 265.03 61.5973 264.668 61.8057C264.306 62.0116 263.842 62.1146 263.276 62.1146H261.515V61.3334H263.248C263.638 61.3334 263.952 61.2659 264.189 61.131C264.425 60.996 264.597 60.8137 264.704 60.5841C264.813 60.3521 264.867 60.0905 264.867 59.7993C264.867 59.5081 264.813 59.2477 264.704 59.018C264.597 58.7884 264.424 58.6085 264.185 58.4783C263.946 58.3457 263.629 58.2794 263.233 58.2794H261.685V64.7709H260.805ZM267.039 64.7709V59.3163H267.848V60.1402H267.905C268.004 59.8703 268.184 59.6513 268.445 59.4832C268.705 59.3151 268.999 59.2311 269.325 59.2311C269.387 59.2311 269.464 59.2323 269.556 59.2347C269.649 59.237 269.718 59.2406 269.766 59.2453V60.0976C269.737 60.0905 269.672 60.0798 269.57 60.0656C269.471 60.049 269.366 60.0408 269.254 60.0408C268.989 60.0408 268.753 60.0964 268.544 60.2077C268.338 60.3166 268.175 60.4681 268.054 60.6622C267.936 60.854 267.877 61.073 267.877 61.3192V64.7709H267.039ZM272.809 64.8845C272.317 64.8845 271.885 64.7673 271.513 64.5329C271.144 64.2986 270.855 63.9707 270.646 63.5493C270.441 63.1279 270.338 62.6355 270.338 62.072C270.338 61.5038 270.441 61.0079 270.646 60.5841C270.855 60.1603 271.144 59.8312 271.513 59.5969C271.885 59.3625 272.317 59.2453 272.809 59.2453C273.302 59.2453 273.732 59.3625 274.102 59.5969C274.473 59.8312 274.762 60.1603 274.968 60.5841C275.177 61.0079 275.281 61.5038 275.281 62.072C275.281 62.6355 275.177 63.1279 274.968 63.5493C274.762 63.9707 274.473 64.2986 274.102 64.5329C273.732 64.7673 273.302 64.8845 272.809 64.8845ZM272.809 64.1317C273.183 64.1317 273.491 64.0358 273.732 63.844C273.974 63.6523 274.153 63.4001 274.269 63.0876C274.385 62.7751 274.443 62.4366 274.443 62.072C274.443 61.7074 274.385 61.3677 274.269 61.0528C274.153 60.738 273.974 60.4835 273.732 60.2893C273.491 60.0952 273.183 59.9981 272.809 59.9981C272.435 59.9981 272.127 60.0952 271.886 60.2893C271.644 60.4835 271.466 60.738 271.35 61.0528C271.234 61.3677 271.176 61.7074 271.176 62.072C271.176 62.4366 271.234 62.7751 271.35 63.0876C271.466 63.4001 271.644 63.6523 271.886 63.844C272.127 64.0358 272.435 64.1317 272.809 64.1317ZM276.56 59.3163H277.398V65.1686C277.398 65.5048 277.34 65.796 277.224 66.0422C277.11 66.2884 276.938 66.479 276.706 66.6139C276.476 66.7489 276.186 66.8163 275.836 66.8163C275.807 66.8163 275.779 66.8163 275.75 66.8163C275.722 66.8163 275.694 66.8163 275.665 66.8163V66.0351C275.694 66.0351 275.72 66.0351 275.743 66.0351C275.767 66.0351 275.793 66.0351 275.821 66.0351C276.077 66.0351 276.264 65.9593 276.382 65.8078C276.501 65.6587 276.56 65.4456 276.56 65.1686V59.3163ZM276.972 58.4072C276.809 58.4072 276.668 58.3516 276.549 58.2403C276.433 58.1291 276.375 57.9953 276.375 57.8391C276.375 57.6828 276.433 57.549 276.549 57.4378C276.668 57.3265 276.809 57.2709 276.972 57.2709C277.135 57.2709 277.275 57.3265 277.391 57.4378C277.509 57.549 277.569 57.6828 277.569 57.8391C277.569 57.9953 277.509 58.1291 277.391 58.2403C277.275 58.3516 277.135 58.4072 276.972 58.4072ZM281.22 64.8845C280.694 64.8845 280.241 64.7685 279.86 64.5365C279.481 64.3021 279.189 63.9754 278.983 63.5564C278.779 63.135 278.677 62.6449 278.677 62.0862C278.677 61.5275 278.779 61.0351 278.983 60.6089C279.189 60.1804 279.475 59.8466 279.842 59.6075C280.211 59.366 280.642 59.2453 281.135 59.2453C281.419 59.2453 281.699 59.2927 281.976 59.3874C282.253 59.482 282.506 59.6359 282.733 59.849C282.96 60.0597 283.141 60.3391 283.276 60.6871C283.411 61.0351 283.479 61.4636 283.479 61.9726V62.3277H279.274V61.6033H282.626C282.626 61.2955 282.565 61.0209 282.442 60.7794C282.321 60.5379 282.148 60.3473 281.923 60.2077C281.701 60.068 281.438 59.9981 281.135 59.9981C280.801 59.9981 280.512 60.081 280.268 60.2467C280.027 60.4101 279.841 60.6231 279.711 60.8859C279.581 61.1487 279.515 61.4304 279.515 61.7311V62.2141C279.515 62.626 279.586 62.9752 279.729 63.2616C279.873 63.5457 280.073 63.7624 280.329 63.9115C280.584 64.0583 280.881 64.1317 281.22 64.1317C281.44 64.1317 281.639 64.1009 281.817 64.0393C281.997 63.9754 282.152 63.8807 282.282 63.7552C282.412 63.6274 282.513 63.4688 282.584 63.2794L283.393 63.5067C283.308 63.7813 283.165 64.0228 282.964 64.2311C282.762 64.4371 282.514 64.5981 282.218 64.7141C281.922 64.8277 281.589 64.8845 281.22 64.8845ZM286.969 64.8845C286.458 64.8845 286.018 64.7638 285.648 64.5223C285.279 64.2808 284.995 63.9482 284.796 63.5244C284.597 63.1007 284.498 62.6165 284.498 62.072C284.498 61.518 284.599 61.0292 284.803 60.6054C285.009 60.1793 285.296 59.8466 285.662 59.6075C286.032 59.366 286.463 59.2453 286.955 59.2453C287.339 59.2453 287.684 59.3163 287.992 59.4584C288.3 59.6004 288.552 59.7993 288.748 60.055C288.945 60.3106 289.067 60.6089 289.114 60.9499H288.276C288.212 60.7013 288.07 60.4811 287.85 60.2893C287.632 60.0952 287.339 59.9981 286.969 59.9981C286.643 59.9981 286.356 60.0834 286.11 60.2538C285.866 60.4219 285.675 60.6598 285.538 60.9676C285.403 61.273 285.336 61.6317 285.336 62.0436C285.336 62.465 285.402 62.832 285.535 63.1445C285.67 63.457 285.859 63.6996 286.103 63.8724C286.349 64.0453 286.638 64.1317 286.969 64.1317C287.187 64.1317 287.385 64.0938 287.562 64.018C287.74 63.9423 287.89 63.8334 288.013 63.6913C288.136 63.5493 288.224 63.3788 288.276 63.18H289.114C289.067 63.5019 288.95 63.7919 288.763 64.05C288.578 64.3057 288.333 64.5093 288.028 64.6608C287.724 64.8099 287.372 64.8845 286.969 64.8845ZM292.711 59.3163V60.0266H289.885V59.3163H292.711ZM290.709 58.0095H291.547V63.2084C291.547 63.4451 291.581 63.6227 291.65 63.741C291.721 63.857 291.811 63.9352 291.92 63.9754C292.031 64.0133 292.148 64.0322 292.271 64.0322C292.363 64.0322 292.439 64.0275 292.498 64.018C292.558 64.0062 292.605 63.9967 292.64 63.9896L292.811 64.7425C292.754 64.7638 292.675 64.7851 292.573 64.8064C292.471 64.8301 292.342 64.8419 292.186 64.8419C291.949 64.8419 291.717 64.791 291.49 64.6892C291.265 64.5874 291.078 64.4323 290.929 64.224C290.782 64.0157 290.709 63.7529 290.709 63.4356V58.0095ZM297.738 60.5379L296.985 60.751C296.938 60.6255 296.868 60.5036 296.776 60.3852C296.686 60.2645 296.563 60.165 296.406 60.0869C296.25 60.0088 296.05 59.9697 295.806 59.9697C295.472 59.9697 295.194 60.0467 294.972 60.2006C294.752 60.3521 294.642 60.545 294.642 60.7794C294.642 60.9877 294.717 61.1523 294.869 61.273C295.02 61.3937 295.257 61.4944 295.579 61.5749L296.389 61.7737C296.876 61.8921 297.24 62.0732 297.479 62.317C297.718 62.5585 297.838 62.8698 297.838 63.251C297.838 63.5635 297.748 63.8428 297.568 64.0891C297.39 64.3353 297.142 64.5294 296.822 64.6714C296.502 64.8135 296.131 64.8845 295.707 64.8845C295.151 64.8845 294.69 64.7638 294.325 64.5223C293.961 64.2808 293.73 63.9281 293.633 63.4641L294.428 63.2652C294.504 63.5588 294.647 63.7789 294.858 63.9257C295.071 64.0725 295.349 64.1459 295.693 64.1459C296.083 64.1459 296.393 64.063 296.623 63.8973C296.855 63.7292 296.971 63.528 296.971 63.2936C296.971 63.1042 296.905 62.9456 296.772 62.8177C296.64 62.6875 296.436 62.5905 296.161 62.5266L295.252 62.3135C294.753 62.1951 294.386 62.0116 294.151 61.7631C293.919 61.5121 293.803 61.1984 293.803 60.822C293.803 60.5142 293.89 60.242 294.063 60.0052C294.238 59.7685 294.476 59.5827 294.776 59.4477C295.079 59.3128 295.423 59.2453 295.806 59.2453C296.346 59.2453 296.77 59.3637 297.078 59.6004C297.388 59.8372 297.608 60.1497 297.738 60.5379Z" fill="#4C4D5F"/>
<path d="M156.823 59.771H155.942C155.89 59.5177 155.799 59.2951 155.669 59.1034C155.541 58.9116 155.385 58.7506 155.2 58.6204C155.018 58.4879 154.815 58.3884 154.593 58.3221C154.37 58.2558 154.138 58.2227 153.897 58.2227C153.456 58.2227 153.057 58.334 152.7 58.5565C152.345 58.779 152.062 59.1069 151.851 59.5402C151.643 59.9734 151.539 60.5049 151.539 61.1346C151.539 61.7644 151.643 62.2959 151.851 62.7291C152.062 63.1623 152.345 63.4902 152.7 63.7128C153.057 63.9353 153.456 64.0466 153.897 64.0466C154.138 64.0466 154.37 64.0134 154.593 63.9471C154.815 63.8808 155.018 63.7826 155.2 63.6524C155.385 63.5198 155.541 63.3576 155.669 63.1659C155.799 62.9718 155.89 62.7492 155.942 62.4983H156.823C156.757 62.87 156.636 63.2026 156.461 63.4961C156.285 63.7897 156.068 64.0395 155.807 64.2454C155.547 64.449 155.254 64.6041 154.93 64.7106C154.608 64.8172 154.264 64.8704 153.897 64.8704C153.276 64.8704 152.725 64.7189 152.242 64.4159C151.759 64.1129 151.379 63.682 151.102 63.1233C150.825 62.5646 150.686 61.9017 150.686 61.1346C150.686 60.3676 150.825 59.7047 151.102 59.146C151.379 58.5873 151.759 58.1564 152.242 57.8534C152.725 57.5504 153.276 57.3988 153.897 57.3988C154.264 57.3988 154.608 57.4521 154.93 57.5586C155.254 57.6652 155.547 57.8214 155.807 58.0274C156.068 58.231 156.285 58.4796 156.461 58.7731C156.636 59.0643 156.757 59.3969 156.823 59.771ZM160.348 64.8846C159.856 64.8846 159.424 64.7674 159.052 64.5331C158.683 64.2987 158.394 63.9708 158.186 63.5494C157.98 63.128 157.877 62.6356 157.877 62.0721C157.877 61.504 157.98 61.008 158.186 60.5842C158.394 60.1604 158.683 59.8314 159.052 59.597C159.424 59.3626 159.856 59.2454 160.348 59.2454C160.841 59.2454 161.271 59.3626 161.641 59.597C162.012 59.8314 162.301 60.1604 162.507 60.5842C162.716 61.008 162.82 61.504 162.82 62.0721C162.82 62.6356 162.716 63.128 162.507 63.5494C162.301 63.9708 162.012 64.2987 161.641 64.5331C161.271 64.7674 160.841 64.8846 160.348 64.8846ZM160.348 64.1318C160.722 64.1318 161.03 64.0359 161.271 63.8441C161.513 63.6524 161.692 63.4003 161.808 63.0878C161.924 62.7753 161.982 62.4367 161.982 62.0721C161.982 61.7075 161.924 61.3678 161.808 61.053C161.692 60.7381 161.513 60.4836 161.271 60.2895C161.03 60.0953 160.722 59.9983 160.348 59.9983C159.974 59.9983 159.666 60.0953 159.425 60.2895C159.183 60.4836 159.005 60.7381 158.889 61.053C158.773 61.3678 158.715 61.7075 158.715 62.0721C158.715 62.4367 158.773 62.7753 158.889 63.0878C159.005 63.4003 159.183 63.6524 159.425 63.8441C159.666 64.0359 159.974 64.1318 160.348 64.1318ZM164.937 61.4897V64.771H164.099V59.3165H164.909V60.1687H164.98C165.108 59.8917 165.302 59.6692 165.562 59.5011C165.823 59.3307 166.159 59.2454 166.571 59.2454C166.94 59.2454 167.263 59.3212 167.54 59.4727C167.817 59.6218 168.033 59.8491 168.186 60.1545C168.34 60.4575 168.417 60.8411 168.417 61.3051V64.771H167.579V61.3619C167.579 60.9334 167.468 60.5996 167.245 60.3605C167.023 60.119 166.717 59.9983 166.329 59.9983C166.062 59.9983 165.823 60.0563 165.612 60.1723C165.404 60.2883 165.239 60.4575 165.118 60.6801C164.998 60.9026 164.937 61.1725 164.937 61.4897ZM172.321 59.3165V60.0267H169.494V59.3165H172.321ZM170.318 58.0096H171.156V63.2085C171.156 63.4452 171.19 63.6228 171.259 63.7412C171.33 63.8572 171.42 63.9353 171.529 63.9755C171.64 64.0134 171.757 64.0324 171.881 64.0324C171.973 64.0324 172.049 64.0276 172.108 64.0182C172.167 64.0063 172.214 63.9968 172.25 63.9897L172.42 64.7426C172.363 64.7639 172.284 64.7852 172.182 64.8065C172.081 64.8302 171.952 64.842 171.795 64.842C171.559 64.842 171.327 64.7911 171.099 64.6893C170.874 64.5875 170.687 64.4325 170.538 64.2241C170.391 64.0158 170.318 63.753 170.318 63.4358V58.0096ZM173.581 64.771V59.3165H174.391V60.1403H174.448C174.547 59.8704 174.727 59.6514 174.988 59.4834C175.248 59.3153 175.542 59.2312 175.868 59.2312C175.93 59.2312 176.007 59.2324 176.099 59.2348C176.192 59.2371 176.261 59.2407 176.309 59.2454V60.0977C176.28 60.0906 176.215 60.0799 176.113 60.0657C176.014 60.0492 175.909 60.0409 175.797 60.0409C175.532 60.0409 175.296 60.0965 175.087 60.2078C174.881 60.3167 174.718 60.4682 174.597 60.6623C174.479 60.8541 174.42 61.0731 174.42 61.3193V64.771H173.581ZM178.907 64.8988C178.562 64.8988 178.248 64.8337 177.966 64.7035C177.685 64.5709 177.461 64.3804 177.295 64.1318C177.129 63.8808 177.047 63.5778 177.047 63.2227C177.047 62.9102 177.108 62.6569 177.231 62.4628C177.354 62.2663 177.519 62.1124 177.725 62.0011C177.931 61.8898 178.158 61.807 178.407 61.7525C178.658 61.6957 178.91 61.6507 179.163 61.6176C179.494 61.575 179.763 61.543 179.969 61.5217C180.177 61.498 180.329 61.459 180.424 61.4045C180.521 61.3501 180.569 61.2554 180.569 61.1204V61.092C180.569 60.7416 180.473 60.4694 180.282 60.2753C180.092 60.0811 179.805 59.9841 179.419 59.9841C179.019 59.9841 178.705 60.0717 178.478 60.2468C178.25 60.422 178.091 60.6091 177.998 60.8079L177.203 60.5238C177.345 60.1924 177.534 59.9343 177.771 59.7497C178.01 59.5627 178.27 59.4325 178.552 59.3591C178.836 59.2833 179.116 59.2454 179.39 59.2454C179.565 59.2454 179.767 59.2667 179.994 59.3093C180.224 59.3496 180.445 59.4336 180.658 59.5615C180.873 59.6893 181.052 59.8823 181.194 60.1403C181.336 60.3984 181.407 60.744 181.407 61.1772V64.771H180.569V64.0324H180.527C180.47 64.1507 180.375 64.2774 180.243 64.4123C180.11 64.5473 179.934 64.6621 179.713 64.7568C179.493 64.8515 179.225 64.8988 178.907 64.8988ZM179.035 64.146C179.367 64.146 179.646 64.0809 179.873 63.9507C180.103 63.8205 180.276 63.6524 180.392 63.4464C180.51 63.2405 180.569 63.0238 180.569 62.7966V62.0295C180.534 62.0721 180.456 62.1112 180.335 62.1467C180.217 62.1799 180.079 62.2094 179.923 62.2355C179.769 62.2592 179.619 62.2805 179.472 62.2994C179.328 62.316 179.21 62.3302 179.12 62.342C178.903 62.3704 178.699 62.4166 178.51 62.4805C178.323 62.5421 178.171 62.6356 178.055 62.7611C177.941 62.8842 177.885 63.0522 177.885 63.2653C177.885 63.5565 177.992 63.7767 178.208 63.9258C178.426 64.0726 178.701 64.146 179.035 64.146ZM185.153 64.8846C184.642 64.8846 184.201 64.7639 183.832 64.5224C183.463 64.2809 183.178 63.9483 182.98 63.5245C182.781 63.1008 182.681 62.6166 182.681 62.0721C182.681 61.5182 182.783 61.0293 182.987 60.6055C183.193 60.1794 183.479 59.8468 183.846 59.6076C184.215 59.3662 184.646 59.2454 185.139 59.2454C185.522 59.2454 185.868 59.3165 186.176 59.4585C186.483 59.6005 186.735 59.7994 186.932 60.0551C187.128 60.3108 187.25 60.6091 187.298 60.95H186.46C186.396 60.7014 186.254 60.4812 186.034 60.2895C185.816 60.0953 185.522 59.9983 185.153 59.9983C184.826 59.9983 184.54 60.0835 184.294 60.254C184.05 60.422 183.859 60.66 183.722 60.9677C183.587 61.2731 183.519 61.6318 183.519 62.0437C183.519 62.4651 183.586 62.8321 183.718 63.1446C183.853 63.4571 184.043 63.6997 184.286 63.8726C184.533 64.0454 184.821 64.1318 185.153 64.1318C185.371 64.1318 185.568 64.0939 185.746 64.0182C185.923 63.9424 186.074 63.8335 186.197 63.6915C186.32 63.5494 186.408 63.379 186.46 63.1801H187.298C187.25 63.5021 187.133 63.7921 186.946 64.0501C186.762 64.3058 186.517 64.5094 186.211 64.6609C185.908 64.8101 185.555 64.8846 185.153 64.8846ZM190.895 59.3165V60.0267H188.068V59.3165H190.895ZM188.892 58.0096H189.73V63.2085C189.73 63.4452 189.765 63.6228 189.833 63.7412C189.904 63.8572 189.994 63.9353 190.103 63.9755C190.214 64.0134 190.332 64.0324 190.455 64.0324C190.547 64.0324 190.623 64.0276 190.682 64.0182C190.741 64.0063 190.789 63.9968 190.824 63.9897L190.994 64.7426C190.938 64.7639 190.858 64.7852 190.757 64.8065C190.655 64.8302 190.526 64.842 190.369 64.842C190.133 64.842 189.901 64.7911 189.673 64.6893C189.449 64.5875 189.262 64.4325 189.112 64.2241C188.966 64.0158 188.892 63.753 188.892 63.4358V58.0096ZM195.922 60.538L195.169 60.7511C195.122 60.6256 195.052 60.5037 194.959 60.3853C194.869 60.2646 194.746 60.1652 194.59 60.087C194.434 60.0089 194.234 59.9699 193.99 59.9699C193.656 59.9699 193.378 60.0468 193.155 60.2007C192.935 60.3522 192.825 60.5451 192.825 60.7795C192.825 60.9879 192.901 61.1524 193.052 61.2731C193.204 61.3939 193.441 61.4945 193.763 61.575L194.572 61.7738C195.06 61.8922 195.423 62.0733 195.662 62.3172C195.902 62.5586 196.021 62.87 196.021 63.2511C196.021 63.5636 195.931 63.843 195.751 64.0892C195.574 64.3354 195.325 64.5295 195.006 64.6716C194.686 64.8136 194.314 64.8846 193.89 64.8846C193.334 64.8846 192.874 64.7639 192.509 64.5224C192.144 64.2809 191.914 63.9282 191.817 63.4642L192.612 63.2653C192.688 63.5589 192.831 63.779 193.042 63.9258C193.255 64.0726 193.533 64.146 193.876 64.146C194.267 64.146 194.577 64.0631 194.807 63.8974C195.039 63.7293 195.155 63.5281 195.155 63.2937C195.155 63.1043 195.088 62.9457 194.956 62.8179C194.823 62.6877 194.62 62.5906 194.345 62.5267L193.436 62.3136C192.936 62.1952 192.569 62.0118 192.335 61.7632C192.103 61.5122 191.987 61.1986 191.987 60.8221C191.987 60.5144 192.073 60.2421 192.246 60.0054C192.421 59.7686 192.659 59.5828 192.96 59.4478C193.263 59.3129 193.606 59.2454 193.99 59.2454C194.53 59.2454 194.953 59.3638 195.261 59.6005C195.571 59.8373 195.791 60.1498 195.922 60.538Z" fill="#4C4D5F"/>
<path fill-rule="evenodd" clip-rule="evenodd" d="M165.027 6.85364H183.76C183.921 6.85364 184.049 6.98415 184.049 7.14946V34.7303C184.049 38.8892 180.758 42.2563 176.694 42.2563H155.096C154.934 42.2563 154.807 42.1258 154.807 41.9605V7.14946" fill="#A9E2FF"/>
<path fill-rule="evenodd" clip-rule="evenodd" d="M164.135 15.189L167.74 12.6919L171.447 15.189V6.87122H164.135V15.189Z" fill="#00B487"/>
<path fill-rule="evenodd" clip-rule="evenodd" d="M177.034 31.6677H160.665C160.419 31.6677 160.215 31.4589 160.215 31.2066C160.215 30.9543 160.419 30.7455 160.665 30.7455H177.034C177.28 30.7455 177.484 30.9543 177.484 31.2066C177.484 31.4676 177.28 31.6677 177.034 31.6677Z" fill="#00B487"/>
<path fill-rule="evenodd" clip-rule="evenodd" d="M173.862 35.3217H160.657C160.41 35.3217 160.206 35.1129 160.206 34.8605C160.206 34.6082 160.41 34.3994 160.657 34.3994H173.862C174.109 34.3994 174.313 34.6082 174.313 34.8605C174.313 35.1129 174.117 35.3217 173.862 35.3217Z" fill="#00B487"/>
<path fill-rule="evenodd" clip-rule="evenodd" d="M170.733 1.13708H189.465C189.627 1.13708 189.754 1.26759 189.754 1.4329V29.0138C189.754 33.1726 186.464 36.5398 182.399 36.5398H160.801C160.64 36.5398 160.512 36.4093 160.512 36.2439V1.4329" fill="white"/>
<path fill-rule="evenodd" clip-rule="evenodd" d="M182.391 37.0009H160.793C160.385 37.0009 160.053 36.6616 160.053 36.244V1.43294C160.053 1.18063 160.257 0.971812 160.504 0.971812C160.75 0.971812 160.955 1.18063 160.955 1.43294V36.0787H182.391C186.2 36.0787 189.295 32.9117 189.295 29.0138V1.60695H170.725C170.478 1.60695 170.274 1.39814 170.274 1.14582C170.274 0.893506 170.478 0.684692 170.725 0.684692H189.457C189.865 0.684692 190.197 1.02402 190.197 1.44164V29.0225C190.205 33.4163 186.702 37.0009 182.391 37.0009Z" fill="#00B487"/>
<path fill-rule="evenodd" clip-rule="evenodd" d="M170.248 9.39414L173.862 6.89707L177.561 9.39414V1.08508H170.248V9.39414Z" fill="#00B487"/>
<path fill-rule="evenodd" clip-rule="evenodd" d="M182.739 25.9601H166.371C166.124 25.9601 165.92 25.7513 165.92 25.499C165.92 25.2467 166.124 25.0378 166.371 25.0378H182.739C182.986 25.0378 183.19 25.2467 183.19 25.499C183.19 25.7513 182.994 25.9601 182.739 25.9601Z" fill="#00B487"/>
<path fill-rule="evenodd" clip-rule="evenodd" d="M179.568 29.6142H166.362C166.116 29.6142 165.912 29.4053 165.912 29.153C165.912 28.9007 166.116 28.6919 166.362 28.6919H179.568C179.814 28.6919 180.018 28.9007 180.018 29.153C180.027 29.4053 179.823 29.6142 179.568 29.6142Z" fill="#00B487"/>
<path fill-rule="evenodd" clip-rule="evenodd" d="M43.2316 21.7006C41.6405 22.5541 41.7031 23.8113 43.3746 24.4996L48.3176 26.5094C49.9891 27.1885 52.5187 26.8214 53.94 25.6835L75.4291 8.2838C76.8405 7.13667 76.9933 7.31103 75.7679 8.66006L58.7757 27.3262C57.5422 28.6752 57.9087 30.3179 59.5802 30.9878L60.1612 31.2172C61.8416 31.878 64.5768 32.9976 66.2394 33.695L71.7277 35.9893C73.3902 36.6867 74.7587 37.2649 74.7587 37.2741C74.7587 37.2832 74.7668 37.32 74.7757 37.32C74.7846 37.32 75.1779 35.87 75.6526 34.0896L84.0181 2.52062C84.4919 0.740276 83.5712 -0.0214188 81.9802 0.841223L43.2316 21.7006Z" fill="white"/>
<path fill-rule="evenodd" clip-rule="evenodd" d="M76.5813 7.02658C76.7154 7.02658 76.8405 7.08164 76.9478 7.20094C77.3232 7.62309 76.9031 8.12782 76.1254 8.99047L59.1333 27.6566C58.6506 28.1888 58.4459 28.7762 58.5612 29.2992C58.6774 29.8315 59.1065 30.2628 59.759 30.529L60.34 30.7584C62.0026 31.4191 64.7377 32.5387 66.4182 33.2362L71.9065 35.5305C73.2294 36.0811 74.007 36.4115 74.4808 36.6133C74.6327 36.0719 74.883 35.1358 75.1958 33.9428L83.5623 2.37382C83.7321 1.74061 83.6964 1.23587 83.4819 1.05233C83.2584 0.868788 82.7757 0.951381 82.2126 1.25422L43.464 22.1136C42.883 22.4256 42.5523 22.8019 42.5611 23.1139C42.5791 23.4351 42.9456 23.7747 43.5624 24.0225L48.5054 26.0322C50.016 26.6471 52.3749 26.2984 53.654 25.2705L75.1422 7.87087C75.7858 7.37531 76.2327 7.02658 76.5813 7.02658ZM74.7847 37.8064C74.731 37.8064 74.6774 37.7972 74.6327 37.7788C74.5701 37.7605 74.5165 37.7146 74.4629 37.6687C74.1321 37.5219 73.0059 37.0447 71.5578 36.4482L66.0696 34.1539C64.3891 33.4564 61.6539 32.3368 60.0003 31.6761L59.4193 31.4467C58.4629 31.0612 57.8283 30.3821 57.6316 29.5287C57.4439 28.6752 57.7299 27.7759 58.4361 26.9958L73.3902 10.5597L54.2439 26.0598C52.7065 27.2987 49.9713 27.7024 48.1568 26.9591L43.2048 24.9493C41.864 24.3987 41.6316 23.6095 41.6048 23.1873C41.5869 22.7652 41.7389 21.9484 43.0082 21.2693L81.7567 0.409936C83.0349 -0.278342 83.75 0.0520314 84.0718 0.308988C84.3846 0.565946 84.8584 1.21752 84.474 2.64913L76.1076 34.2181C75.2057 37.6412 75.2057 37.6412 74.9992 37.7513C74.9456 37.788 74.8651 37.8064 74.7847 37.8064Z" fill="#00B487"/>
<path fill-rule="evenodd" clip-rule="evenodd" d="M56.8184 42.3673C56.7201 42.6702 60.2061 37.1915 60.2061 37.1915C61.1893 35.6497 60.6351 33.8051 58.9627 33.1077L55.1639 31.5109C53.5022 30.8134 52.7058 31.6302 53.3949 33.3371C53.3949 33.3371 56.9158 42.0553 56.8184 42.3673Z" fill="#A9E2FF"/>
<path d="M40.4627 64.7709V57.4981H42.9201C43.4906 57.4981 43.957 57.6011 44.3192 57.8071C44.6838 58.0107 44.9537 58.2865 45.1289 58.6345C45.3041 58.9825 45.3917 59.3708 45.3917 59.7993C45.3917 60.2278 45.3041 60.6172 45.1289 60.9676C44.9561 61.318 44.6886 61.5973 44.3263 61.8057C43.9641 62.0116 43.5001 62.1146 42.9343 62.1146H41.1729V61.3334H42.9059C43.2965 61.3334 43.6102 61.2659 43.8469 61.131C44.0837 60.996 44.2553 60.8137 44.3619 60.5841C44.4708 60.3521 44.5252 60.0905 44.5252 59.7993C44.5252 59.5081 44.4708 59.2477 44.3619 59.018C44.2553 58.7884 44.0825 58.6085 43.8434 58.4783C43.6043 58.3457 43.2871 58.2794 42.8917 58.2794H41.3434V64.7709H40.4627ZM46.6967 64.7709V59.3163H47.5064V60.1402H47.5632C47.6626 59.8703 47.8426 59.6513 48.103 59.4832C48.3634 59.3151 48.657 59.2311 48.9837 59.2311C49.0452 59.2311 49.1222 59.2323 49.2145 59.2347C49.3068 59.237 49.3767 59.2406 49.424 59.2453V60.0976C49.3956 60.0905 49.3305 60.0798 49.2287 60.0656C49.1293 60.049 49.0239 60.0408 48.9126 60.0408C48.6475 60.0408 48.4107 60.0964 48.2024 60.2077C47.9964 60.3166 47.8331 60.4681 47.7124 60.6622C47.594 60.854 47.5348 61.073 47.5348 61.3192V64.7709H46.6967ZM52.4673 64.8845C51.9749 64.8845 51.5429 64.7673 51.1712 64.5329C50.8018 64.2986 50.513 63.9707 50.3047 63.5493C50.0987 63.1279 49.9957 62.6355 49.9957 62.072C49.9957 61.5038 50.0987 61.0079 50.3047 60.5841C50.513 60.1603 50.8018 59.8312 51.1712 59.5969C51.5429 59.3625 51.9749 59.2453 52.4673 59.2453C52.9598 59.2453 53.3906 59.3625 53.7599 59.5969C54.1316 59.8312 54.4205 60.1603 54.6264 60.5841C54.8348 61.0079 54.9389 61.5038 54.9389 62.072C54.9389 62.6355 54.8348 63.1279 54.6264 63.5493C54.4205 63.9707 54.1316 64.2986 53.7599 64.5329C53.3906 64.7673 52.9598 64.8845 52.4673 64.8845ZM52.4673 64.1317C52.8414 64.1317 53.1491 64.0358 53.3906 63.844C53.6321 63.6523 53.8108 63.4001 53.9268 63.0876C54.0429 62.7751 54.1009 62.4366 54.1009 62.072C54.1009 61.7074 54.0429 61.3677 53.9268 61.0528C53.8108 60.738 53.6321 60.4835 53.3906 60.2893C53.1491 60.0952 52.8414 59.9981 52.4673 59.9981C52.0933 59.9981 51.7855 60.0952 51.544 60.2893C51.3026 60.4835 51.1238 60.738 51.0078 61.0528C50.8918 61.3677 50.8338 61.7074 50.8338 62.072C50.8338 62.4366 50.8918 62.7751 51.0078 63.0876C51.1238 63.4001 51.3026 63.6523 51.544 63.844C51.7855 64.0358 52.0933 64.1317 52.4673 64.1317ZM56.2182 66.8163V59.3163H57.0279V60.1828H57.1273C57.1889 60.0881 57.2741 59.9674 57.383 59.8206C57.4943 59.6714 57.6529 59.5389 57.8588 59.4229C58.0672 59.3045 58.3489 59.2453 58.704 59.2453C59.1633 59.2453 59.5681 59.3601 59.9185 59.5898C60.2689 59.8194 60.5423 60.1449 60.7388 60.5663C60.9353 60.9877 61.0336 61.4849 61.0336 62.0578C61.0336 62.6355 60.9353 63.1362 60.7388 63.5599C60.5423 63.9813 60.2701 64.308 59.9221 64.5401C59.574 64.7697 59.1728 64.8845 58.7182 64.8845C58.3678 64.8845 58.0873 64.8265 57.8766 64.7105C57.6659 64.5921 57.5037 64.4584 57.3901 64.3092C57.2765 64.1577 57.1889 64.0322 57.1273 63.9328H57.0563V66.8163H56.2182ZM57.0421 62.0436C57.0421 62.4555 57.1025 62.8189 57.2232 63.1338C57.3439 63.4463 57.5203 63.6913 57.7523 63.8689C57.9843 64.0441 58.2684 64.1317 58.6046 64.1317C58.955 64.1317 59.2473 64.0393 59.4817 63.8547C59.7185 63.6677 59.896 63.4167 60.0144 63.1018C60.1351 62.7846 60.1955 62.4319 60.1955 62.0436C60.1955 61.6601 60.1363 61.3144 60.0179 61.0067C59.9019 60.6965 59.7256 60.4515 59.4888 60.2716C59.2544 60.0893 58.9597 59.9981 58.6046 59.9981C58.2637 59.9981 57.9772 60.0846 57.7452 60.2574C57.5132 60.4278 57.338 60.6669 57.2196 60.9747C57.1013 61.2801 57.0421 61.6364 57.0421 62.0436ZM64.5279 64.8845C64.0355 64.8845 63.6034 64.7673 63.2317 64.5329C62.8624 64.2986 62.5736 63.9707 62.3652 63.5493C62.1593 63.1279 62.0563 62.6355 62.0563 62.072C62.0563 61.5038 62.1593 61.0079 62.3652 60.5841C62.5736 60.1603 62.8624 59.8312 63.2317 59.5969C63.6034 59.3625 64.0355 59.2453 64.5279 59.2453C65.0203 59.2453 65.4512 59.3625 65.8205 59.5969C66.1922 59.8312 66.481 60.1603 66.687 60.5841C66.8953 61.0079 66.9995 61.5038 66.9995 62.072C66.9995 62.6355 66.8953 63.1279 66.687 63.5493C66.481 63.9707 66.1922 64.2986 65.8205 64.5329C65.4512 64.7673 65.0203 64.8845 64.5279 64.8845ZM64.5279 64.1317C64.9019 64.1317 65.2097 64.0358 65.4512 63.844C65.6926 63.6523 65.8714 63.4001 65.9874 63.0876C66.1034 62.7751 66.1614 62.4366 66.1614 62.072C66.1614 61.7074 66.1034 61.3677 65.9874 61.0528C65.8714 60.738 65.6926 60.4835 65.4512 60.2893C65.2097 60.0952 64.9019 59.9981 64.5279 59.9981C64.1538 59.9981 63.8461 60.0952 63.6046 60.2893C63.3631 60.4835 63.1844 60.738 63.0684 61.0528C62.9524 61.3677 62.8944 61.7074 62.8944 62.072C62.8944 62.4366 62.9524 62.7751 63.0684 63.0876C63.1844 63.4001 63.3631 63.6523 63.6046 63.844C63.8461 64.0358 64.1538 64.1317 64.5279 64.1317ZM72.1424 60.5379L71.3896 60.751C71.3422 60.6255 71.2724 60.5036 71.18 60.3852C71.0901 60.2645 70.967 60.165 70.8107 60.0869C70.6545 60.0088 70.4544 59.9697 70.2106 59.9697C69.8768 59.9697 69.5986 60.0467 69.3761 60.2006C69.1559 60.3521 69.0458 60.545 69.0458 60.7794C69.0458 60.9877 69.1216 61.1523 69.2731 61.273C69.4246 61.3937 69.6613 61.4944 69.9833 61.5749L70.793 61.7737C71.2807 61.8921 71.6441 62.0732 71.8832 62.317C72.1223 62.5585 72.2418 62.8698 72.2418 63.251C72.2418 63.5635 72.1519 63.8428 71.9719 64.0891C71.7944 64.3353 71.5458 64.5294 71.2262 64.6714C70.9066 64.8135 70.5349 64.8845 70.1112 64.8845C69.5548 64.8845 69.0943 64.7638 68.7298 64.5223C68.3652 64.2808 68.1344 63.9281 68.0373 63.4641L68.8327 63.2652C68.9085 63.5588 69.0517 63.7789 69.2624 63.9257C69.4755 64.0725 69.7537 64.1459 70.0969 64.1459C70.4876 64.1459 70.7977 64.063 71.0273 63.8973C71.2594 63.7292 71.3754 63.528 71.3754 63.2936C71.3754 63.1042 71.3091 62.9456 71.1765 62.8177C71.0439 62.6875 70.8403 62.5905 70.5657 62.5266L69.6566 62.3135C69.1571 62.1951 68.7901 62.0116 68.5558 61.7631C68.3237 61.5121 68.2077 61.1984 68.2077 60.822C68.2077 60.5142 68.2942 60.242 68.467 60.0052C68.6422 59.7685 68.8801 59.5827 69.1808 59.4477C69.4838 59.3128 69.8271 59.2453 70.2106 59.2453C70.7504 59.2453 71.1741 59.3637 71.4819 59.6004C71.792 59.8372 72.0122 60.1497 72.1424 60.5379ZM75.1085 64.8987C74.7628 64.8987 74.4492 64.8336 74.1674 64.7034C73.8857 64.5708 73.662 64.3802 73.4963 64.1317C73.3306 63.8807 73.2477 63.5777 73.2477 63.2226C73.2477 62.9101 73.3092 62.6568 73.4324 62.4626C73.5555 62.2661 73.72 62.1123 73.926 62.001C74.1319 61.8897 74.3592 61.8069 74.6078 61.7524C74.8587 61.6956 75.1109 61.6506 75.3642 61.6175C75.6956 61.5749 75.9643 61.5429 76.1703 61.5216C76.3786 61.4979 76.5301 61.4588 76.6248 61.4044C76.7219 61.3499 76.7704 61.2552 76.7704 61.1203V61.0919C76.7704 60.7415 76.6745 60.4693 76.4828 60.2751C76.2934 60.081 76.0057 59.9839 75.6199 59.9839C75.2198 59.9839 74.9061 60.0715 74.6788 60.2467C74.4515 60.4219 74.2917 60.6089 74.1994 60.8078L73.4039 60.5237C73.546 60.1923 73.7354 59.9342 73.9721 59.7496C74.2112 59.5625 74.4717 59.4323 74.7534 59.3589C75.0375 59.2832 75.3168 59.2453 75.5914 59.2453C75.7666 59.2453 75.9679 59.2666 76.1951 59.3092C76.4248 59.3495 76.6461 59.4335 76.8592 59.5614C77.0746 59.6892 77.2534 59.8821 77.3954 60.1402C77.5375 60.3982 77.6085 60.7439 77.6085 61.1771V64.7709H76.7704V64.0322H76.7278C76.671 64.1506 76.5763 64.2773 76.4437 64.4122C76.3111 64.5472 76.1348 64.662 75.9146 64.7567C75.6944 64.8514 75.4257 64.8987 75.1085 64.8987ZM75.2363 64.1459C75.5678 64.1459 75.8471 64.0808 76.0744 63.9506C76.304 63.8204 76.4769 63.6523 76.5929 63.4463C76.7112 63.2403 76.7704 63.0237 76.7704 62.7964V62.0294C76.7349 62.072 76.6568 62.1111 76.536 62.1466C76.4177 62.1797 76.2804 62.2093 76.1241 62.2354C75.9702 62.259 75.8199 62.2803 75.6731 62.2993C75.5287 62.3159 75.4115 62.3301 75.3216 62.3419C75.1038 62.3703 74.9002 62.4165 74.7108 62.4804C74.5237 62.5419 74.3722 62.6355 74.2562 62.7609C74.1426 62.884 74.0858 63.0521 74.0858 63.2652C74.0858 63.5564 74.1935 63.7766 74.4089 63.9257C74.6267 64.0725 74.9025 64.1459 75.2363 64.1459ZM79.9762 57.4981V64.7709H79.1381V57.4981H79.9762ZM85.3748 60.5379L84.622 60.751C84.5746 60.6255 84.5048 60.5036 84.4125 60.3852C84.3225 60.2645 84.1994 60.165 84.0431 60.0869C83.8869 60.0088 83.6868 59.9697 83.443 59.9697C83.1092 59.9697 82.831 60.0467 82.6085 60.2006C82.3883 60.3521 82.2782 60.545 82.2782 60.7794C82.2782 60.9877 82.354 61.1523 82.5055 61.273C82.657 61.3937 82.8938 61.4944 83.2157 61.5749L84.0254 61.7737C84.5131 61.8921 84.8765 62.0732 85.1156 62.317C85.3547 62.5585 85.4743 62.8698 85.4743 63.251C85.4743 63.5635 85.3843 63.8428 85.2044 64.0891C85.0268 64.3353 84.7782 64.5294 84.4586 64.6714C84.139 64.8135 83.7673 64.8845 83.3436 64.8845C82.7872 64.8845 82.3268 64.7638 81.9622 64.5223C81.5976 64.2808 81.3668 63.9281 81.2697 63.4641L82.0652 63.2652C82.1409 63.5588 82.2842 63.7789 82.4949 63.9257C82.7079 64.0725 82.9861 64.1459 83.3294 64.1459C83.72 64.1459 84.0301 64.063 84.2598 63.8973C84.4918 63.7292 84.6078 63.528 84.6078 63.2936C84.6078 63.1042 84.5415 62.9456 84.4089 62.8177C84.2763 62.6875 84.0727 62.5905 83.7981 62.5266L82.889 62.3135C82.3895 62.1951 82.0225 62.0116 81.7882 61.7631C81.5562 61.5121 81.4402 61.1984 81.4402 60.822C81.4402 60.5142 81.5266 60.242 81.6994 60.0052C81.8746 59.7685 82.1125 59.5827 82.4132 59.4477C82.7162 59.3128 83.0595 59.2453 83.443 59.2453C83.9828 59.2453 84.4065 59.3637 84.7143 59.6004C85.0244 59.8372 85.2446 60.1497 85.3748 60.5379Z" fill="#4C4D5F"/>
</g>
<defs>
<clipPath id="clip0_9_128">
<rect width="345" height="254" fill="white" transform="translate(0.5)"/>
</clipPath>
</defs>
</svg>
