<svg width="344" height="270" viewBox="0 0 344 270" fill="none" xmlns="http://www.w3.org/2000/svg">
<g clip-path="url(#clip0_9_11)">
<path fill-rule="evenodd" clip-rule="evenodd" d="M322.34 114.231H335.485C335.697 114.231 335.868 114.388 335.868 114.582V147.52C335.868 152.486 331.472 156.511 326.049 156.511H297.215C297.004 156.511 296.832 156.354 296.832 156.161V126.55" fill="#BAE1FF"/>
<path fill-rule="evenodd" clip-rule="evenodd" d="M309.031 124.615L313.844 121.723L318.79 124.615V114.972H309.031V124.615Z" fill="#00B388"/>
<path fill-rule="evenodd" clip-rule="evenodd" d="M327.118 143.901H304.77C304.429 143.901 304.151 143.569 304.151 143.159C304.151 142.749 304.429 142.417 304.77 142.417H327.118C327.459 142.417 327.735 142.749 327.735 143.159C327.735 143.569 327.459 143.901 327.118 143.901Z" fill="#00B388"/>
<path fill-rule="evenodd" clip-rule="evenodd" d="M322.23 148.352H303.964C303.618 148.352 303.338 148.02 303.338 147.61C303.338 147.2 303.618 146.868 303.964 146.868H322.23C322.576 146.868 322.856 147.2 322.856 147.61C322.856 148.02 322.576 148.352 322.23 148.352Z" fill="#00B388"/>
<path fill-rule="evenodd" clip-rule="evenodd" d="M263.357 217.059C263.218 214.996 261.767 214.49 260.128 215.928L255.288 220.19C253.655 221.63 252.757 224.447 253.303 226.455L261.749 256.933C262.303 258.937 262.033 259.018 261.15 257.113L248.931 230.767C248.053 228.861 246.004 228.486 244.381 229.937L243.817 230.437C242.196 231.888 239.51 234.24 237.86 235.665L232.416 240.361C230.766 241.788 229.407 242.951 229.394 242.95C229.381 242.947 229.341 242.94 229.333 242.948C229.325 242.955 230.762 244.034 232.525 245.344L263.778 268.568C265.541 269.879 266.871 269.267 266.732 267.205L263.357 217.059Z" fill="white"/>
<mask id="mask0_9_11" style="mask-type:alpha" maskUnits="userSpaceOnUse" x="228" y="214" width="40" height="56">
<path d="M228.766 214.549H267.415V270H228.766V214.549Z" fill="white"/>
</mask>
<g mask="url(#mask0_9_11)">
<path fill-rule="evenodd" clip-rule="evenodd" d="M262.63 258.86C262.558 259.004 262.434 259.103 262.244 259.161C261.569 259.364 261.218 258.688 260.656 257.472L248.427 231.025C248.081 230.271 247.527 229.79 246.865 229.669C246.206 229.55 245.493 229.798 244.856 230.369L244.29 230.873C242.684 232.315 239.994 234.676 238.323 236.126L232.873 240.841C231.563 241.977 230.788 242.649 230.309 243.044C230.846 243.451 231.768 244.142 232.949 245.022L264.228 268.336C264.856 268.803 265.444 269.004 265.762 268.857C266.08 268.71 266.247 268.16 266.198 267.425L262.819 217.086V217.085C262.769 216.334 262.52 215.808 262.153 215.679C261.785 215.549 261.209 215.786 260.612 216.31L255.769 220.588C254.288 221.896 253.454 224.537 253.947 226.353L262.399 256.946C262.651 257.861 262.809 258.497 262.63 258.86ZM228.819 242.816C228.846 242.76 228.883 242.71 228.929 242.666C228.986 242.611 229.061 242.569 229.145 242.539C229.482 242.256 230.604 241.291 232.038 240.048L237.488 235.333C239.155 233.888 241.838 231.532 243.442 230.092L244.007 229.588C244.939 228.753 246.038 228.401 247.103 228.594C248.17 228.789 249.037 229.501 249.542 230.602L260.306 253.882L252.774 226.618C252.181 224.432 253.147 221.375 254.926 219.802L259.769 215.525C261.083 214.369 262.101 214.485 262.59 214.657C263.078 214.829 263.915 215.364 264.025 217.019L267.404 267.358C267.516 269.019 266.768 269.621 266.311 269.832C265.855 270.045 264.878 270.24 263.46 269.183L232.182 245.87C228.79 243.341 228.79 243.341 228.768 243.083C228.76 242.991 228.778 242.898 228.819 242.816Z" fill="#00B388"/>
</g>
<path fill-rule="evenodd" clip-rule="evenodd" d="M232.6 221.793C232.318 221.552 236.603 227.711 236.603 227.711C237.809 229.448 240.13 229.708 241.752 228.283L245.458 225.038C247.082 223.615 246.581 222.404 244.337 222.343C244.336 222.342 232.889 222.039 232.6 221.793Z" fill="#BAE1FF"/>
<path fill-rule="evenodd" clip-rule="evenodd" d="M264.639 76.9326C263.464 77.0725 262.265 77.1429 261.049 77.1429C245.779 77.1429 233.4 65.8523 233.4 51.9231C233.4 37.995 245.779 26.7034 261.049 26.7034C276.32 26.7034 288.7 37.995 288.7 51.9231C288.7 54.8289 288.16 57.6197 287.169 60.2179" fill="white"/>
<path fill-rule="evenodd" clip-rule="evenodd" d="M260.863 77.8846C260.524 77.8846 260.236 77.6062 260.236 77.2622C260.236 76.9182 260.496 76.6397 260.834 76.6397C262.055 76.6397 263.253 76.5614 264.424 76.4069C264.762 76.3601 265.068 76.6023 265.111 76.944C265.154 77.2856 264.918 77.598 264.582 77.6424C263.359 77.8039 262.107 77.8846 260.863 77.8846Z" fill="#00B388"/>
<path fill-rule="evenodd" clip-rule="evenodd" d="M249.414 29.9412C249.19 29.9412 248.976 29.8279 248.872 29.6332C248.726 29.3613 248.85 29.0327 249.15 28.8999C251.502 27.8586 254.001 27.1222 256.577 26.7123C256.911 26.6577 257.218 26.8596 257.275 27.1572C257.332 27.4549 257.114 27.7391 256.785 27.7917C254.32 28.1841 251.928 28.8896 249.677 29.8855C249.592 29.9236 249.502 29.9412 249.414 29.9412ZM276.274 31.3439C276.163 31.3439 276.05 31.3161 275.95 31.2584C273.836 30.0308 271.549 29.0812 269.153 28.4343C268.832 28.3478 268.651 28.043 268.745 27.7525C268.84 27.4621 269.175 27.2963 269.495 27.3838C271.999 28.0595 274.39 29.0523 276.598 30.3346C276.878 30.4973 276.961 30.8362 276.781 31.0916C276.667 31.2554 276.472 31.3439 276.274 31.3439ZM235.827 43.2676C235.754 43.2676 235.679 43.2552 235.606 43.2284C235.296 43.1172 235.146 42.7989 235.268 42.5167C236.229 40.3085 237.527 38.2311 239.126 36.3412C239.328 36.1012 239.707 36.0559 239.97 36.2413C240.235 36.4257 240.284 36.7707 240.081 37.0096C238.55 38.8192 237.308 40.8081 236.389 42.9215C236.295 43.1368 236.067 43.2676 235.827 43.2676ZM288.096 45.9938C287.83 45.9938 287.587 45.8331 287.516 45.588C286.869 43.3912 285.885 41.287 284.593 39.3311C284.422 39.0726 284.515 38.7358 284.799 38.5793C285.086 38.4227 285.455 38.5072 285.627 38.7667C286.977 40.8091 288.004 43.009 288.68 45.3048C288.764 45.5963 288.574 45.897 288.254 45.9753C288.201 45.9887 288.148 45.9938 288.096 45.9938ZM235.706 61.4419C235.464 61.4419 235.235 61.308 235.143 61.0886C234.211 58.8691 233.626 56.5404 233.402 54.1643C233.373 53.8626 233.619 53.5979 233.951 53.5721C234.276 53.5433 234.575 53.7699 234.603 54.0716C234.816 56.3447 235.378 58.5735 236.27 60.6973C236.388 60.9805 236.233 61.2977 235.921 61.4048C235.85 61.4295 235.779 61.4419 235.706 61.4419ZM249.112 74.9177C249.021 74.9177 248.929 74.9001 248.842 74.86C246.507 73.794 244.346 72.4355 242.416 70.8236C242.172 70.6187 242.155 70.2726 242.38 70.0491C242.606 69.8267 242.987 69.8122 243.231 70.0162C245.078 71.56 247.148 72.8598 249.383 73.8815C249.68 74.0154 249.8 74.346 249.651 74.6159C249.545 74.8085 249.332 74.9177 249.112 74.9177Z" fill="#00B388"/>
<path fill-rule="evenodd" clip-rule="evenodd" d="M286.939 60.0824C286.865 60.0824 286.79 60.0727 286.716 60.0501C286.361 59.9469 286.175 59.6202 286.298 59.3224C286.731 58.2722 287.088 57.1843 287.356 56.089C287.431 55.7794 287.785 55.5794 288.157 55.6439C288.525 55.7074 288.761 56.0105 288.686 56.3201C288.405 57.4638 288.034 58.6011 287.579 59.6986C287.482 59.934 287.22 60.0824 286.939 60.0824Z" fill="#00B388"/>
<path fill-rule="evenodd" clip-rule="evenodd" d="M288.7 71.9507C288.7 76.8665 284.33 80.8518 278.941 80.8518C273.551 80.8518 269.182 76.8665 269.182 71.9507C269.182 67.0348 273.551 63.0496 278.941 63.0496C284.33 63.0496 288.7 67.0348 288.7 71.9507Z" fill="#BAE1FF"/>
<path fill-rule="evenodd" clip-rule="evenodd" d="M261.05 37.0879V52.0148L267.556 58.5989" fill="white"/>
<path fill-rule="evenodd" clip-rule="evenodd" d="M267.784 59.3407C267.634 59.3407 267.485 59.2857 267.37 59.1757L260.407 52.4809C260.298 52.3763 260.236 52.2324 260.236 52.0833V36.9088C260.236 36.5979 260.498 36.3462 260.821 36.3462C261.145 36.3462 261.406 36.5979 261.406 36.9088V51.8507L268.197 58.3805C268.426 58.5994 268.426 58.9558 268.197 59.1757C268.083 59.2857 267.933 59.3407 267.784 59.3407Z" fill="#00B388"/>
<path fill-rule="evenodd" clip-rule="evenodd" d="M264.303 51.1819C264.303 52.8207 262.846 54.1484 261.05 54.1484C259.252 54.1484 257.797 52.8207 257.797 51.1819C257.797 49.5431 259.252 48.2144 261.05 48.2144C262.846 48.2144 264.303 49.5431 264.303 51.1819Z" fill="#00B388"/>
<path fill-rule="evenodd" clip-rule="evenodd" d="M278.819 74.9176C278.666 74.9176 278.52 74.8611 278.411 74.7602L275.857 72.3821C275.632 72.1721 275.632 71.8319 275.857 71.622C276.083 71.413 276.447 71.412 276.673 71.622L278.819 73.6206L282.835 69.8828C283.061 69.6729 283.427 69.6729 283.651 69.8828C283.877 70.0928 283.877 70.4329 283.651 70.6429L279.227 74.7602C279.119 74.8611 278.973 74.9176 278.819 74.9176Z" fill="#00B388"/>
<path fill-rule="evenodd" clip-rule="evenodd" d="M235.293 129.12L218.054 112.469C217.907 112.327 217.914 112.104 218.068 111.971L244.23 89.2579C248.175 85.8332 254.403 85.9853 258.142 89.5974L278.022 108.798C278.168 108.94 278.162 109.162 278.009 109.296L244.983 137.967" fill="white"/>
<path fill-rule="evenodd" clip-rule="evenodd" d="M258.106 89.7447L277.859 108.813C278.232 109.173 278.215 109.743 277.82 110.085L245.009 138.557C244.768 138.767 244.387 138.758 244.159 138.536C243.931 138.316 243.941 137.968 244.182 137.759L276.834 109.424L257.234 90.5018C253.752 87.1414 247.934 86.9997 244.262 90.1864L218.428 112.603L235.405 128.993C235.633 129.213 235.624 129.562 235.382 129.771C235.141 129.98 234.76 129.971 234.532 129.75L217.404 113.213C217.031 112.854 217.048 112.285 217.441 111.943L243.434 89.3869C247.587 85.7833 254.169 85.9436 258.106 89.7447Z" fill="#00B388"/>
<path fill-rule="evenodd" clip-rule="evenodd" d="M230.96 98.6893L250.653 81.5935L280.567 110.486L260.874 127.583L261.223 103.127C261.255 100.909 259.319 99.0854 256.896 99.0521L230.96 98.6893Z" fill="#BAE1FF"/>
<path fill-rule="evenodd" clip-rule="evenodd" d="M260.52 100.464C261.38 101.309 261.896 102.46 261.861 103.712L261.235 125.552C261.226 125.861 260.949 126.107 260.615 126.099C260.283 126.09 260.02 125.832 260.029 125.523L260.655 103.683C260.709 101.795 259.102 100.218 257.072 100.168L241.306 99.7765C240.973 99.768 240.71 99.5106 240.719 99.2004C240.728 98.8903 241.006 98.6455 241.339 98.6538L257.105 99.0443C258.452 99.0791 259.659 99.6182 260.52 100.464Z" fill="#00B388"/>
<path fill-rule="evenodd" clip-rule="evenodd" d="M235.885 107.974C240.122 104.31 246.814 104.474 250.831 108.338C254.848 112.203 254.669 118.305 250.432 121.969C246.195 125.635 239.504 125.472 235.486 121.606C231.469 117.742 231.647 111.638 235.885 107.974Z" fill="#00B388"/>
<path fill-rule="evenodd" clip-rule="evenodd" d="M242.163 118.19C241.624 118.647 240.837 118.651 240.008 118.01L242.189 116.161C242.774 117.273 242.685 117.749 242.163 118.19ZM242.979 113.84C242.376 112.743 242.451 112.223 242.998 111.758C243.589 111.257 244.392 111.315 245.22 111.94L242.979 113.84ZM248.832 114.896C248.654 113.778 248.177 112.737 247.399 111.832L248.164 111.184C248.46 110.934 248.463 110.518 248.183 110.254C247.903 109.99 247.447 109.979 247.151 110.229L246.413 110.855C244.783 109.582 242.883 109.392 241.527 110.542C240.206 111.661 240.217 113.01 241.519 115.078L239.156 117.081C238.856 116.627 238.651 116.092 238.492 115.491C238.446 115.323 238.374 115.177 238.259 115.069C237.896 114.727 237.312 114.705 236.931 115.029C236.634 115.279 236.618 115.589 236.685 115.856C236.864 116.663 237.215 117.413 237.82 118.139L237.551 118.369C237.256 118.619 237.244 119.027 237.523 119.29C237.803 119.556 238.269 119.573 238.564 119.323L238.824 119.103C240.404 120.374 242.304 120.534 243.617 119.421C245.007 118.243 244.893 116.923 243.658 114.916L246.081 112.861C246.603 113.57 246.852 114.319 246.985 115.193C247.006 115.367 247.094 115.543 247.234 115.676C247.597 116.018 248.172 116.031 248.555 115.707C248.816 115.471 248.891 115.2 248.832 114.896Z" fill="white"/>
<path fill-rule="evenodd" clip-rule="evenodd" d="M167.828 175.876L181.603 180.317C187.11 182.092 190.007 187.627 188.07 192.678L176.391 223.145L170.168 226.236L167.424 220.254L160.851 223.233L157.844 217.166L151.359 220.173L148.528 214.162L142.042 217.17L139.877 211.373L154.935 172.088" fill="#BAE1FF"/>
<path fill-rule="evenodd" clip-rule="evenodd" d="M158.883 180.326L172.658 184.767C178.166 186.542 181.061 192.077 179.124 197.128L167.446 227.596L161.223 230.687L158.479 224.705L151.906 227.684L148.898 221.616L142.414 224.624L139.582 218.613L133.097 221.619L130.931 215.824L145.989 176.539" fill="white"/>
<path fill-rule="evenodd" clip-rule="evenodd" d="M161.074 231.397C160.913 231.345 160.783 231.234 160.717 231.09L158.2 225.609L152.146 228.347C151.998 228.414 151.804 228.41 151.675 228.372C151.52 228.322 151.395 228.217 151.328 228.08L148.555 222.496L142.576 225.264C142.43 225.331 142.258 225.341 142.103 225.291C142.102 225.291 142.099 225.289 142.097 225.289C141.942 225.236 141.814 225.128 141.749 224.989L139.148 219.476L133.179 222.239C133.024 222.311 132.837 222.321 132.679 222.257C132.517 222.198 132.391 222.075 132.335 221.924L130.151 216.088C130.107 215.97 130.108 215.843 130.152 215.725L145.341 176.167C145.451 175.879 145.796 175.727 146.111 175.828C146.425 175.93 146.591 176.246 146.481 176.533L131.362 215.912L133.253 220.965L139.175 218.224C139.322 218.156 139.492 218.146 139.648 218.195C139.649 218.197 139.651 218.197 139.653 218.198C139.81 218.25 139.936 218.358 140.002 218.498L142.603 224.011L148.572 221.248C148.865 221.113 149.258 221.239 149.394 221.513L152.169 227.102L158.24 224.356C158.388 224.289 158.57 224.295 158.719 224.333C158.874 224.387 159 224.497 159.065 224.638L161.572 230.098L167.059 227.378L178.76 196.901C180.6 192.109 177.839 186.842 172.607 185.157L158.714 180.685C158.4 180.585 158.235 180.269 158.345 179.98C158.455 179.693 158.8 179.541 159.115 179.642L173.008 184.114C178.869 186 181.961 191.901 179.901 197.267L168.121 227.947C168.071 228.077 167.971 228.184 167.84 228.25L161.562 231.362C161.412 231.436 161.235 231.449 161.074 231.397Z" fill="#00B388"/>
<path fill-rule="evenodd" clip-rule="evenodd" d="M158.419 192.094C158.679 191.459 159.415 191.131 160.537 191.365L159.486 193.93C158.338 193.171 158.168 192.706 158.419 192.094ZM159.996 196.344C161.152 197.082 161.362 197.582 161.098 198.226C160.814 198.921 160.029 199.2 158.915 198.98L159.996 196.344ZM153.933 197.811C154.701 198.742 155.71 199.483 156.927 199.976L156.558 200.874C156.416 201.222 156.637 201.598 157.041 201.72C157.447 201.842 157.882 201.663 158.025 201.316L158.38 200.449C160.596 200.921 162.479 200.307 163.134 198.712C163.769 197.16 163.035 195.951 160.699 194.628L161.838 191.85C162.364 192.134 162.843 192.532 163.318 193.008C163.451 193.14 163.597 193.241 163.764 193.291C164.287 193.449 164.847 193.228 165.032 192.779C165.174 192.431 165.023 192.144 164.816 191.932C164.213 191.28 163.48 190.749 162.521 190.346L162.651 190.029C162.793 189.682 162.586 189.309 162.181 189.187C161.775 189.065 161.329 189.24 161.187 189.587L161.061 189.894C158.894 189.402 157.024 190.043 156.392 191.585C155.721 193.22 156.539 194.362 158.778 195.656L157.611 198.505C156.739 198.082 156.103 197.512 155.506 196.781C155.393 196.632 155.216 196.51 155.014 196.449C154.489 196.291 153.942 196.516 153.758 196.966C153.64 197.285 153.715 197.561 153.933 197.811Z" fill="#00B388"/>
<path fill-rule="evenodd" clip-rule="evenodd" d="M165.091 211.371L144.349 205.013C144.033 204.917 143.866 204.614 143.978 204.338C144.089 204.061 144.436 203.917 144.752 204.013L165.494 210.371C165.81 210.469 165.977 210.77 165.866 211.047C165.755 211.323 165.407 211.468 165.091 211.371Z" fill="#00B388"/>
<path fill-rule="evenodd" clip-rule="evenodd" d="M161.841 214.339L145.162 209.422C144.846 209.328 144.68 209.039 144.791 208.774C144.903 208.509 145.248 208.37 145.564 208.463L162.243 213.38C162.558 213.474 162.725 213.763 162.613 214.029C162.503 214.293 162.156 214.433 161.841 214.339Z" fill="#00B388"/>
<path fill-rule="evenodd" clip-rule="evenodd" d="M39.7012 158.736H1.19685C0.98461 158.736 0.813232 158.893 0.813232 159.088V192.026C0.813232 196.992 5.21003 201.017 10.6328 201.017H39.4651C39.6773 201.017 39.8487 200.86 39.8487 200.666V194.833" fill="white"/>
<mask id="mask1_9_11" style="mask-type:alpha" maskUnits="userSpaceOnUse" x="0" y="157" width="41" height="44">
<path d="M0 157.591H40.0507V200.708H0V157.591Z" fill="white"/>
</mask>
<g mask="url(#mask1_9_11)">
<path fill-rule="evenodd" clip-rule="evenodd" d="M39.0679 200.708H10.3741C4.65436 200.708 -0.000305176 196.453 -0.000305176 191.223V158.49C-0.000305176 157.995 0.440199 157.591 0.982358 157.591H39.3017C39.6338 157.591 39.9026 157.837 39.9026 158.141C39.9026 158.445 39.6338 158.69 39.3017 158.69H1.20261V191.223C1.20261 195.848 5.31624 199.609 10.3741 199.609H38.8488V194.015C38.8488 193.711 39.1165 193.464 39.4486 193.464C39.7818 193.464 40.0506 193.711 40.0506 194.015V199.81C40.0506 200.305 39.6089 200.708 39.0679 200.708Z" fill="#00B388"/>
</g>
<mask id="mask2_9_11" style="mask-type:alpha" maskUnits="userSpaceOnUse" x="0" y="0" width="344" height="271">
<path d="M0 270.742H344V0H0V270.742Z" fill="white"/>
</mask>
<g mask="url(#mask2_9_11)">
<path fill-rule="evenodd" clip-rule="evenodd" d="M6.50592 184.698H34.9693V165.412H6.50592V184.698Z" fill="white"/>
<path fill-rule="evenodd" clip-rule="evenodd" d="M6.92101 184.332H34.5554V165.779H6.92101V184.332ZM35.1689 185.44H6.30743C5.96834 185.44 5.69269 185.192 5.69269 184.886V165.225C5.69269 164.919 5.96834 164.67 6.30743 164.67H35.1689C35.5092 164.67 35.7825 164.919 35.7825 165.225V184.886C35.7825 185.192 35.5092 185.44 35.1689 185.44Z" fill="#00B388"/>
<path fill-rule="evenodd" clip-rule="evenodd" d="M11.3853 185.44C10.9359 185.44 10.5721 185.196 10.5721 184.896V165.956C10.5721 165.655 10.9359 165.412 11.3853 165.412C11.8347 165.412 12.1986 165.655 12.1986 165.956V184.896C12.1986 185.196 11.8347 185.44 11.3853 185.44Z" fill="#00B388"/>
<path fill-rule="evenodd" clip-rule="evenodd" d="M25.2104 185.44C24.761 185.44 24.3972 185.196 24.3972 184.896V165.956C24.3972 165.655 24.761 165.412 25.2104 165.412C25.6598 165.412 26.0236 165.655 26.0236 165.956V184.896C26.0236 185.196 25.6598 185.44 25.2104 185.44Z" fill="#00B388"/>
<path fill-rule="evenodd" clip-rule="evenodd" d="M35.1775 169.121H7.11094C6.77659 169.121 6.50592 168.789 6.50592 168.379C6.50592 167.969 6.77659 167.637 7.11094 167.637H35.1775C35.5118 167.637 35.7825 167.969 35.7825 168.379C35.7825 168.789 35.5118 169.121 35.1775 169.121Z" fill="#00B388"/>
<path fill-rule="evenodd" clip-rule="evenodd" d="M26.7633 191.374L24.3972 197.308L30.9031 195.268" fill="white"/>
<path fill-rule="evenodd" clip-rule="evenodd" d="M24.1598 197.308C24.005 197.308 23.8557 197.249 23.7453 197.143C23.5917 196.993 23.543 196.774 23.6198 196.578L25.8631 190.981C25.9745 190.703 26.3067 190.563 26.6043 190.665C26.9019 190.771 27.0523 191.082 26.942 191.36L25.1229 195.9L30.1451 194.333C30.4502 194.239 30.7727 194.392 30.8734 194.673C30.974 194.957 30.8106 195.261 30.5098 195.355L24.3416 197.28C24.2821 197.299 24.2204 197.308 24.1598 197.308Z" fill="#00B388"/>
<path fill-rule="evenodd" clip-rule="evenodd" d="M30.1106 195.082L26.0236 191.355L47.9603 171.346L52.0473 175.074L30.1106 195.082Z" fill="#BAE1FF"/>
<path fill-rule="evenodd" clip-rule="evenodd" d="M26.6921 191.451L30.0071 194.474L52.5749 173.889C53.4893 173.054 53.4893 171.699 52.5749 170.865C51.6628 170.033 50.1754 170.032 49.2599 170.865L26.6921 191.451ZM30.0071 195.824C29.8503 195.824 29.6935 195.769 29.5736 195.661L25.3903 191.846C25.275 191.741 25.2104 191.599 25.2104 191.451C25.2104 191.302 25.275 191.161 25.3903 191.054L48.3927 170.074C49.7857 168.802 52.0503 168.804 53.4432 170.074C54.8349 171.343 54.8349 173.41 53.4432 174.679L30.4407 195.661C30.3208 195.769 30.164 195.824 30.0071 195.824Z" fill="#00B388"/>
<path fill-rule="evenodd" clip-rule="evenodd" d="M54.4579 81.3962L60.9795 59.1248C61.0349 58.9362 60.9138 58.7425 60.711 58.6912L26.0591 50.0151C20.8355 48.707 15.4534 51.562 14.0388 56.3923L6.51946 82.0739C6.46396 82.2634 6.58402 82.4572 6.78902 82.5085L50.5289 93.4615" fill="white"/>
<path fill-rule="evenodd" clip-rule="evenodd" d="M26.1596 49.2885L61.0722 57.8928C61.6006 58.0237 61.9144 58.5202 61.7717 59.0011L55.1998 81.0885C55.1131 81.3835 54.7799 81.558 54.4546 81.478C54.1317 81.398 53.94 81.0947 54.0279 80.7987L60.5404 58.9076L25.8424 50.3552C20.9103 49.1399 15.8116 51.8031 14.4764 56.2922L6.95736 81.5673L50.8132 92.3758C51.1384 92.4547 51.329 92.758 51.2411 93.053C51.1533 93.348 50.8201 93.5214 50.496 93.4425L6.42558 82.58C5.89722 82.4502 5.58454 81.9537 5.72719 81.4728L13.3045 56.0035C14.8142 50.9264 20.5816 47.9143 26.1596 49.2885Z" fill="#00B388"/>
<path fill-rule="evenodd" clip-rule="evenodd" d="M44.1728 65.2747L52.8605 67.4021L47.7232 84.5604L39.0355 82.4329L44.1728 65.2747Z" fill="#BAE1FF"/>
<path fill-rule="evenodd" clip-rule="evenodd" d="M29.0303 69.7253L37.409 71.8642L34.4023 82.3352L26.0236 80.1963L29.0303 69.7253Z" fill="white"/>
<path fill-rule="evenodd" clip-rule="evenodd" d="M36.9691 71.3977L29.9063 69.4906L27.2761 79.179L34.3389 81.085L36.9691 71.3977ZM29.6579 68.2614L37.8064 70.4616C38.1066 70.5428 38.2832 70.8506 38.2028 71.15L35.2777 81.92C35.1963 82.2205 34.8876 82.3965 34.5884 82.3153L26.4388 80.1152C26.1386 80.034 25.962 79.7261 26.0434 79.4267L28.9675 68.6557C29.0489 68.3573 29.3576 68.1802 29.6579 68.2614Z" fill="#00B388"/>
<path fill-rule="evenodd" clip-rule="evenodd" d="M16.8725 63.0496L25.2104 65.1786L21.3498 78.6265L13.0118 76.4974L16.8725 63.0496Z" fill="white"/>
<path fill-rule="evenodd" clip-rule="evenodd" d="M24.6966 65.4351L17.2119 63.5457L13.5256 76.2402L21.0091 78.1307L24.6966 65.4351ZM16.9487 62.3268L25.5837 64.5076C25.9018 64.587 26.0889 64.892 26.0027 65.1897L22.0049 78.9569C21.9187 79.2535 21.5916 79.429 21.2735 79.3485L12.6385 77.1687C12.3215 77.0883 12.1333 76.7833 12.2195 76.4867L16.2173 62.7185C16.3035 62.4218 16.6306 62.2474 16.9487 62.3268Z" fill="#00B388"/>
<path fill-rule="evenodd" clip-rule="evenodd" d="M40.6438 77.8845L49.6076 80.0361L47.9992 85.3021L39.0355 83.1505L40.6438 77.8845Z" fill="#00B388"/>
<path fill-rule="evenodd" clip-rule="evenodd" d="M26.1683 76.4011L34.9693 78.4909L34.0113 81.5934L25.2104 79.5057L26.1683 76.4011Z" fill="#00B388"/>
<path fill-rule="evenodd" clip-rule="evenodd" d="M14.2141 73.4341L22.7707 75.4683L21.5685 79.3681L13.0118 77.3339L14.2141 73.4341Z" fill="#00B388"/>
<path fill-rule="evenodd" clip-rule="evenodd" d="M97.7975 105.389L122.203 99.4078C122.41 99.3572 122.622 99.4677 122.678 99.6524L131.259 127.953C133.249 134.516 128.944 141.285 121.644 143.075L97.1338 149.081C96.9271 149.131 96.7147 149.023 96.6584 148.836L84.5768 108.989" fill="#BAE1FF"/>
<path fill-rule="evenodd" clip-rule="evenodd" d="M100.236 114.231L103.751 110.47L108.974 112.039L106.327 103.104L97.5886 105.296L100.236 114.231Z" fill="#00B388"/>
<path fill-rule="evenodd" clip-rule="evenodd" d="M121.547 129.336L100.78 134.24C100.463 134.315 100.136 134.154 100.05 133.878C99.9625 133.603 100.15 133.321 100.468 133.246L121.234 128.343C121.551 128.267 121.878 128.429 121.965 128.704C122.051 128.979 121.864 129.262 121.547 129.336Z" fill="#00B388"/>
<path fill-rule="evenodd" clip-rule="evenodd" d="M119.088 135.313L101.626 139.432C101.295 139.509 100.953 139.341 100.863 139.055C100.774 138.769 100.968 138.474 101.299 138.396L118.762 134.277C119.093 134.2 119.433 134.368 119.524 134.654C119.614 134.94 119.419 135.234 119.088 135.313Z" fill="#00B388"/>
<path fill-rule="evenodd" clip-rule="evenodd" d="M88.8398 99.4537L113.223 93.4738C113.429 93.4232 113.643 93.5326 113.698 93.7174L123.261 125.285C124.702 130.044 121.584 134.954 116.295 136.25L88.1767 143.146C87.9714 143.198 87.758 143.089 87.7018 142.903L75.6312 103.054" fill="white"/>
<path fill-rule="evenodd" clip-rule="evenodd" d="M117.537 136.92L89.6509 143.869C89.1253 144 88.5803 143.716 88.437 143.235L76.4663 103.084C76.3775 102.79 76.5675 102.485 76.8906 102.405C77.2137 102.325 77.5459 102.498 77.6335 102.794L89.5462 142.748L117.218 135.852C122.133 134.628 125.041 129.977 123.702 125.483L114.277 93.8729L90.3085 99.8451C89.9854 99.9252 89.6532 99.7515 89.5656 99.4572C89.4768 99.1618 89.668 98.8581 89.9899 98.778L114.171 92.7517C114.698 92.6206 115.243 92.9046 115.386 93.3861L124.87 125.192C126.384 130.274 123.094 135.535 117.537 136.92Z" fill="#00B388"/>
<path fill-rule="evenodd" clip-rule="evenodd" d="M112.601 125.628L91.8338 130.531C91.5174 130.607 91.1909 130.445 91.1037 130.17C91.0177 129.895 91.2043 129.612 91.5218 129.537L112.288 124.634C112.606 124.559 112.932 124.721 113.019 124.995C113.105 125.27 112.919 125.553 112.601 125.628Z" fill="#00B388"/>
<path fill-rule="evenodd" clip-rule="evenodd" d="M110.956 130.12L93.4934 134.239C93.1623 134.317 92.8219 134.149 92.731 133.862C92.6413 133.577 92.8371 133.281 93.167 133.203L110.629 129.085C110.961 129.007 111.301 129.175 111.392 129.461C111.482 129.748 111.287 130.042 110.956 130.12Z" fill="#00B388"/>
<path fill-rule="evenodd" clip-rule="evenodd" d="M92.2971 111.391L86.0954 112.732C85.7984 112.796 85.4909 112.657 85.4101 112.421C85.3283 112.185 85.5046 111.942 85.8015 111.878L92.0033 110.538C92.3013 110.473 92.6077 110.612 92.6895 110.848C92.7703 111.084 92.5951 111.327 92.2971 111.391Z" fill="#00B388"/>
<path fill-rule="evenodd" clip-rule="evenodd" d="M90.7295 117.922C90.4749 117.994 90.2114 117.837 90.1421 117.571L88.6599 111.894C88.5906 111.628 88.7408 111.354 88.9954 111.281C89.2508 111.209 89.5134 111.366 89.5836 111.632L91.0659 117.309C91.1351 117.574 90.9849 117.85 90.7295 117.922Z" fill="#00B388"/>
<path fill-rule="evenodd" clip-rule="evenodd" d="M104.915 114.954C104.758 114.99 104.583 114.975 104.428 114.904C104.115 114.759 104.002 114.427 104.177 114.166L109.382 106.35C109.557 106.089 109.954 105.994 110.267 106.14C110.58 106.286 110.693 106.617 110.518 106.879L105.312 114.694C105.224 114.827 105.078 114.917 104.915 114.954Z" fill="#00B388"/>
<path fill-rule="evenodd" clip-rule="evenodd" d="M112.601 113.468C112.457 113.507 112.297 113.493 112.155 113.415L103.587 108.666C103.3 108.506 103.197 108.145 103.356 107.859C103.517 107.574 103.88 107.47 104.166 107.63L112.734 112.379C113.021 112.538 113.125 112.899 112.965 113.185C112.883 113.33 112.75 113.428 112.601 113.468Z" fill="#00B388"/>
<path fill-rule="evenodd" clip-rule="evenodd" d="M95.1489 116.456L96.5894 109.78L101.655 114.887" fill="white"/>
<path fill-rule="evenodd" clip-rule="evenodd" d="M95.0402 117.179C94.9605 117.201 94.8755 117.204 94.7895 117.188C94.4863 117.131 94.288 116.844 94.3457 116.547L95.719 109.485C95.7589 109.279 95.9142 109.114 96.1209 109.058C96.3265 109.002 96.5458 109.068 96.6864 109.225L101.516 114.626C101.719 114.854 101.697 115.201 101.465 115.4C101.233 115.601 100.881 115.577 100.677 115.352L96.6014 110.793L95.442 116.752C95.4011 116.965 95.2396 117.125 95.0402 117.179Z" fill="#00B388"/>
<path fill-rule="evenodd" clip-rule="evenodd" d="M100.403 114.566L95.9015 115.695C95.5838 115.774 95.2572 115.602 95.1699 115.311C95.0838 115.018 95.2706 114.717 95.5883 114.638L100.09 113.508C100.407 113.429 100.734 113.601 100.82 113.893C100.907 114.185 100.721 114.486 100.403 114.566Z" fill="#00B388"/>
<path fill-rule="evenodd" clip-rule="evenodd" d="M67.1023 53.45C53.3198 58.0847 40.9352 65.6547 33.7629 77.8357C26.3612 90.4052 27.5944 98.906 33.7526 104.173C39.9813 109.499 51.2485 111.515 63.7137 111.084" fill="white"/>
<path d="M67.1023 53.45C53.3198 58.0847 40.9352 65.6547 33.7629 77.8357C26.3612 90.4052 27.5944 98.906 33.7526 104.173C39.9813 109.499 51.2485 111.515 63.7137 111.084" stroke="#00B388"/>
<path fill-rule="evenodd" clip-rule="evenodd" d="M118.733 92.7197C113.85 96.0618 109.42 98.8248 105.533 100.77C95.8733 105.605 83.1455 109.111 70.7518 110.522L77.6571 95.5904L118.733 92.7197Z" fill="white"/>
<path d="M158.582 73.4341L250.478 221.786" stroke="#00B388"/>
<path fill-rule="evenodd" clip-rule="evenodd" d="M133.371 86.0439C122.592 86.0439 113.853 78.0659 113.853 68.2265V60.8384C113.853 50.9989 122.592 43.022 133.371 43.022C144.151 43.022 152.889 50.9989 152.889 60.8384V68.2265C152.889 78.0659 144.151 86.0439 133.371 86.0439Z" fill="#BAE1FF"/>
<path fill-rule="evenodd" clip-rule="evenodd" d="M138.251 81.5935C127.471 81.5935 118.733 73.6165 118.733 63.7771V56.389C118.733 46.5485 127.471 38.5715 138.251 38.5715C149.03 38.5715 157.768 46.5485 157.768 56.389V63.7771C157.768 73.6165 149.03 81.5935 138.251 81.5935Z" fill="white"/>
<path fill-rule="evenodd" clip-rule="evenodd" d="M131.317 39.673C125.029 39.673 119.913 44.4486 119.913 50.3184V70.5884C119.913 76.4582 125.029 81.2338 131.317 81.2338H145.184C151.472 81.2338 156.588 76.4582 156.588 70.5884V50.3184C156.588 44.4486 151.472 39.673 145.184 39.673H131.317ZM145.184 82.3353H131.317C124.378 82.3353 118.733 77.0659 118.733 70.5884V50.3184C118.733 43.8409 124.378 38.5715 131.317 38.5715H145.184C152.123 38.5715 157.768 43.8409 157.768 50.3184V70.5884C157.768 77.0659 152.123 82.3353 145.184 82.3353Z" fill="#00B388"/>
<path fill-rule="evenodd" clip-rule="evenodd" d="M130.931 54.8901L126.807 59.3407L124.426 56.7707" fill="white"/>
<path fill-rule="evenodd" clip-rule="evenodd" d="M126.743 60.0824C126.589 60.0824 126.444 60.0259 126.335 59.925L123.782 57.5469C123.556 57.337 123.556 56.9968 123.782 56.7869C124.007 56.5779 124.372 56.5769 124.597 56.7869L126.743 58.7854L130.76 55.0477C130.984 54.8378 131.35 54.8378 131.575 55.0467C131.801 55.2567 131.801 55.5968 131.575 55.8068L127.151 59.925C127.043 60.0259 126.896 60.0824 126.743 60.0824Z" fill="#00B388"/>
<path fill-rule="evenodd" clip-rule="evenodd" d="M153.101 57.1154H137.225C136.893 57.1154 136.624 56.7821 136.624 56.3722C136.624 55.9637 136.893 55.6318 137.225 55.6318H153.101C153.433 55.6318 153.702 55.9637 153.702 56.3722C153.702 56.7821 153.433 57.1154 153.101 57.1154Z" fill="#00B388"/>
<path fill-rule="evenodd" clip-rule="evenodd" d="M130.931 66.0166L126.807 70.4672L124.426 67.8967" fill="white"/>
<path fill-rule="evenodd" clip-rule="evenodd" d="M126.743 69.7253C126.589 69.7253 126.444 69.6687 126.335 69.5688L123.782 67.1897C123.556 66.9807 123.556 66.6396 123.782 66.4306C124.007 66.2207 124.372 66.2207 124.597 66.4306L126.743 68.4282L130.76 64.6904C130.984 64.4805 131.35 64.4805 131.575 64.6904C131.801 64.9004 131.801 65.2405 131.575 65.4505L127.151 69.5688C127.043 69.6687 126.896 69.7253 126.743 69.7253Z" fill="#00B388"/>
<path fill-rule="evenodd" clip-rule="evenodd" d="M146.598 68.9835H136.409C136.079 68.9835 135.811 68.6517 135.811 68.2418C135.811 67.8318 136.079 67.5 136.409 67.5H146.598C146.928 67.5 147.196 67.8318 147.196 68.2418C147.196 68.6517 146.928 68.9835 146.598 68.9835Z" fill="#00B388"/>
<path fill-rule="evenodd" clip-rule="evenodd" d="M157.768 50.4395H119.546L120.223 46.7307H156.656L157.768 50.4395Z" fill="#00B388"/>
<path d="M117.106 14.4724C117.89 13.0291 120.163 12.9658 121.045 14.3632L144.757 51.923" stroke="#00B388"/>
<path fill-rule="evenodd" clip-rule="evenodd" d="M313.097 130.998C256.452 145.312 217.117 6.46653 168.34 0.741699L313.097 130.998Z" fill="white"/>
<path d="M137.844 48.244C137.844 48.244 57.2657 38.2016 33.5668 78.3712C9.86672 118.54 74.6457 117.107 106.244 101.325C137.844 85.5442 205.783 15.2474 261.082 20.9862C316.38 26.725 370.098 117.107 313.22 131.453C256.341 145.799 216.842 6.63915 167.863 0.901363C118.885 -4.83745 126.784 145.799 153.643 183.099C180.503 220.399 267.401 158.711 267.401 158.711H39.8858L117.04 14.393C117.82 12.9341 120.083 12.8712 120.962 14.2826L144.57 52.2504" stroke="#00B388"/>
<path fill-rule="evenodd" clip-rule="evenodd" d="M317.8 108.297H342.804C343.015 108.297 343.187 108.454 343.187 108.648V141.585C343.187 146.551 338.791 150.577 333.367 150.577H304.535C304.323 150.577 304.151 150.419 304.151 150.226V108.648" fill="white"/>
<path fill-rule="evenodd" clip-rule="evenodd" d="M333.679 151.319H305.128C304.59 151.319 304.151 150.909 304.151 150.406V108.466C304.151 108.158 304.419 107.907 304.749 107.907C305.08 107.907 305.347 108.158 305.347 108.466V150.202H333.679C338.711 150.202 342.804 146.385 342.804 141.691V108.67H318.264C317.934 108.67 317.666 108.421 317.666 108.113C317.666 107.804 317.934 107.555 318.264 107.555H343.022C343.562 107.555 344 107.963 344 108.466V141.691C344 146.999 339.37 151.319 333.679 151.319Z" fill="#00B388"/>
<path fill-rule="evenodd" clip-rule="evenodd" d="M317.163 117.939L321.977 115.047L326.922 117.939V108.297H317.163V117.939Z" fill="#00B388"/>
<path fill-rule="evenodd" clip-rule="evenodd" d="M334.437 137.967H312.088C311.747 137.967 311.47 137.635 311.47 137.226C311.47 136.816 311.747 136.483 312.088 136.483H334.437C334.778 136.483 335.054 136.816 335.054 137.226C335.054 137.635 334.778 137.967 334.437 137.967Z" fill="#00B388"/>
<path fill-rule="evenodd" clip-rule="evenodd" d="M330.362 141.676H312.097C311.75 141.676 311.47 141.344 311.47 140.934C311.47 140.524 311.75 140.192 312.097 140.192H330.362C330.708 140.192 330.988 140.524 330.988 140.934C330.988 141.344 330.708 141.676 330.362 141.676Z" fill="#00B388"/>
</g>
</g>
<defs>
<clipPath id="clip0_9_11">
<rect width="344" height="270" fill="white"/>
</clipPath>
</defs>
</svg>
