<svg width="73" height="74" viewBox="0 0 73 74" fill="none" xmlns="http://www.w3.org/2000/svg">
<g clip-path="url(#clip0_21_43)">
<path fill-rule="evenodd" clip-rule="evenodd" d="M8.76086 14.6694V68.1661C8.76086 68.4145 8.96227 68.6171 9.21118 68.6171H43.1228C49.5019 68.6171 54.6726 63.4371 54.6726 57.0485V14.6694C54.6726 14.4201 54.4712 14.2183 54.2214 14.2183H9.05462" fill="#BAE1FF"/>
<path fill-rule="evenodd" clip-rule="evenodd" d="M39.1119 24.2273L55.0153 0.000244141L70.9179 24.2273H39.1119Z" fill="#00B388"/>
<mask id="mask0_21_43" style="mask-type:alpha" maskUnits="userSpaceOnUse" x="0" y="-1" width="73" height="75">
<path d="M0 73.3154H72.2973V-0.00012207H0V73.3154Z" fill="white"/>
</mask>
<g mask="url(#mask0_21_43)">
<path fill-rule="evenodd" clip-rule="evenodd" d="M2.09501 26.1898H22.2043V6.04679H2.09501V26.1898ZM23.2527 28.2882H1.04751C0.468783 28.2882 0 27.8186 0 27.239V4.99758C0 4.41791 0.468783 3.94836 1.04751 3.94836H23.2527C23.8305 3.94836 24.3002 4.41791 24.3002 4.99758V27.239C24.3002 27.8186 23.8305 28.2882 23.2527 28.2882Z" fill="#00B388"/>
<path fill-rule="evenodd" clip-rule="evenodd" d="M25.5817 55.4895C25.5817 58.0804 23.484 60.1815 20.8974 60.1815C18.3089 60.1815 16.2122 58.0804 16.2122 55.4895C16.2122 52.8978 18.3089 50.7967 20.8974 50.7967C23.484 50.7967 25.5817 52.8978 25.5817 55.4895Z" fill="#00B388"/>
<path fill-rule="evenodd" clip-rule="evenodd" d="M60.9092 42.0339C60.7825 42.0339 60.655 42.011 60.5292 41.9626C59.312 41.4886 58.0349 41.175 56.7341 41.0305C56.1589 40.9671 55.7447 40.4482 55.808 39.8721C55.8722 39.2959 56.3929 38.881 56.9663 38.9453C58.4465 39.1091 59.9013 39.4668 61.2883 40.006C61.8283 40.2165 62.0957 40.8244 61.8855 41.3644C61.7254 41.7793 61.3287 42.0339 60.9092 42.0339ZM47.3963 42.8541C47.0225 42.8541 46.661 42.6532 46.4719 42.3C46.1975 41.789 46.3901 41.153 46.8994 40.879C48.2125 40.1742 49.6127 39.643 51.0604 39.3003C51.6189 39.1673 52.1879 39.5162 52.3207 40.08C52.4544 40.6438 52.1052 41.2093 51.5423 41.3432C50.2714 41.6436 49.0427 42.1097 47.8897 42.729C47.7331 42.8136 47.5625 42.8541 47.3963 42.8541ZM68.444 48.0385C68.1107 48.0385 67.78 47.8782 67.5786 47.5804C66.8424 46.4986 65.9682 45.5146 64.9805 44.6547C64.5434 44.2742 64.4968 43.6117 64.8767 43.1739C65.254 42.7369 65.9172 42.6902 66.3534 43.0708C67.4783 44.0487 68.4722 45.1675 69.3095 46.3982C69.6358 46.8765 69.5118 47.5293 69.0333 47.8561C68.853 47.9795 68.6481 48.0385 68.444 48.0385ZM40.6354 49.7237C40.4736 49.7237 40.3082 49.6859 40.1552 49.6057C39.6407 49.3397 39.4402 48.7062 39.7058 48.1918C40.3883 46.8695 41.2423 45.6379 42.2414 44.5305C42.6302 44.1006 43.2933 44.068 43.7217 44.4565C44.1509 44.8459 44.1834 45.5093 43.7955 45.9392C42.916 46.9117 42.1667 47.9944 41.5668 49.1555C41.3804 49.5167 41.0145 49.7237 40.6354 49.7237ZM38.9599 59.2204C38.4393 59.2204 37.9881 58.8328 37.9212 58.3025C37.8315 57.5818 37.7849 56.848 37.7858 56.1212C37.7858 55.3601 37.8359 54.5954 37.9336 53.8492C38.0101 53.2749 38.5395 52.8723 39.1095 52.9463C39.6829 53.022 40.0866 53.5488 40.011 54.1241C39.9248 54.7795 39.8817 55.4517 39.8817 56.1221C39.8808 56.7617 39.9213 57.4065 40.0013 58.0391C40.0734 58.6143 39.6662 59.1394 39.0919 59.2125C39.0479 59.2178 39.0039 59.2204 38.9599 59.2204ZM70.7149 61.3215C70.627 61.3215 70.5364 61.31 70.4476 61.2862C69.8882 61.1382 69.554 60.5647 69.7017 60.0036C70.0333 58.7456 70.2013 57.4391 70.2013 56.1221C70.2013 54.8333 70.0412 53.555 69.7237 52.3217C69.5786 51.7614 69.9163 51.1888 70.4766 51.0443C71.0351 50.8998 71.6085 51.2363 71.7519 51.7975C72.1134 53.2026 72.2972 54.6571 72.2972 56.1221C72.2972 57.6197 72.1055 59.1059 71.7282 60.5392C71.6033 61.0105 71.1793 61.3215 70.7149 61.3215ZM42.9582 67.9912C42.6706 67.9912 42.3848 67.8731 42.1763 67.6414C41.1842 66.5306 40.3382 65.2946 39.6627 63.9687C39.3988 63.4525 39.6029 62.8209 40.1183 62.5566C40.6354 62.2949 41.2652 62.4976 41.5281 63.0138C42.1227 64.1793 42.8659 65.2655 43.7392 66.2425C44.1245 66.6742 44.0875 67.3375 43.6566 67.7242C43.456 67.9031 43.2063 67.9912 42.9582 67.9912ZM65.5979 69.4906C65.3024 69.4906 65.0104 69.3663 64.8028 69.125C64.4255 68.6854 64.4765 68.0229 64.9154 67.645C65.9084 66.7913 66.787 65.8117 67.5293 64.7343C67.8583 64.2568 68.5126 64.137 68.9867 64.4665C69.4634 64.7951 69.5821 65.4496 69.2541 65.9262C68.4097 67.1516 67.4097 68.2652 66.2795 69.2368C66.0825 69.4069 65.8389 69.4906 65.5979 69.4906ZM51.216 72.9509C51.136 72.9509 51.0524 72.9412 50.9698 72.9219C49.523 72.5712 48.1254 72.0321 46.8167 71.3194C46.3074 71.0428 46.1201 70.4059 46.3963 69.8958C46.6724 69.3857 47.3075 69.199 47.8176 69.4756C48.9662 70.1011 50.1923 70.5732 51.4623 70.8816C52.0243 71.0181 52.37 71.5846 52.2345 72.1484C52.1184 72.6285 51.6901 72.9509 51.216 72.9509ZM56.7605 73.3157C56.2319 73.3157 55.7772 72.9148 55.7209 72.3766C55.6594 71.7995 56.0771 71.2833 56.6523 71.2225C57.9558 71.0851 59.2337 70.7785 60.451 70.3125C60.991 70.1072 61.5979 70.3768 61.8045 70.9186C62.0104 71.4595 61.7395 72.0656 61.1986 72.2726C59.8116 72.8038 58.356 73.1527 56.8722 73.3095C56.8353 73.3139 56.7974 73.3157 56.7605 73.3157Z" fill="#00B388"/>
</g>
</g>
<defs>
<clipPath id="clip0_21_43">
<rect width="73" height="74" fill="white"/>
</clipPath>
</defs>
</svg>
