<svg width="83" height="83" viewBox="0 0 83 83" fill="none" xmlns="http://www.w3.org/2000/svg">
<g clip-path="url(#clip0_21_61)">
<path fill-rule="evenodd" clip-rule="evenodd" d="M65.5322 40.6873C65.5322 54.1763 54.5962 65.1123 41.1072 65.1123C27.6172 65.1123 16.6822 54.1763 16.6822 40.6873C16.6822 27.1983 27.6172 16.2623 41.1072 16.2623C54.5962 16.2623 65.5322 27.1983 65.5322 40.6873Z" fill="#BBE1FD"/>
<path fill-rule="evenodd" clip-rule="evenodd" d="M50.7031 62.5335C49.6351 62.7085 48.1231 62.8005 45.0021 62.8005C41.4371 62.7085 40.5531 63.9605 39.6591 64.5785C38.7651 64.4865 37.7891 64.4035 36.8961 64.2195C36.7211 64.1275 33.8741 63.7605 32.3551 62.8845C23.7161 59.4115 16.9521 52.6455 16.5231 39.8255C16.4081 36.3555 18.6921 31.2325 20.1641 29.7615C17.8891 33.2405 16.5511 35.6995 16.5511 39.7985C16.5511 42.4695 17.1211 49.0045 19.7921 53.1025C22.8221 57.6435 28.9661 60.6555 30.3931 60.3045C32.9731 59.5035 24.5161 58.2595 29.7671 48.6435C35.0171 38.9355 22.9141 45.3465 21.1281 32.0815C20.5021 27.2735 23.7991 28.7015 26.2031 25.1375C27.9811 22.3735 31.5461 21.7565 31.1031 19.7945C32.5301 19.0855 34.0411 18.5515 35.6441 18.1915C33.9491 19.7025 32.4381 20.9545 35.9111 20.2375C39.7421 19.4355 41.6961 18.7265 41.9631 17.5655C44.0991 17.6575 46.0611 17.9245 48.0151 18.5425C46.5881 18.3665 43.9161 18.3665 43.8331 20.2375C43.6571 22.8165 43.2991 23.8015 42.0551 24.0685C40.8111 24.3355 40.5441 24.6945 40.5441 25.2285C40.6361 26.8315 42.1461 27.1905 44.6421 25.2285C47.1391 23.2675 47.8481 25.8545 49.8091 26.2975C51.7711 26.7395 51.5041 24.3355 53.1061 24.9615C54.7101 25.5875 56.6711 29.0605 51.6801 28.7015C46.6961 28.4345 44.2001 27.0065 40.5531 28.8765C35.3861 31.4555 36.2781 39.1185 41.7131 39.0275C46.1621 39.0275 47.4141 39.2025 48.8331 43.9275C50.2521 48.6515 47.8561 50.3375 50.3521 53.9855C52.8481 57.8175 58.7241 47.1325 58.5411 43.5685C58.3571 40.0035 63.1741 38.3175 60.5031 34.1275C57.8311 30.0285 61.0371 30.0285 63.3491 32.4325C64.1501 35.1125 64.6841 37.9585 64.6841 40.9885C64.6841 50.6045 58.9001 58.8855 50.7031 62.5335ZM41.0911 16.5325C27.5841 16.5325 16.6351 27.4815 16.6351 40.9885C16.6351 54.4955 27.5841 65.4455 41.0911 65.4455C54.5981 65.4455 65.5471 54.4955 65.5471 40.9885C65.5471 27.4815 54.5981 16.5325 41.0911 16.5325Z" fill="white"/>
<path fill-rule="evenodd" clip-rule="evenodd" d="M36.833 18.1141C36.85 18.3771 36.779 18.6411 36.629 18.8621C38.692 18.3921 39.74 18.0101 40.27 17.7381C39.101 17.7791 37.952 17.9061 36.833 18.1141ZM41.77 25.3801C41.775 25.3981 41.782 25.4101 41.786 25.4161C41.861 25.4111 42.087 25.3871 42.528 25.1781C42.456 25.1981 42.381 25.2171 42.305 25.2331C42.046 25.2881 41.877 25.3411 41.77 25.3801ZM27.528 22.0951C25.771 23.3601 24.197 24.8641 22.854 26.5591C23.661 26.0841 24.485 25.5531 25.216 24.4711C25.867 23.4591 26.715 22.7081 27.528 22.0951ZM44.583 26.7401C45.661 26.7541 46.735 26.9121 47.875 27.0801C48.179 27.1241 48.492 27.1711 48.817 27.2161C48.24 26.9601 47.774 26.6001 47.378 26.2941C46.453 25.5801 46.286 25.4511 45.379 26.1651C45.102 26.3831 44.836 26.5741 44.583 26.7401ZM50.937 27.4571C51.199 27.4781 51.468 27.4971 51.743 27.5121C53.342 27.6251 53.693 27.2861 53.696 27.2831C53.722 27.0601 53.208 26.3031 52.705 26.0841C52.653 26.1431 52.593 26.2181 52.546 26.2771C52.264 26.6251 51.772 27.2331 50.937 27.4571ZM41.695 37.8361C46.651 37.8361 48.381 38.2821 49.974 43.5841C50.672 45.9081 50.529 47.6101 50.414 48.9781C50.28 50.5821 50.191 51.6411 51.336 53.3131C51.565 53.6661 51.651 53.6351 51.822 53.5801C53.663 52.9811 57.501 46.5321 57.352 43.6291C57.257 41.7931 58.16 40.4211 58.958 39.2101C59.989 37.6421 60.671 36.6071 59.498 34.7671C57.694 31.9991 58.249 30.6731 59.034 30.0491C59.7 29.5201 60.58 29.4971 61.481 29.7961C58.782 24.8961 54.368 21.0691 49.054 19.1271C48.822 19.5371 48.365 19.7891 47.869 19.7251C46.649 19.5751 45.525 19.6981 45.14 20.0251C45.08 20.0751 45.03 20.1301 45.022 20.2901C44.916 21.8641 44.746 23.2681 44.034 24.1941C46.331 22.4781 47.893 23.6821 48.833 24.4081C49.273 24.7481 49.653 25.0411 50.071 25.1351C50.355 25.1991 50.354 25.1981 50.693 24.7781C51.068 24.3151 51.943 23.2291 53.54 23.8521C54.831 24.3561 56.392 26.1191 56.002 27.8451C55.806 28.7131 54.977 30.1321 51.594 29.8891C50.037 29.8061 48.704 29.6101 47.529 29.4371C44.976 29.0601 43.289 28.8121 41.097 29.9371C38.652 31.1561 38.006 33.5901 38.434 35.3381C38.618 36.0931 39.297 37.8361 41.613 37.8361C41.641 37.8371 41.642 37.8441 41.695 37.8361ZM23.241 55.2411C24.894 56.7361 26.74 57.8641 28.137 58.5131C26.815 56.6761 25.758 53.5031 28.722 48.0721C29.907 45.8821 29.978 44.8641 29.828 44.3971C29.64 43.8071 28.851 43.3961 27.58 42.7751C24.94 41.4831 20.956 39.5331 19.958 32.3171C19.658 32.8191 19.386 33.3071 19.142 33.7951C18.896 34.3661 18.661 34.9761 18.455 35.5991C18.044 37.3301 17.826 39.1341 17.826 40.9891C17.826 41.2551 17.83 41.5211 17.839 41.7851C18.343 47.2021 20.15 51.6971 23.241 55.2411ZM37.209 63.0671C37.871 63.1981 38.6 63.2741 39.312 63.3461C39.32 63.3391 39.33 63.3311 39.338 63.3231C40.234 62.6061 41.582 61.5221 45.032 61.6101C47.7 61.6091 49.276 61.5431 50.361 61.3821C58.345 57.7621 63.493 49.7751 63.493 40.9891C63.493 38.4421 63.101 35.8461 62.293 33.0611C61.689 32.4891 61.134 32.1961 60.767 32.0701C60.862 32.3571 61.067 32.8121 61.501 33.4771C63.51 36.6281 62.028 38.8771 60.947 40.5201C60.266 41.5551 59.677 42.4501 59.73 43.5071C59.897 46.7601 56.014 54.7221 52.558 55.8451C51.291 56.2581 50.123 55.8171 49.354 54.6361C47.747 52.2871 47.896 50.5041 48.041 48.7791C48.148 47.4911 48.26 46.1601 47.692 44.2701C46.476 40.2181 45.841 40.2181 41.713 40.2181C41.677 40.2181 41.639 40.2181 41.604 40.2181C38.916 40.2191 36.763 38.5351 36.119 35.9041C35.474 33.2661 36.419 29.6081 40.021 27.8111C40.24 27.6981 40.456 27.5971 40.669 27.5051C39.891 27.1151 39.413 26.3161 39.354 25.2971C39.353 23.4301 41.134 23.0481 41.805 22.9041C42.115 22.8371 42.468 22.7611 42.645 20.1561C42.666 19.6711 42.807 19.2191 43.058 18.8251C42.929 18.8151 42.799 18.8061 42.667 18.7971C41.729 20.0171 39.542 20.6941 36.155 21.4031C34.973 21.6461 33.357 21.9801 32.77 20.8061C32.7 20.6691 32.654 20.5351 32.63 20.4031C32.521 20.4491 32.412 20.4961 32.305 20.5451C32.096 21.8021 30.913 22.6241 29.845 23.3671C28.923 24.0081 27.878 24.7351 27.205 25.7811C26.094 27.4291 24.849 28.1541 23.848 28.7371C22.526 29.5061 22.031 29.7941 22.309 31.9281C23.118 37.9391 26.173 39.4341 28.628 40.6351C30.15 41.3801 31.589 42.0841 32.097 43.6701C32.538 45.0471 32.143 46.7561 30.815 49.2101C27.686 54.9431 29.83 57.0301 31.111 58.2761C31.647 58.7981 32.256 59.3891 32.049 60.2531C31.958 60.6311 31.73 60.9351 31.371 61.1631C31.835 61.3781 32.312 61.5831 32.8 61.7791C32.852 61.8001 32.901 61.8241 32.95 61.8521C33.934 62.4191 35.797 62.7801 36.593 62.9331C36.893 62.9911 37.07 63.0261 37.209 63.0671ZM44.617 63.9871C43.79 63.9891 43.16 64.0711 42.658 64.2011C43.318 64.1571 43.973 64.0851 44.617 63.9871ZM41.091 66.6361C31.813 66.6361 23.669 61.6831 19.165 54.2831C19.039 54.1121 18.919 53.9391 18.802 53.7641C17.747 52.1451 16.992 50.1651 16.463 48.1591C15.925 46.3111 15.588 44.3741 15.48 42.3801C15.439 41.9091 15.41 41.4611 15.391 41.0451C15.366 40.6561 15.347 40.2631 15.333 39.8661C15.312 39.2381 15.36 38.5681 15.463 37.8781C15.61 36.5561 15.912 35.3831 16.335 34.2741C19.294 23.3791 29.271 15.3411 41.091 15.3411C55.233 15.3411 66.738 26.8461 66.738 40.9891C66.738 55.1311 55.233 66.6361 41.091 66.6361Z" fill="#00B388"/>
<mask id="mask0_21_61" style="mask-type:alpha" maskUnits="userSpaceOnUse" x="34" y="0" width="6" height="3">
<path d="M34.9056 0H39.6585V2.619H34.9056V0Z" fill="white"/>
</mask>
<g mask="url(#mask0_21_61)">
<path fill-rule="evenodd" clip-rule="evenodd" d="M36.0957 2.61902C35.5057 2.61902 34.9927 2.18202 34.9157 1.58102C34.8307 0.929021 35.2907 0.331021 35.9437 0.246021C36.7527 0.141021 37.5747 0.0600212 38.3847 0.00302121C39.0567 -0.0449788 39.6107 0.452021 39.6557 1.10902C39.7007 1.76502 39.2057 2.33402 38.5507 2.38002C37.7857 2.43302 37.0127 2.51002 36.2497 2.60902C36.1987 2.61602 36.1467 2.61902 36.0957 2.61902Z" fill="#00B388"/>
</g>
<mask id="mask1_21_61" style="mask-type:alpha" maskUnits="userSpaceOnUse" x="0" y="0" width="83" height="83">
<path d="M0 0.0430298H82.608V82.5097H0V0.0430298Z" fill="white"/>
</mask>
<g mask="url(#mask1_21_61)">
<path fill-rule="evenodd" clip-rule="evenodd" d="M49.3379 3.08868C49.2589 3.08868 49.1789 3.08068 49.0999 3.06468C47.6239 2.76468 46.1129 2.54768 44.6069 2.42168C43.9509 2.36668 43.4639 1.79068 43.5189 1.13468C43.5739 0.480684 44.1639 -0.010316 44.8059 0.047684C46.4029 0.181684 48.0079 0.411684 49.5739 0.730684C50.2179 0.860684 50.6349 1.48968 50.5039 2.13468C50.3889 2.69868 49.8929 3.08868 49.3379 3.08868ZM59.6139 6.69768C59.4309 6.69768 59.2449 6.65468 59.0709 6.56568C57.7289 5.87568 56.3309 5.25768 54.9179 4.73068C54.3009 4.50068 53.9869 3.81468 54.2179 3.19768C54.4479 2.58068 55.1359 2.26868 55.7499 2.49868C57.2519 3.05868 58.7349 3.71468 60.1599 4.44668C60.7449 4.74768 60.9759 5.46568 60.6749 6.05068C60.4639 6.46168 60.0469 6.69768 59.6139 6.69768ZM68.5349 12.9427C68.2449 12.9427 67.9549 12.8377 67.7259 12.6257C66.6199 11.6017 65.4409 10.6317 64.2199 9.74168C63.6889 9.35368 63.5719 8.60868 63.9599 8.07768C64.3479 7.54568 65.0919 7.42868 65.6239 7.81668C66.9189 8.76068 68.1699 9.79068 69.3439 10.8767C69.8269 11.3237 69.8569 12.0767 69.4089 12.5607C69.1749 12.8137 68.8559 12.9427 68.5349 12.9427ZM75.4569 21.3457C75.0589 21.3457 74.6679 21.1457 74.4419 20.7797C73.6509 19.4997 72.7749 18.2497 71.8379 17.0657C71.4289 16.5487 71.5169 15.7997 72.0319 15.3917C72.5469 14.9837 73.2959 15.0707 73.7049 15.5867C74.6999 16.8427 75.6309 18.1697 76.4699 19.5287C76.8159 20.0887 76.6419 20.8217 76.0819 21.1687C75.8869 21.2887 75.6709 21.3457 75.4569 21.3457ZM79.8609 31.2987C79.3439 31.2987 78.8669 30.9587 78.7179 30.4367C78.3009 28.9857 77.7939 27.5467 77.2109 26.1557C76.9559 25.5497 77.2409 24.8517 77.8489 24.5967C78.4549 24.3417 79.1529 24.6287 79.4069 25.2347C80.0259 26.7107 80.5649 28.2387 81.0069 29.7787C81.1899 30.4107 80.8229 31.0707 80.1919 31.2527C80.0809 31.2837 79.9709 31.2987 79.8609 31.2987ZM81.4169 42.0727C80.7639 42.0727 80.2319 41.5467 80.2259 40.8917C80.2139 39.3797 80.1139 37.8557 79.9289 36.3617C79.8479 35.7097 80.3119 35.1137 80.9639 35.0327C81.6139 34.9517 82.2119 35.4157 82.2929 36.0687C82.4889 37.6527 82.5959 39.2697 82.6089 40.8727C82.6129 41.5307 82.0839 42.0677 81.4269 42.0727H81.4169ZM1.19188 42.3787H1.19088C0.532878 42.3787 -0.00012207 41.8447 -0.00012207 41.1867C0.00087793 39.5827 0.0948779 37.9647 0.278878 36.3797C0.355878 35.7257 0.939878 35.2557 1.60088 35.3337C2.25388 35.4097 2.72188 36.0007 2.64588 36.6537C2.47188 38.1497 2.38288 39.6747 2.38188 41.1887C2.38188 41.8457 1.84888 42.3787 1.19188 42.3787ZM80.0369 52.8727C79.9339 52.8727 79.8299 52.8597 79.7259 52.8317C79.0909 52.6597 78.7149 52.0057 78.8859 51.3707C79.2779 49.9187 79.5889 48.4237 79.8089 46.9277C79.9049 46.2767 80.5119 45.8247 81.1609 45.9227C81.8119 46.0187 82.2619 46.6247 82.1659 47.2757C81.9319 48.8627 81.6029 50.4497 81.1859 51.9917C81.0429 52.5227 80.5619 52.8727 80.0369 52.8727ZM2.65188 53.1677C2.13088 53.1677 1.65088 52.8227 1.50488 52.2957C1.07688 50.7557 0.734878 49.1717 0.488878 47.5867C0.388878 46.9367 0.833878 46.3277 1.48388 46.2267C2.13188 46.1307 2.74288 46.5717 2.84388 47.2217C3.07488 48.7147 3.39788 50.2077 3.80088 51.6567C3.97688 52.2907 3.60688 52.9477 2.97288 53.1237C2.86488 53.1527 2.75788 53.1677 2.65188 53.1677ZM75.7859 62.9017C75.5779 62.9017 75.3679 62.8487 75.1779 62.7347C74.6119 62.3977 74.4269 61.6667 74.7649 61.1007C75.5359 59.8057 76.2399 58.4507 76.8569 57.0717C77.1249 56.4717 77.8279 56.1997 78.4299 56.4707C79.0299 56.7387 79.2989 57.4437 79.0309 58.0447C78.3769 59.5077 77.6299 60.9467 76.8099 62.3207C76.5869 62.6947 76.1919 62.9017 75.7859 62.9017ZM6.97588 63.1577C6.57288 63.1577 6.17988 62.9537 5.95588 62.5837C5.12488 61.2137 4.36688 59.7807 3.70488 58.3277C3.43288 57.7287 3.69588 57.0227 4.29488 56.7497C4.89588 56.4777 5.60088 56.7407 5.87288 57.3387C6.49688 58.7087 7.20988 60.0577 7.99288 61.3497C8.33388 61.9117 8.15488 62.6447 7.59188 62.9847C7.39888 63.1027 7.18688 63.1577 6.97588 63.1577ZM68.9989 71.4157C68.6849 71.4157 68.3709 71.2927 68.1369 71.0467C67.6829 70.5707 67.6999 69.8177 68.1759 69.3627C69.2669 68.3217 70.3099 67.2047 71.2739 66.0427C71.6939 65.5367 72.4439 65.4667 72.9499 65.8867C73.4569 66.3077 73.5259 67.0577 73.1069 67.5647C72.0829 68.7967 70.9789 69.9817 69.8209 71.0867C69.5899 71.3067 69.2939 71.4157 68.9989 71.4157ZM13.8239 71.6187C13.5309 71.6187 13.2379 71.5117 13.0079 71.2957C11.8429 70.1987 10.7299 69.0227 9.69688 67.7987C9.27388 67.2957 9.33788 66.5437 9.84088 66.1197C10.3439 65.6947 11.0959 65.7597 11.5199 66.2627C12.4919 67.4177 13.5419 68.5267 14.6409 69.5607C15.1189 70.0107 15.1429 70.7647 14.6919 71.2437C14.4569 71.4927 14.1409 71.6187 13.8239 71.6187ZM60.1839 77.7997C59.7589 77.7997 59.3469 77.5707 59.1319 77.1697C58.8219 76.5897 59.0419 75.8677 59.6209 75.5577C60.9509 74.8467 62.2539 74.0497 63.4909 73.1897C64.0299 72.8137 64.7739 72.9467 65.1499 73.4867C65.5249 74.0277 65.3909 74.7697 64.8519 75.1457C63.5379 76.0587 62.1559 76.9037 60.7439 77.6587C60.5669 77.7547 60.3739 77.7997 60.1839 77.7997ZM22.6919 77.9407C22.5039 77.9407 22.3159 77.8957 22.1389 77.8027C20.7209 77.0597 19.3319 76.2237 18.0099 75.3187C17.4669 74.9477 17.3279 74.2067 17.6989 73.6637C18.0709 73.1197 18.8129 72.9817 19.3559 73.3537C20.6009 74.2057 21.9089 74.9927 23.2459 75.6937C23.8279 75.9997 24.0519 76.7197 23.7469 77.3017C23.5339 77.7077 23.1189 77.9407 22.6919 77.9407ZM49.9689 81.5717C49.4209 81.5717 48.9289 81.1927 48.8059 80.6367C48.6649 79.9947 49.0699 79.3587 49.7129 79.2167C51.1859 78.8937 52.6539 78.4777 54.0799 77.9827C54.7019 77.7657 55.3809 78.0957 55.5959 78.7167C55.8119 79.3387 55.4829 80.0177 54.8609 80.2337C53.3479 80.7587 51.7879 81.1997 50.2259 81.5437C50.1389 81.5627 50.0529 81.5717 49.9689 81.5717ZM32.9399 81.6367C32.8579 81.6367 32.7749 81.6287 32.6909 81.6107C31.1229 81.2777 29.5589 80.8487 28.0419 80.3347C27.4189 80.1237 27.0849 79.4467 27.2959 78.8237C27.5069 78.2017 28.1849 77.8657 28.8069 78.0787C30.2349 78.5627 31.7079 78.9667 33.1859 79.2797C33.8289 79.4167 34.2399 80.0487 34.1039 80.6927C33.9839 81.2527 33.4899 81.6367 32.9399 81.6367ZM41.3219 82.5097H41.3039C40.5579 82.5097 39.8009 82.4897 39.0559 82.4497C38.3989 82.4147 37.8949 81.8537 37.9299 81.1957C37.9639 80.5407 38.5149 80.0397 39.1829 80.0707C39.8919 80.1097 40.5769 80.1107 41.3219 80.1277C42.1189 80.1277 42.9269 80.1027 43.7229 80.0547C44.3899 80.0077 44.9439 80.5147 44.9839 81.1707C45.0249 81.8267 44.5249 82.3917 43.8679 82.4317C43.0249 82.4837 42.1669 82.5097 41.3219 82.5097Z" fill="#00B388"/>
</g>
<path fill-rule="evenodd" clip-rule="evenodd" d="M2.69631 31.4764C2.58931 31.4764 2.48031 31.4614 2.37231 31.4314C1.73931 31.2524 1.37031 30.5944 1.55031 29.9614C1.77031 29.1784 2.01831 28.3914 2.28731 27.6214C2.50431 26.9994 3.18231 26.6754 3.80331 26.8884C4.42531 27.1054 4.75331 27.7854 4.53631 28.4064C4.28431 29.1304 4.05031 29.8714 3.84231 30.6084C3.69331 31.1334 3.21631 31.4764 2.69631 31.4764Z" fill="#00B388"/>
<path fill-rule="evenodd" clip-rule="evenodd" d="M7.64649 28.0013C7.64649 30.0783 5.96249 31.7613 3.88549 31.7613C1.80949 31.7613 0.125488 30.0783 0.125488 28.0013C0.125488 25.9243 1.80949 24.2413 3.88549 24.2413C5.96249 24.2413 7.64649 25.9243 7.64649 28.0013Z" fill="#00B388"/>
</g>
<defs>
<clipPath id="clip0_21_61">
<rect width="83" height="83" fill="white"/>
</clipPath>
</defs>
</svg>
