<svg width="134" height="30" viewBox="0 0 134 30" fill="none" xmlns="http://www.w3.org/2000/svg">
<path d="M20.5332 4.69764H11.4915V8.35618V10.5879V12.4684V14.1074V17.8025H16.4252V12.4757H12.6962V8.3635H18.2321C18.7871 8.3635 19.2879 8.60496 19.6466 9.00008C20.012 9.38789 20.2354 9.93667 20.2354 10.5294V19.8586V21.9147H18.3337H9.68457C9.12962 21.9147 8.62881 21.6733 8.27013 21.2781C7.90467 20.883 7.68134 20.3415 7.68134 19.7489V10.5952V10.4196V8.3635V2.92691V0.585449H20.5332C22.4349 0.585449 24.1539 1.4196 25.4059 2.77325C26.6511 4.1196 27.4294 5.98545 27.4294 8.03423V23.4806V26.3928V27.6806C27.4294 28.7855 26.597 29.6854 25.5751 29.6854H25.257H24.2825H7.37679C5.47508 29.6854 3.75609 28.8513 2.50407 27.4976C1.25204 26.1513 0.48053 24.2854 0.48053 22.2367V8.35618H2.47023H4.28396H6.46992V12.4684H4.28396V22.2367C4.28396 23.1513 4.62912 23.9855 5.19083 24.5928C5.75255 25.2001 6.52407 25.5733 7.37003 25.5733H23.6124V8.03423C23.6124 7.1196 23.2673 6.28545 22.7056 5.67813C22.1506 5.07813 21.3859 4.69764 20.5332 4.69764Z" fill="#00B289"/>
<path d="M121.859 10.5294C120.113 9.2196 117.94 8.7513 115.754 9.25618C112.763 9.9513 110.381 12.6074 109.826 15.8781C109.4 18.3733 110.009 20.9123 111.491 22.8367C112.973 24.7611 115.152 25.8659 117.46 25.8659C118.996 25.8659 120.485 25.3757 121.737 24.4757C121.933 25.0903 122.468 25.5367 123.104 25.5367H125.297V9.38057H123.571C122.82 9.37325 122.17 9.84886 121.859 10.5294ZM113.886 19.705C113.474 18.9952 113.284 18.2342 113.311 17.3781C113.345 16.1708 113.853 14.9928 114.699 14.1586C115.497 13.3757 116.431 12.9952 117.548 12.9952C118.319 12.9952 119.003 13.1928 119.646 13.5952C121.006 14.4586 121.669 15.7537 121.669 17.5391C121.669 18.7172 121.27 19.7196 120.451 20.6123C119.551 21.5855 118.509 22.0172 117.25 21.9147C116.722 21.8708 116.194 21.7172 115.714 21.4611C114.929 21.0513 114.326 20.4733 113.886 19.705Z" fill="#00B289"/>
<path d="M51.0148 10.1417C49.7898 9.42458 48.4634 9.06605 47.0625 9.06605C45.8781 9.06605 44.775 9.3441 43.7666 9.90019C43.5365 10.0246 43.3199 10.1636 43.1101 10.31V6.00751C43.1101 5.1441 42.4604 4.44897 41.6686 4.44897H39.4285V25.5368H41.601C42.2236 25.5368 42.7515 25.1124 42.9545 24.5124C43.2523 24.7246 43.5703 24.9148 43.9155 25.0831C44.9713 25.6099 46.0947 25.8734 47.2452 25.8734C49.5665 25.8734 51.6036 24.827 53.2955 22.7709C54.4866 21.3295 55.0889 19.5221 55.0889 17.3929C55.0889 15.8636 54.7167 14.4368 53.979 13.149C53.2414 11.8685 52.2465 10.8587 51.0148 10.1417ZM50.8997 19.566C50.514 20.327 49.9996 20.8978 49.3296 21.3295C48.6935 21.7319 48.0167 21.9295 47.2723 21.9295C46.494 21.9295 45.7834 21.7392 45.1269 21.366C43.7057 20.5173 43.0425 19.31 43.0425 17.5612C43.0425 16.2368 43.4215 15.1685 44.2065 14.2831C44.978 13.4124 45.939 12.988 47.1504 12.988C48.3619 12.988 49.3499 13.4051 50.1824 14.2539C51.0013 15.088 51.3938 16.127 51.4005 17.4221C51.4005 18.1831 51.2246 18.9221 50.8997 19.566Z" fill="#00B289"/>
<path d="M66.7226 9.06592C65.3149 9.06592 63.9952 9.45372 62.7973 10.2147C61.5994 10.9757 60.6452 12.0147 59.9617 13.3098C59.2781 14.6049 58.933 16.0318 58.933 17.5464C58.933 19.0391 59.2984 20.444 60.009 21.7245C60.8212 23.1806 61.9581 24.3001 63.3861 25.0537C64.1982 25.4854 65.0645 25.7488 65.9646 25.8367C66.2218 25.8586 66.4722 25.8732 66.7226 25.8732C68.1167 25.8732 69.4296 25.4854 70.614 24.7098C71.954 23.8391 72.9827 22.6025 73.6865 21.044C74.1061 20.1074 74.3565 19.1049 74.4242 18.0586C74.5934 15.5342 73.8354 13.3464 72.157 11.5391C70.6275 9.89275 68.8003 9.06592 66.7226 9.06592ZM70.7561 17.3635C70.7561 18.1903 70.5802 18.944 70.2282 19.661C69.4567 21.2123 68.34 21.9293 66.7226 21.9293C65.6939 21.9293 64.7193 21.5342 63.9817 20.8098C63.0342 19.8806 62.5875 18.7684 62.6146 17.4001C62.6281 16.8001 62.75 16.1927 62.9733 15.6586C63.3455 14.744 63.8937 14.0708 64.6517 13.5952C65.2946 13.1927 65.9714 12.9952 66.7226 12.9952C67.7919 12.9952 68.719 13.4123 69.5515 14.261C70.3636 15.0952 70.7561 16.1123 70.7561 17.3635Z" fill="#00B289"/>
<path d="M85.4622 9.06592C84.2305 9.06592 83.1409 9.42445 82.1934 10.1342C81.943 9.68055 81.4828 9.37324 80.955 9.37324H78.7825V25.5293H82.4709V17.0781C82.4709 16.3757 82.5048 15.7464 82.5724 15.2269C82.6739 14.6123 82.992 14.1074 83.574 13.661C84.1425 13.2074 84.7313 12.9952 85.3878 12.9952C86.5315 12.9952 87.3504 13.4269 87.9663 14.3488C88.352 14.9342 88.5483 15.8488 88.5483 17.0708V23.9635C88.5483 24.8269 89.198 25.522 89.9898 25.522H92.2299V17.0708C92.2299 14.8171 91.7562 13.0391 90.8222 11.7806C89.4687 9.98055 87.6617 9.06592 85.4622 9.06592Z" fill="#00B289"/>
<path d="M130.122 10.9318V25.5294H132.362C133.161 25.5294 133.804 24.8269 133.804 23.9709V9.37329H131.564C130.772 9.37329 130.122 10.0684 130.122 10.9318Z" fill="#00B289"/>
<path d="M132.403 4.57325H130.589C130.332 4.57325 130.122 4.34642 130.122 4.06838V2.1074C130.122 1.26594 130.752 0.585449 131.53 0.585449H133.811V3.0513C133.804 3.89277 133.181 4.57325 132.403 4.57325Z" fill="#00B289"/>
<path d="M105.149 17.166C104.222 16.5513 103.173 16.0538 102.002 15.6806C101.901 15.644 101.779 15.6074 101.651 15.5635C101.522 15.527 101.387 15.4904 101.244 15.4538C100.947 15.3367 100.669 15.1831 100.405 14.9855C100.141 14.7879 100.02 14.5099 100.04 14.1513V14.1221C100.04 13.6904 100.168 13.3611 100.432 13.1416C100.696 12.9221 101.014 12.8123 101.4 12.8123C101.732 12.8123 102.023 12.9074 102.28 13.0977C102.348 13.1489 102.402 13.2001 102.456 13.266C102.659 13.5221 102.984 13.6245 103.268 13.4855L105.84 12.2196C105.603 11.5977 105.231 11.0343 104.71 10.5367C103.749 9.60013 102.666 9.13184 101.461 9.13184C100.182 9.13184 99.0518 9.57818 98.0569 10.4635C97.0621 11.3489 96.5613 12.5196 96.5613 13.9757C96.5613 14.6343 96.6763 15.2416 96.9132 15.7904C97.15 16.3392 97.502 16.8294 97.9757 17.2611C98.1314 17.4148 98.287 17.5392 98.4359 17.6416C98.5848 17.744 98.7269 17.8318 98.869 17.9123C99.045 18.0074 99.221 18.0953 99.3902 18.1684C99.5661 18.2416 99.7488 18.3221 99.9383 18.3953L100.25 18.5123C100.358 18.5489 100.466 18.5855 100.588 18.6221C100.73 18.6806 100.872 18.7318 101.021 18.7757C101.17 18.8196 101.326 18.8855 101.481 18.9587C101.881 19.1123 102.246 19.3099 102.571 19.566C102.896 19.8221 103.058 20.1879 103.058 20.6562C103.058 21.1465 102.889 21.5196 102.557 21.7757C102.226 22.0318 101.847 22.1562 101.427 22.1562C100.92 22.1562 100.514 21.9879 100.196 21.644C100.162 21.6074 100.121 21.5635 100.094 21.5196C99.7353 21.0733 98.9976 20.8099 98.463 20.9343L96.1484 21.4831C96.3582 22.5953 96.8387 23.5392 97.5899 24.3001C98.578 25.3026 99.8165 25.8001 101.299 25.8001C101.441 25.8001 101.576 25.7928 101.718 25.7709L102.138 25.7123C102.679 25.5953 103.207 25.4123 103.721 25.1489C104.236 24.8855 104.689 24.5635 105.068 24.1831C105.556 23.6709 105.921 23.1001 106.171 22.4709C106.415 21.8416 106.537 21.1538 106.537 20.4148C106.544 18.8635 106.077 17.7733 105.149 17.166Z" fill="#00B289"/>
</svg>
