<svg width="42" height="42" viewBox="0 0 42 42" fill="none" xmlns="http://www.w3.org/2000/svg">
<path d="M31.2521 5.93513H17.1607V11.2155V14.4365V17.1506V19.5162V24.8494H24.8498V17.1612H19.0382V11.226H27.666C28.5309 11.226 29.3114 11.5746 29.8704 12.1448C30.44 12.7046 30.788 13.4966 30.788 14.352V27.8169V30.7845H27.8242H14.3446C13.4797 30.7845 12.6991 30.436 12.1401 29.8657C11.5706 29.2954 11.2225 28.514 11.2225 27.6585V14.4471V14.1936V11.226V3.37943V0H31.2521C34.216 0 36.895 1.20392 38.8463 3.15766C40.787 5.10083 42 7.79381 42 10.7508V33.0445V37.2477V39.1064C42 40.701 40.7027 42 39.11 42H38.6143H37.0954H10.7479C7.78403 42 5.10497 40.7961 3.15369 38.8423C1.20241 36.8992 0 34.2062 0 31.2492V11.2155H3.10095H5.92767H9.33451V17.1506H5.92767V31.2492C5.92767 32.5693 6.4656 33.7732 7.34103 34.6497C8.21647 35.5263 9.41889 36.0649 10.7373 36.0649H36.0512V10.7508C36.0512 9.43073 35.5133 8.2268 34.6379 7.35026C33.773 6.48428 32.5811 5.93513 31.2521 5.93513Z" fill="#00B289"/>
</svg>
