<svg width="49" height="36" viewBox="0 0 49 36" fill="none" xmlns="http://www.w3.org/2000/svg">
<g clip-path="url(#clip0_27_1718)">
<path d="M46.5311 7.2C41.284 7.56 36.8121 10.86 34.6655 15.42H41.4629C44.2653 15.42 46.5907 17.7 46.5907 20.58V30.84C46.5907 33.66 44.3249 36 41.4629 36H31.1476C28.3452 36 26.0198 33.72 26.0198 30.84V20.58C26.0198 9.24 35.2022 0 46.4714 0C46.4714 0 48.4987 0 48.4987 2.04C48.4987 2.04 48.4987 2.4 48.4987 5.1C48.5583 7.2 46.5311 7.2 46.5311 7.2ZM20.9516 7.2C15.7046 7.56 11.2326 10.86 9.0861 15.42H15.8834C18.6858 15.42 21.0112 17.7 21.0112 20.58V30.84C21.0112 33.66 18.7455 36 15.8834 36H5.62781C2.8254 36 0.5 33.72 0.5 30.84V20.58C0.5 9.24 9.68236 0 20.9516 0C20.9516 0 22.9789 0 22.9789 2.04C22.9789 2.04 22.9789 2.4 22.9789 5.1C22.9789 7.2 20.9516 7.2 20.9516 7.2Z" fill="#BBE1FD"/>
</g>
<defs>
<clipPath id="clip0_27_1718">
<rect width="48" height="36" fill="white" transform="translate(0.5)"/>
</clipPath>
</defs>
</svg>
